G75*
%MOIN*%
%OFA0B0*%
%FSLAX25Y25*%
%IPPOS*%
%LPD*%
%AMOC8*
5,1,8,0,0,1.08239X$1,22.5*
%
%ADD10C,0.00600*%
%ADD11C,0.01200*%
%ADD12C,0.00400*%
%ADD13C,0.00787*%
%ADD14R,0.47850X0.00075*%
%ADD15R,0.48000X0.00075*%
%ADD16R,0.34800X0.00075*%
%ADD17R,0.12750X0.00075*%
%ADD18R,0.22725X0.00075*%
%ADD19R,0.01725X0.00075*%
%ADD20R,0.07875X0.00075*%
%ADD21R,0.00675X0.00075*%
%ADD22R,0.01425X0.00075*%
%ADD23R,0.09225X0.00075*%
%ADD24R,0.01500X0.00075*%
%ADD25R,0.07725X0.00075*%
%ADD26R,0.00525X0.00075*%
%ADD27R,0.01275X0.00075*%
%ADD28R,0.01350X0.00075*%
%ADD29R,0.07575X0.00075*%
%ADD30R,0.00375X0.00075*%
%ADD31R,0.09300X0.00075*%
%ADD32R,0.07500X0.00075*%
%ADD33R,0.01200X0.00075*%
%ADD34R,0.07650X0.00075*%
%ADD35R,0.13725X0.00075*%
%ADD36R,0.07425X0.00075*%
%ADD37R,0.00300X0.00075*%
%ADD38R,0.01125X0.00075*%
%ADD39R,0.09375X0.00075*%
%ADD40R,0.07125X0.00075*%
%ADD41R,0.13125X0.00075*%
%ADD42R,0.06750X0.00075*%
%ADD43R,0.12825X0.00075*%
%ADD44R,0.00825X0.00075*%
%ADD45R,0.07350X0.00075*%
%ADD46R,0.00750X0.00075*%
%ADD47R,0.01050X0.00075*%
%ADD48R,0.06450X0.00075*%
%ADD49R,0.12450X0.00075*%
%ADD50R,0.00975X0.00075*%
%ADD51R,0.00900X0.00075*%
%ADD52R,0.09450X0.00075*%
%ADD53R,0.06225X0.00075*%
%ADD54R,0.12225X0.00075*%
%ADD55R,0.07275X0.00075*%
%ADD56R,0.06000X0.00075*%
%ADD57R,0.12000X0.00075*%
%ADD58R,0.05775X0.00075*%
%ADD59R,0.11850X0.00075*%
%ADD60R,0.09525X0.00075*%
%ADD61R,0.05625X0.00075*%
%ADD62R,0.11625X0.00075*%
%ADD63R,0.05475X0.00075*%
%ADD64R,0.11475X0.00075*%
%ADD65R,0.08850X0.00075*%
%ADD66R,0.00450X0.00075*%
%ADD67R,0.09600X0.00075*%
%ADD68R,0.05250X0.00075*%
%ADD69R,0.11325X0.00075*%
%ADD70R,0.08700X0.00075*%
%ADD71R,0.05100X0.00075*%
%ADD72R,0.11175X0.00075*%
%ADD73R,0.08400X0.00075*%
%ADD74R,0.05025X0.00075*%
%ADD75R,0.11025X0.00075*%
%ADD76R,0.08100X0.00075*%
%ADD77R,0.00600X0.00075*%
%ADD78R,0.09675X0.00075*%
%ADD79R,0.04875X0.00075*%
%ADD80R,0.10875X0.00075*%
%ADD81R,0.07800X0.00075*%
%ADD82R,0.04725X0.00075*%
%ADD83R,0.10725X0.00075*%
%ADD84R,0.04575X0.00075*%
%ADD85R,0.10650X0.00075*%
%ADD86R,0.09750X0.00075*%
%ADD87R,0.04500X0.00075*%
%ADD88R,0.10500X0.00075*%
%ADD89R,0.04350X0.00075*%
%ADD90R,0.10425X0.00075*%
%ADD91R,0.07200X0.00075*%
%ADD92R,0.09825X0.00075*%
%ADD93R,0.04275X0.00075*%
%ADD94R,0.10275X0.00075*%
%ADD95R,0.07050X0.00075*%
%ADD96R,0.01650X0.00075*%
%ADD97R,0.04125X0.00075*%
%ADD98R,0.10200X0.00075*%
%ADD99R,0.00075X0.00075*%
%ADD100R,0.01950X0.00075*%
%ADD101R,0.00225X0.00075*%
%ADD102R,0.04050X0.00075*%
%ADD103R,0.02325X0.00075*%
%ADD104R,0.10050X0.00075*%
%ADD105R,0.00150X0.00075*%
%ADD106R,0.06900X0.00075*%
%ADD107R,0.02100X0.00075*%
%ADD108R,0.09900X0.00075*%
%ADD109R,0.03975X0.00075*%
%ADD110R,0.03075X0.00075*%
%ADD111R,0.09975X0.00075*%
%ADD112R,0.06825X0.00075*%
%ADD113R,0.03900X0.00075*%
%ADD114R,0.03600X0.00075*%
%ADD115R,0.03750X0.00075*%
%ADD116R,0.03675X0.00075*%
%ADD117R,0.04425X0.00075*%
%ADD118R,0.06675X0.00075*%
%ADD119R,0.03525X0.00075*%
%ADD120R,0.05175X0.00075*%
%ADD121R,0.03450X0.00075*%
%ADD122R,0.03375X0.00075*%
%ADD123R,0.10125X0.00075*%
%ADD124R,0.03300X0.00075*%
%ADD125R,0.06075X0.00075*%
%ADD126R,0.03225X0.00075*%
%ADD127R,0.06300X0.00075*%
%ADD128R,0.03150X0.00075*%
%ADD129R,0.06525X0.00075*%
%ADD130R,0.09150X0.00075*%
%ADD131R,0.06975X0.00075*%
%ADD132R,0.03000X0.00075*%
%ADD133R,0.34350X0.00075*%
%ADD134R,0.02925X0.00075*%
%ADD135R,0.34275X0.00075*%
%ADD136R,0.02850X0.00075*%
%ADD137R,0.34200X0.00075*%
%ADD138R,0.02550X0.00075*%
%ADD139R,0.34125X0.00075*%
%ADD140R,0.02775X0.00075*%
%ADD141R,0.02475X0.00075*%
%ADD142R,0.34050X0.00075*%
%ADD143R,0.02700X0.00075*%
%ADD144R,0.02250X0.00075*%
%ADD145R,0.02625X0.00075*%
%ADD146R,0.02175X0.00075*%
%ADD147R,0.33975X0.00075*%
%ADD148R,0.33900X0.00075*%
%ADD149R,0.02025X0.00075*%
%ADD150R,0.33825X0.00075*%
%ADD151R,0.01875X0.00075*%
%ADD152R,0.33750X0.00075*%
%ADD153R,0.02400X0.00075*%
%ADD154R,0.01800X0.00075*%
%ADD155R,0.33675X0.00075*%
%ADD156R,0.33600X0.00075*%
%ADD157R,0.33525X0.00075*%
%ADD158R,0.33450X0.00075*%
%ADD159R,0.01575X0.00075*%
%ADD160R,0.04650X0.00075*%
%ADD161R,0.04800X0.00075*%
%ADD162R,0.05325X0.00075*%
%ADD163R,0.05925X0.00075*%
%ADD164R,0.03825X0.00075*%
%ADD165R,0.04200X0.00075*%
%ADD166R,0.47700X0.00075*%
%ADD167R,0.47550X0.00075*%
%ADD168R,0.47400X0.00075*%
%ADD169R,0.47250X0.00075*%
%ADD170R,0.47100X0.00075*%
%ADD171R,0.46650X0.00075*%
%ADD172C,0.00300*%
D10*
X0134259Y0099398D02*
X0140408Y0099398D01*
X0140408Y0110598D02*
X0134259Y0110598D01*
X0151259Y0073602D02*
X0157408Y0073602D01*
X0157408Y0062402D02*
X0151259Y0062402D01*
X0193259Y0059402D02*
X0199408Y0059402D01*
X0199408Y0070602D02*
X0193259Y0070602D01*
X0020795Y0174368D02*
X0019727Y0173300D01*
X0016524Y0173300D01*
X0016524Y0171165D02*
X0016524Y0177570D01*
X0019727Y0177570D01*
X0020795Y0176503D01*
X0020795Y0174368D01*
X0014349Y0174368D02*
X0014349Y0176503D01*
X0013282Y0177570D01*
X0011146Y0177570D01*
X0010079Y0176503D01*
X0010079Y0174368D01*
X0011146Y0173300D01*
X0013282Y0173300D01*
X0014349Y0174368D01*
X0007904Y0179705D02*
X0003633Y0179705D01*
X0005768Y0179705D02*
X0005768Y0173300D01*
D11*
X0014827Y0130679D02*
X0021733Y0121471D01*
X0014827Y0116867D02*
X0014827Y0107659D01*
X0014827Y0103055D02*
X0014827Y0093847D01*
X0014827Y0089243D02*
X0014827Y0080035D01*
X0014827Y0075431D02*
X0014827Y0066224D01*
X0014827Y0061620D02*
X0014827Y0052412D01*
X0007922Y0047808D02*
X0014827Y0038600D01*
X0021733Y0047808D01*
X0007922Y0121471D02*
X0014827Y0130679D01*
D12*
X0044325Y0029967D02*
X0045093Y0029200D01*
X0046627Y0029200D01*
X0047395Y0029967D01*
X0048929Y0029967D02*
X0048929Y0029200D01*
X0048929Y0029967D02*
X0051999Y0033037D01*
X0051999Y0033804D01*
X0048929Y0033804D01*
X0047395Y0033037D02*
X0046627Y0033804D01*
X0045093Y0033804D01*
X0044325Y0033037D01*
X0044325Y0029967D01*
X0043533Y0055200D02*
X0043533Y0059804D01*
X0045835Y0059804D01*
X0046603Y0059037D01*
X0046603Y0057502D01*
X0045835Y0056735D01*
X0043533Y0056735D01*
X0045068Y0056735D02*
X0046603Y0055200D01*
X0048137Y0055200D02*
X0051207Y0055200D01*
X0049672Y0055200D02*
X0049672Y0059804D01*
X0048137Y0058269D01*
X0067533Y0058967D02*
X0068301Y0058200D01*
X0069835Y0058200D01*
X0070603Y0058967D01*
X0072137Y0058967D02*
X0072137Y0059735D01*
X0072905Y0060502D01*
X0074439Y0060502D01*
X0075207Y0059735D01*
X0075207Y0058967D01*
X0074439Y0058200D01*
X0072905Y0058200D01*
X0072137Y0058967D01*
X0072905Y0060502D02*
X0072137Y0061269D01*
X0072137Y0062037D01*
X0072905Y0062804D01*
X0074439Y0062804D01*
X0075207Y0062037D01*
X0075207Y0061269D01*
X0074439Y0060502D01*
X0070603Y0062037D02*
X0069835Y0062804D01*
X0068301Y0062804D01*
X0067533Y0062037D01*
X0067533Y0058967D01*
X0107029Y0059863D02*
X0107029Y0061398D01*
X0107797Y0062165D01*
X0108564Y0062165D01*
X0109331Y0061398D01*
X0110099Y0062165D01*
X0110866Y0062165D01*
X0111633Y0061398D01*
X0111633Y0059863D01*
X0110866Y0059096D01*
X0110866Y0057561D02*
X0107029Y0057561D01*
X0107797Y0059096D02*
X0107029Y0059863D01*
X0109331Y0060631D02*
X0109331Y0061398D01*
X0110866Y0057561D02*
X0111633Y0056794D01*
X0111633Y0055259D01*
X0110866Y0054492D01*
X0107029Y0054492D01*
X0118533Y0065967D02*
X0119301Y0065200D01*
X0120835Y0065200D01*
X0121603Y0065967D01*
X0123137Y0065967D02*
X0123905Y0065200D01*
X0125439Y0065200D01*
X0126207Y0065967D01*
X0126207Y0069037D01*
X0125439Y0069804D01*
X0123905Y0069804D01*
X0123137Y0069037D01*
X0123137Y0068269D01*
X0123905Y0067502D01*
X0126207Y0067502D01*
X0121603Y0069037D02*
X0120835Y0069804D01*
X0119301Y0069804D01*
X0118533Y0069037D01*
X0118533Y0065967D01*
X0133297Y0051873D02*
X0134064Y0051873D01*
X0134831Y0051106D01*
X0135599Y0051873D01*
X0136366Y0051873D01*
X0137133Y0051106D01*
X0137133Y0049571D01*
X0136366Y0048804D01*
X0137133Y0047269D02*
X0135599Y0045735D01*
X0135599Y0046502D02*
X0135599Y0044200D01*
X0137133Y0044200D02*
X0132529Y0044200D01*
X0132529Y0046502D01*
X0133297Y0047269D01*
X0134831Y0047269D01*
X0135599Y0046502D01*
X0133297Y0048804D02*
X0132529Y0049571D01*
X0132529Y0051106D01*
X0133297Y0051873D01*
X0134831Y0051106D02*
X0134831Y0050339D01*
X0126999Y0043037D02*
X0126231Y0043804D01*
X0124697Y0043804D01*
X0123929Y0043037D01*
X0122395Y0043037D02*
X0122395Y0041502D01*
X0121627Y0040735D01*
X0119325Y0040735D01*
X0119325Y0039200D02*
X0119325Y0043804D01*
X0121627Y0043804D01*
X0122395Y0043037D01*
X0120860Y0040735D02*
X0122395Y0039200D01*
X0123929Y0039200D02*
X0126999Y0042269D01*
X0126999Y0043037D01*
X0126999Y0039200D02*
X0123929Y0039200D01*
X0154325Y0046200D02*
X0154325Y0050804D01*
X0156627Y0050804D01*
X0157395Y0050037D01*
X0157395Y0048502D01*
X0156627Y0047735D01*
X0154325Y0047735D01*
X0155860Y0047735D02*
X0157395Y0046200D01*
X0158929Y0046967D02*
X0159697Y0046200D01*
X0161231Y0046200D01*
X0161999Y0046967D01*
X0161999Y0048502D01*
X0161231Y0049269D01*
X0160464Y0049269D01*
X0158929Y0048502D01*
X0158929Y0050804D01*
X0161999Y0050804D01*
X0171325Y0050804D02*
X0171325Y0046200D01*
X0171325Y0047735D02*
X0173627Y0047735D01*
X0174395Y0048502D01*
X0174395Y0050037D01*
X0173627Y0050804D01*
X0171325Y0050804D01*
X0172860Y0047735D02*
X0174395Y0046200D01*
X0175929Y0048502D02*
X0178999Y0048502D01*
X0178231Y0046200D02*
X0178231Y0050804D01*
X0175929Y0048502D01*
X0190283Y0071450D02*
X0190283Y0075053D01*
X0191484Y0073852D01*
X0192685Y0075053D01*
X0192685Y0071450D01*
X0193966Y0071450D02*
X0196369Y0071450D01*
X0195167Y0071450D02*
X0195167Y0075053D01*
X0193966Y0073852D01*
X0179078Y0082597D02*
X0179078Y0084132D01*
X0178311Y0084899D01*
X0179078Y0086434D02*
X0179078Y0089503D01*
X0179078Y0087968D02*
X0174474Y0087968D01*
X0176009Y0086434D01*
X0175242Y0084899D02*
X0174474Y0084132D01*
X0174474Y0082597D01*
X0175242Y0081830D01*
X0178311Y0081830D01*
X0179078Y0082597D01*
X0177366Y0100992D02*
X0174297Y0100992D01*
X0173529Y0101759D01*
X0173529Y0103294D01*
X0174297Y0104061D01*
X0174297Y0105596D02*
X0173529Y0106363D01*
X0173529Y0107898D01*
X0174297Y0108665D01*
X0175064Y0108665D01*
X0178133Y0105596D01*
X0178133Y0108665D01*
X0177366Y0104061D02*
X0178133Y0103294D01*
X0178133Y0101759D01*
X0177366Y0100992D01*
X0163133Y0101759D02*
X0162366Y0100992D01*
X0159297Y0100992D01*
X0158529Y0101759D01*
X0158529Y0103294D01*
X0159297Y0104061D01*
X0159297Y0105596D02*
X0158529Y0106363D01*
X0158529Y0107898D01*
X0159297Y0108665D01*
X0160064Y0108665D01*
X0160831Y0107898D01*
X0161599Y0108665D01*
X0162366Y0108665D01*
X0163133Y0107898D01*
X0163133Y0106363D01*
X0162366Y0105596D01*
X0162366Y0104061D02*
X0163133Y0103294D01*
X0163133Y0101759D01*
X0160831Y0107131D02*
X0160831Y0107898D01*
X0141301Y0098553D02*
X0141301Y0094950D01*
X0140100Y0094950D02*
X0142502Y0094950D01*
X0142489Y0092804D02*
X0141722Y0092037D01*
X0141722Y0088967D01*
X0142489Y0088200D01*
X0144023Y0088200D01*
X0144791Y0088967D01*
X0146325Y0088200D02*
X0149395Y0088200D01*
X0147860Y0088200D02*
X0147860Y0092804D01*
X0146325Y0091269D01*
X0144791Y0092037D02*
X0144023Y0092804D01*
X0142489Y0092804D01*
X0138819Y0095551D02*
X0138219Y0094950D01*
X0137018Y0094950D01*
X0136417Y0095551D01*
X0136417Y0098553D01*
X0138819Y0098553D02*
X0138819Y0095551D01*
X0140100Y0097352D02*
X0141301Y0098553D01*
X0150929Y0092037D02*
X0151697Y0092804D01*
X0153231Y0092804D01*
X0153999Y0092037D01*
X0150929Y0088967D01*
X0151697Y0088200D01*
X0153231Y0088200D01*
X0153999Y0088967D01*
X0153999Y0092037D01*
X0150929Y0092037D02*
X0150929Y0088967D01*
X0150685Y0078053D02*
X0150685Y0075051D01*
X0150085Y0074450D01*
X0148884Y0074450D01*
X0148283Y0075051D01*
X0148283Y0078053D01*
X0151966Y0076252D02*
X0154369Y0076252D01*
X0153768Y0078053D02*
X0153768Y0074450D01*
X0151966Y0076252D02*
X0153768Y0078053D01*
X0127133Y0101759D02*
X0126366Y0100992D01*
X0123297Y0100992D01*
X0122529Y0101759D01*
X0122529Y0103294D01*
X0123297Y0104061D01*
X0124831Y0105596D02*
X0124831Y0108665D01*
X0122529Y0107898D02*
X0124831Y0105596D01*
X0126366Y0104061D02*
X0127133Y0103294D01*
X0127133Y0101759D01*
X0127133Y0107898D02*
X0122529Y0107898D01*
X0111366Y0090873D02*
X0109831Y0090873D01*
X0109064Y0090106D01*
X0109064Y0089339D01*
X0109831Y0087804D01*
X0107529Y0087804D01*
X0107529Y0090873D01*
X0111366Y0090873D02*
X0112133Y0090106D01*
X0112133Y0088571D01*
X0111366Y0087804D01*
X0111366Y0086269D02*
X0112133Y0085502D01*
X0112133Y0083967D01*
X0111366Y0083200D01*
X0108297Y0083200D01*
X0107529Y0083967D01*
X0107529Y0085502D01*
X0108297Y0086269D01*
X0077207Y0092967D02*
X0077207Y0093735D01*
X0076439Y0094502D01*
X0074137Y0094502D01*
X0074137Y0092967D01*
X0074905Y0092200D01*
X0076439Y0092200D01*
X0077207Y0092967D01*
X0075672Y0096037D02*
X0074137Y0094502D01*
X0072603Y0096037D02*
X0071835Y0096804D01*
X0070301Y0096804D01*
X0069533Y0096037D01*
X0069533Y0092967D01*
X0070301Y0092200D01*
X0071835Y0092200D01*
X0072603Y0092967D01*
X0075672Y0096037D02*
X0077207Y0096804D01*
X0073707Y0098200D02*
X0070637Y0098200D01*
X0073707Y0101269D01*
X0073707Y0102037D01*
X0072939Y0102804D01*
X0071405Y0102804D01*
X0070637Y0102037D01*
X0069103Y0102804D02*
X0069103Y0098967D01*
X0068335Y0098200D01*
X0066801Y0098200D01*
X0066033Y0098967D01*
X0066033Y0102804D01*
X0202325Y0118700D02*
X0202325Y0123304D01*
X0204627Y0123304D01*
X0205395Y0122537D01*
X0205395Y0121002D01*
X0204627Y0120235D01*
X0202325Y0120235D01*
X0203860Y0120235D02*
X0205395Y0118700D01*
X0206929Y0119467D02*
X0207697Y0118700D01*
X0209231Y0118700D01*
X0209999Y0119467D01*
X0209999Y0120235D01*
X0209231Y0121002D01*
X0206929Y0121002D01*
X0206929Y0119467D01*
X0206929Y0121002D02*
X0208464Y0122537D01*
X0209999Y0123304D01*
D13*
X0139302Y0100472D03*
X0152365Y0072528D03*
X0194365Y0069528D03*
D14*
X0080296Y0173000D03*
D15*
X0080296Y0173075D03*
X0080296Y0173150D03*
X0080296Y0173225D03*
X0080296Y0173300D03*
X0080296Y0173375D03*
X0080296Y0173450D03*
X0080296Y0173525D03*
X0080296Y0173600D03*
X0080296Y0173675D03*
X0080296Y0173750D03*
X0080296Y0173825D03*
X0080296Y0173900D03*
D16*
X0073696Y0173975D03*
D17*
X0097921Y0173975D03*
D18*
X0067658Y0174050D03*
X0067658Y0174125D03*
X0067658Y0174200D03*
X0067658Y0174275D03*
D19*
X0068408Y0177725D03*
X0068483Y0177800D03*
X0066533Y0180200D03*
X0062933Y0180200D03*
X0060758Y0177875D03*
X0060833Y0177800D03*
X0060908Y0177725D03*
X0060908Y0186200D03*
X0064658Y0188225D03*
X0068483Y0186200D03*
X0068558Y0186125D03*
X0079583Y0180200D03*
X0083708Y0180200D03*
X0091508Y0184475D03*
X0093008Y0186125D03*
X0090983Y0187475D03*
X0090833Y0187400D03*
X0095033Y0187475D03*
X0095183Y0187400D03*
X0092633Y0176675D03*
X0081458Y0174050D03*
D20*
X0086858Y0174050D03*
D21*
X0082658Y0176225D03*
X0081458Y0176000D03*
X0081458Y0175925D03*
X0081083Y0176600D03*
X0092183Y0174050D03*
X0092633Y0175250D03*
X0093758Y0175100D03*
X0091508Y0183875D03*
X0081608Y0186725D03*
X0067508Y0182825D03*
X0063908Y0182825D03*
X0062933Y0180050D03*
D22*
X0062033Y0183050D03*
X0062933Y0183800D03*
X0060158Y0185450D03*
X0060008Y0185225D03*
X0059933Y0185150D03*
X0059783Y0184925D03*
X0059858Y0178925D03*
X0059933Y0178850D03*
X0059933Y0178775D03*
X0060008Y0178700D03*
X0060083Y0178625D03*
X0069308Y0178700D03*
X0069383Y0178775D03*
X0069533Y0179000D03*
X0069458Y0185075D03*
X0069383Y0185150D03*
X0069308Y0185300D03*
X0069233Y0185375D03*
X0079133Y0187175D03*
X0079208Y0187250D03*
X0084158Y0187175D03*
X0090458Y0187175D03*
X0091883Y0185225D03*
X0095558Y0187175D03*
X0095633Y0187100D03*
X0094283Y0182375D03*
X0095558Y0180500D03*
X0092708Y0176525D03*
X0093758Y0174050D03*
X0090533Y0180425D03*
X0090458Y0180500D03*
X0084308Y0180575D03*
X0084233Y0180500D03*
X0081608Y0180875D03*
X0081608Y0180950D03*
X0081608Y0181025D03*
X0081608Y0181100D03*
X0081608Y0181175D03*
X0081608Y0181250D03*
X0081608Y0181325D03*
X0081608Y0181400D03*
X0081608Y0181475D03*
X0081608Y0181550D03*
X0081608Y0181625D03*
X0081608Y0181700D03*
X0081608Y0181775D03*
X0081608Y0181850D03*
X0081608Y0181925D03*
X0081608Y0182000D03*
X0081608Y0182075D03*
X0081608Y0182150D03*
X0081608Y0182225D03*
X0081608Y0182300D03*
X0081608Y0182375D03*
X0081608Y0182450D03*
X0081608Y0182525D03*
X0081608Y0182600D03*
X0081608Y0182675D03*
X0081608Y0182750D03*
X0081608Y0182825D03*
X0081608Y0182900D03*
X0081608Y0182975D03*
X0079208Y0180425D03*
X0079058Y0180500D03*
D23*
X0074483Y0176675D03*
X0074408Y0176525D03*
X0099683Y0174125D03*
X0099683Y0174050D03*
D24*
X0092671Y0176600D03*
X0090646Y0180350D03*
X0091921Y0182300D03*
X0091471Y0184325D03*
X0094246Y0185225D03*
X0095446Y0187250D03*
X0090571Y0187250D03*
X0084046Y0187250D03*
X0081646Y0183050D03*
X0083971Y0180350D03*
X0084121Y0180425D03*
X0079321Y0180350D03*
X0081571Y0174125D03*
X0094171Y0182300D03*
X0095446Y0180425D03*
X0069271Y0178625D03*
X0069196Y0178550D03*
X0069121Y0178475D03*
X0069121Y0178400D03*
X0069046Y0178325D03*
X0065746Y0180875D03*
X0066571Y0183800D03*
X0068971Y0185675D03*
X0069046Y0185600D03*
X0069121Y0185525D03*
X0069196Y0185450D03*
X0060421Y0185750D03*
X0060346Y0185675D03*
X0060271Y0185600D03*
X0060196Y0185525D03*
X0060121Y0185375D03*
X0060046Y0185300D03*
X0060121Y0178550D03*
X0060196Y0178475D03*
X0060271Y0178400D03*
X0060346Y0178325D03*
D25*
X0086783Y0174125D03*
D26*
X0082658Y0176075D03*
X0081383Y0176225D03*
X0081308Y0176375D03*
X0081233Y0176450D03*
X0092258Y0174125D03*
X0092633Y0175025D03*
X0092633Y0175100D03*
X0093758Y0175250D03*
X0093758Y0175325D03*
X0091508Y0183800D03*
X0103958Y0189275D03*
X0067583Y0181175D03*
X0063983Y0181175D03*
X0056633Y0189275D03*
D27*
X0059558Y0184550D03*
X0059558Y0184475D03*
X0059483Y0184400D03*
X0059483Y0184325D03*
X0059408Y0184250D03*
X0059408Y0184175D03*
X0059333Y0184025D03*
X0059258Y0183800D03*
X0061883Y0182900D03*
X0061958Y0182975D03*
X0061883Y0181025D03*
X0062933Y0180125D03*
X0063908Y0183050D03*
X0065558Y0182975D03*
X0066533Y0180125D03*
X0069758Y0179450D03*
X0069758Y0179375D03*
X0069833Y0179525D03*
X0069833Y0179600D03*
X0069908Y0179675D03*
X0069908Y0179750D03*
X0069983Y0179900D03*
X0069983Y0184025D03*
X0069908Y0184250D03*
X0069833Y0184400D03*
X0069758Y0184550D03*
X0069683Y0184700D03*
X0059483Y0179600D03*
X0059483Y0179525D03*
X0059558Y0179450D03*
X0059633Y0179300D03*
X0059408Y0179675D03*
X0059408Y0179750D03*
X0059333Y0179900D03*
X0059258Y0180125D03*
X0078833Y0180725D03*
X0078908Y0180650D03*
X0082658Y0176675D03*
X0081458Y0175475D03*
X0081683Y0174275D03*
X0084458Y0180725D03*
X0090008Y0180875D03*
X0090083Y0180800D03*
X0090158Y0180725D03*
X0090233Y0180650D03*
X0091733Y0182450D03*
X0091658Y0182525D03*
X0091733Y0185075D03*
X0091808Y0185150D03*
X0090158Y0186950D03*
X0093008Y0188450D03*
X0095858Y0186950D03*
X0095933Y0186875D03*
X0094433Y0185075D03*
X0094508Y0184925D03*
X0094583Y0182825D03*
X0094508Y0182675D03*
X0094433Y0182600D03*
X0094433Y0182525D03*
X0096008Y0180875D03*
X0095933Y0180800D03*
X0095858Y0180725D03*
X0092783Y0176450D03*
X0092408Y0175550D03*
X0093758Y0174200D03*
X0093758Y0174125D03*
X0084533Y0186875D03*
X0084458Y0186950D03*
X0084383Y0187025D03*
X0081608Y0186275D03*
X0081608Y0186200D03*
X0081608Y0186125D03*
X0081608Y0186050D03*
X0081608Y0188450D03*
X0078908Y0187025D03*
X0078833Y0186950D03*
X0078758Y0186875D03*
D28*
X0079021Y0187100D03*
X0084271Y0187100D03*
X0090271Y0187025D03*
X0090346Y0187100D03*
X0091471Y0184250D03*
X0091771Y0182375D03*
X0090346Y0180575D03*
X0094321Y0182450D03*
X0095746Y0180650D03*
X0095671Y0180575D03*
X0094321Y0185150D03*
X0095746Y0187025D03*
X0084421Y0180650D03*
X0079021Y0180575D03*
X0081646Y0174200D03*
X0069721Y0179300D03*
X0069646Y0179225D03*
X0069646Y0179150D03*
X0069571Y0179075D03*
X0069496Y0178925D03*
X0069421Y0178850D03*
X0067471Y0180875D03*
X0065596Y0180950D03*
X0063871Y0180875D03*
X0061996Y0180950D03*
X0059596Y0179375D03*
X0059671Y0179225D03*
X0059746Y0179150D03*
X0059746Y0179075D03*
X0059821Y0179000D03*
X0065671Y0183050D03*
X0069496Y0185000D03*
X0069571Y0184925D03*
X0069571Y0184850D03*
X0069646Y0184775D03*
X0069721Y0184625D03*
X0069796Y0184475D03*
X0069346Y0185225D03*
X0059896Y0185075D03*
X0059821Y0185000D03*
X0059746Y0184850D03*
X0059671Y0184775D03*
X0059671Y0184700D03*
X0059596Y0184625D03*
D29*
X0086858Y0175325D03*
X0086708Y0174200D03*
D30*
X0082658Y0175925D03*
X0081608Y0179150D03*
X0091508Y0183725D03*
X0093008Y0179150D03*
X0093758Y0175550D03*
X0093758Y0175475D03*
X0092633Y0174875D03*
X0092558Y0174650D03*
X0092483Y0174425D03*
X0092408Y0174275D03*
X0092333Y0174200D03*
X0081608Y0186800D03*
X0067508Y0181250D03*
X0063908Y0181250D03*
D31*
X0074371Y0176450D03*
X0099646Y0174275D03*
X0099646Y0174200D03*
D32*
X0086671Y0174275D03*
D33*
X0081721Y0174350D03*
X0081571Y0175400D03*
X0078721Y0180800D03*
X0078646Y0180875D03*
X0078571Y0180950D03*
X0078496Y0181025D03*
X0084571Y0180800D03*
X0084646Y0180875D03*
X0084721Y0180950D03*
X0084796Y0181025D03*
X0084871Y0181100D03*
X0091546Y0182750D03*
X0091546Y0182825D03*
X0091621Y0182600D03*
X0091471Y0183050D03*
X0091471Y0184175D03*
X0091546Y0184700D03*
X0091621Y0184850D03*
X0091621Y0184925D03*
X0091696Y0185000D03*
X0092971Y0186200D03*
X0094471Y0185000D03*
X0094546Y0184850D03*
X0094621Y0184700D03*
X0094621Y0184625D03*
X0094696Y0184475D03*
X0094696Y0184400D03*
X0094696Y0184325D03*
X0094771Y0184100D03*
X0094771Y0184025D03*
X0094771Y0183950D03*
X0094771Y0183875D03*
X0094771Y0183800D03*
X0094771Y0183725D03*
X0094771Y0183650D03*
X0094771Y0183575D03*
X0094771Y0183500D03*
X0094771Y0183425D03*
X0094696Y0183275D03*
X0094696Y0183200D03*
X0094696Y0183125D03*
X0094696Y0183050D03*
X0094621Y0182975D03*
X0094621Y0182900D03*
X0094546Y0182750D03*
X0096121Y0180950D03*
X0092746Y0176375D03*
X0093796Y0174275D03*
X0096271Y0186500D03*
X0096196Y0186575D03*
X0096121Y0186650D03*
X0096046Y0186725D03*
X0095971Y0186800D03*
X0090121Y0186875D03*
X0090046Y0186800D03*
X0089971Y0186725D03*
X0089896Y0186650D03*
X0089821Y0186575D03*
X0084721Y0186725D03*
X0084646Y0186800D03*
X0081646Y0186425D03*
X0081646Y0186350D03*
X0081646Y0185975D03*
X0081646Y0185900D03*
X0078646Y0186800D03*
X0078571Y0186725D03*
X0070096Y0183800D03*
X0070096Y0183725D03*
X0070096Y0183650D03*
X0070171Y0183500D03*
X0070171Y0183425D03*
X0070171Y0183350D03*
X0070246Y0183200D03*
X0070246Y0183125D03*
X0070246Y0183050D03*
X0070321Y0182600D03*
X0070321Y0182525D03*
X0070321Y0182450D03*
X0070321Y0181475D03*
X0070321Y0181400D03*
X0070321Y0181325D03*
X0070246Y0180875D03*
X0070246Y0180800D03*
X0070171Y0180575D03*
X0070171Y0180500D03*
X0070171Y0180425D03*
X0070096Y0180275D03*
X0070096Y0180200D03*
X0070096Y0180125D03*
X0070021Y0180050D03*
X0070021Y0179975D03*
X0069946Y0179825D03*
X0067546Y0183050D03*
X0065521Y0182900D03*
X0065446Y0182825D03*
X0065446Y0181100D03*
X0065521Y0181025D03*
X0061846Y0181100D03*
X0061846Y0181175D03*
X0061771Y0181250D03*
X0061696Y0181550D03*
X0061696Y0182375D03*
X0061771Y0182675D03*
X0061846Y0182825D03*
X0059146Y0183350D03*
X0059146Y0183425D03*
X0059146Y0183500D03*
X0059146Y0183575D03*
X0059221Y0183650D03*
X0059221Y0183725D03*
X0059296Y0183875D03*
X0059296Y0183950D03*
X0059371Y0184100D03*
X0059071Y0183200D03*
X0059071Y0183125D03*
X0059071Y0183050D03*
X0058996Y0182750D03*
X0058996Y0182675D03*
X0058996Y0182600D03*
X0058996Y0181400D03*
X0058996Y0181325D03*
X0058996Y0181250D03*
X0058996Y0181175D03*
X0059071Y0180875D03*
X0059071Y0180800D03*
X0059071Y0180725D03*
X0059146Y0180575D03*
X0059146Y0180500D03*
X0059146Y0180425D03*
X0059221Y0180350D03*
X0059221Y0180275D03*
X0059221Y0180200D03*
X0059296Y0180050D03*
X0059296Y0179975D03*
X0059371Y0179825D03*
X0064621Y0175700D03*
X0070021Y0183875D03*
X0070021Y0183950D03*
X0069946Y0184100D03*
X0069946Y0184175D03*
X0069871Y0184325D03*
D34*
X0060121Y0174350D03*
D35*
X0072158Y0174350D03*
D36*
X0086633Y0174350D03*
X0086633Y0174425D03*
X0086858Y0175400D03*
D37*
X0091321Y0174425D03*
X0092446Y0174350D03*
X0092521Y0174500D03*
X0092521Y0174575D03*
X0092596Y0174725D03*
X0092596Y0174800D03*
X0093796Y0175625D03*
D38*
X0093758Y0174425D03*
X0093758Y0174350D03*
X0092783Y0176300D03*
X0091283Y0174875D03*
X0089933Y0180950D03*
X0089858Y0181025D03*
X0089783Y0181100D03*
X0089708Y0181175D03*
X0089558Y0181400D03*
X0091583Y0182675D03*
X0091508Y0182900D03*
X0091508Y0182975D03*
X0091508Y0184550D03*
X0091508Y0184625D03*
X0091583Y0184775D03*
X0089783Y0186500D03*
X0089708Y0186425D03*
X0089633Y0186350D03*
X0084983Y0186425D03*
X0084908Y0186500D03*
X0084833Y0186575D03*
X0084758Y0186650D03*
X0081608Y0186500D03*
X0078533Y0186650D03*
X0078458Y0186575D03*
X0078383Y0186500D03*
X0078308Y0186425D03*
X0078158Y0186200D03*
X0078233Y0181325D03*
X0078308Y0181250D03*
X0078383Y0181175D03*
X0078458Y0181100D03*
X0082658Y0176600D03*
X0081458Y0175550D03*
X0081608Y0175325D03*
X0081683Y0175250D03*
X0081758Y0175100D03*
X0081758Y0174500D03*
X0081758Y0174425D03*
X0084908Y0181175D03*
X0084983Y0181250D03*
X0085058Y0181325D03*
X0092933Y0181325D03*
X0094733Y0183350D03*
X0094733Y0184175D03*
X0094733Y0184250D03*
X0094658Y0184550D03*
X0094583Y0184775D03*
X0096308Y0186425D03*
X0096383Y0186350D03*
X0096458Y0186275D03*
X0096383Y0181250D03*
X0096308Y0181175D03*
X0096233Y0181100D03*
X0096158Y0181025D03*
X0070358Y0181550D03*
X0070358Y0181625D03*
X0070358Y0181700D03*
X0070358Y0181775D03*
X0070358Y0181850D03*
X0070358Y0181925D03*
X0070358Y0182000D03*
X0070358Y0182075D03*
X0070358Y0182150D03*
X0070358Y0182225D03*
X0070358Y0182300D03*
X0070358Y0182375D03*
X0070283Y0182675D03*
X0070283Y0182750D03*
X0070283Y0182825D03*
X0070283Y0182900D03*
X0070283Y0182975D03*
X0070208Y0183275D03*
X0070133Y0183575D03*
X0067583Y0182975D03*
X0067583Y0180950D03*
X0065408Y0181175D03*
X0065408Y0181250D03*
X0065333Y0181325D03*
X0065333Y0181400D03*
X0065333Y0181475D03*
X0065333Y0181550D03*
X0065258Y0181700D03*
X0065258Y0181775D03*
X0065258Y0181850D03*
X0065258Y0181925D03*
X0065258Y0182000D03*
X0065258Y0182075D03*
X0065258Y0182150D03*
X0065258Y0182225D03*
X0065333Y0182450D03*
X0065333Y0182525D03*
X0065333Y0182600D03*
X0065408Y0182675D03*
X0065408Y0182750D03*
X0063983Y0182975D03*
X0063983Y0180950D03*
X0061733Y0181325D03*
X0061733Y0181400D03*
X0061733Y0181475D03*
X0061658Y0181625D03*
X0061658Y0181700D03*
X0061658Y0181775D03*
X0061658Y0181850D03*
X0061658Y0181925D03*
X0061658Y0182000D03*
X0061658Y0182075D03*
X0061658Y0182150D03*
X0061658Y0182225D03*
X0061658Y0182300D03*
X0061733Y0182450D03*
X0061733Y0182525D03*
X0061733Y0182600D03*
X0061808Y0182750D03*
X0059108Y0183275D03*
X0059033Y0182975D03*
X0059033Y0182900D03*
X0059033Y0182825D03*
X0058958Y0182525D03*
X0058958Y0182450D03*
X0058958Y0182375D03*
X0058958Y0182300D03*
X0058958Y0182225D03*
X0058958Y0182150D03*
X0058958Y0182075D03*
X0058958Y0182000D03*
X0058958Y0181925D03*
X0058958Y0181850D03*
X0058958Y0181775D03*
X0058958Y0181700D03*
X0058958Y0181625D03*
X0058958Y0181550D03*
X0058958Y0181475D03*
X0059033Y0181100D03*
X0059033Y0181025D03*
X0059033Y0180950D03*
X0059108Y0180650D03*
X0070133Y0180350D03*
X0070208Y0180650D03*
X0070208Y0180725D03*
X0070283Y0180950D03*
X0070283Y0181025D03*
X0070283Y0181100D03*
X0070283Y0181175D03*
X0070283Y0181250D03*
D39*
X0074333Y0176375D03*
X0099608Y0174500D03*
X0099608Y0174425D03*
X0099608Y0174350D03*
D40*
X0064658Y0187175D03*
X0059858Y0174425D03*
D41*
X0072458Y0174425D03*
D42*
X0059671Y0174500D03*
X0086896Y0176000D03*
X0086896Y0176075D03*
X0087121Y0176450D03*
X0087196Y0176525D03*
X0087271Y0176600D03*
D43*
X0072608Y0174500D03*
D44*
X0080033Y0174500D03*
X0080033Y0175175D03*
X0080033Y0176150D03*
X0081533Y0175775D03*
X0082658Y0176300D03*
X0085733Y0182750D03*
X0085808Y0183050D03*
X0085808Y0183125D03*
X0085808Y0183200D03*
X0085883Y0183800D03*
X0085883Y0183875D03*
X0085808Y0184400D03*
X0085808Y0184475D03*
X0085808Y0184550D03*
X0085733Y0184925D03*
X0088808Y0184475D03*
X0088808Y0184400D03*
X0088808Y0184325D03*
X0088808Y0184250D03*
X0088883Y0184775D03*
X0088808Y0183425D03*
X0088808Y0183350D03*
X0088808Y0183275D03*
X0088808Y0183200D03*
X0088883Y0182825D03*
X0081608Y0185675D03*
X0077483Y0184625D03*
X0077483Y0184550D03*
X0077408Y0184250D03*
X0077408Y0184175D03*
X0077408Y0184100D03*
X0077408Y0184025D03*
X0077408Y0183950D03*
X0077408Y0183875D03*
X0077408Y0183800D03*
X0077408Y0183725D03*
X0077408Y0183650D03*
X0077408Y0183575D03*
X0077408Y0183500D03*
X0077408Y0183425D03*
X0077483Y0183050D03*
X0077483Y0182975D03*
X0077558Y0182675D03*
X0067583Y0182900D03*
X0063983Y0182900D03*
X0091283Y0176150D03*
X0091283Y0176075D03*
X0097133Y0182900D03*
X0097208Y0183275D03*
X0097208Y0183350D03*
X0097208Y0183425D03*
X0097208Y0183500D03*
X0097208Y0183575D03*
X0097208Y0183650D03*
X0097208Y0183725D03*
X0097208Y0183800D03*
X0097208Y0183875D03*
X0097208Y0183950D03*
X0097208Y0184025D03*
X0097208Y0184100D03*
X0097208Y0184175D03*
X0097208Y0184250D03*
X0097208Y0184325D03*
X0097133Y0184700D03*
X0097133Y0184775D03*
D45*
X0086596Y0174575D03*
X0086596Y0174500D03*
D46*
X0091321Y0174500D03*
X0092596Y0175325D03*
X0081496Y0175850D03*
X0079996Y0175625D03*
X0067621Y0181100D03*
X0066571Y0180050D03*
X0064021Y0181100D03*
X0091471Y0183950D03*
D47*
X0091471Y0184100D03*
X0089446Y0186050D03*
X0089446Y0186125D03*
X0089521Y0186200D03*
X0089596Y0186275D03*
X0089371Y0185975D03*
X0085321Y0185900D03*
X0085246Y0186050D03*
X0085171Y0186125D03*
X0085171Y0186200D03*
X0085096Y0186275D03*
X0085021Y0186350D03*
X0081646Y0186575D03*
X0081646Y0185825D03*
X0078271Y0186350D03*
X0078196Y0186275D03*
X0078121Y0186125D03*
X0078046Y0186050D03*
X0077971Y0185900D03*
X0077896Y0181850D03*
X0077971Y0181700D03*
X0078046Y0181625D03*
X0078121Y0181475D03*
X0078196Y0181400D03*
X0085096Y0181400D03*
X0085171Y0181475D03*
X0085246Y0181625D03*
X0085321Y0181700D03*
X0085396Y0181850D03*
X0089296Y0181775D03*
X0089446Y0181550D03*
X0089521Y0181475D03*
X0089596Y0181325D03*
X0089671Y0181250D03*
X0092821Y0176225D03*
X0092521Y0175475D03*
X0091321Y0174800D03*
X0091321Y0174725D03*
X0091321Y0174650D03*
X0093796Y0174500D03*
X0096421Y0181325D03*
X0096496Y0181400D03*
X0096496Y0181475D03*
X0096571Y0181550D03*
X0096646Y0181625D03*
X0096721Y0181775D03*
X0096646Y0185975D03*
X0096571Y0186125D03*
X0096496Y0186200D03*
X0082621Y0176525D03*
X0081496Y0175625D03*
X0081721Y0175175D03*
X0081796Y0175025D03*
X0081796Y0174950D03*
X0081796Y0174875D03*
X0081796Y0174800D03*
X0081796Y0174725D03*
X0081796Y0174650D03*
X0081796Y0174575D03*
X0080146Y0174650D03*
X0080146Y0174725D03*
X0080146Y0174800D03*
X0080146Y0174875D03*
X0080146Y0174950D03*
X0080146Y0175025D03*
X0080896Y0176675D03*
X0065296Y0181625D03*
X0065296Y0182300D03*
X0065296Y0182375D03*
D48*
X0059521Y0174575D03*
D49*
X0072796Y0174575D03*
D50*
X0080108Y0174575D03*
X0080108Y0175100D03*
X0080108Y0175850D03*
X0080108Y0175925D03*
X0080108Y0176000D03*
X0082658Y0176450D03*
X0085208Y0181550D03*
X0085358Y0181775D03*
X0085433Y0181925D03*
X0085508Y0182075D03*
X0085583Y0182225D03*
X0085658Y0185150D03*
X0085583Y0185375D03*
X0085508Y0185525D03*
X0085508Y0185600D03*
X0085433Y0185675D03*
X0085433Y0185750D03*
X0085358Y0185825D03*
X0085283Y0185975D03*
X0081608Y0185750D03*
X0078008Y0185975D03*
X0077933Y0185825D03*
X0077858Y0185750D03*
X0077858Y0185675D03*
X0077783Y0185600D03*
X0077783Y0185525D03*
X0077708Y0185375D03*
X0077633Y0182450D03*
X0077708Y0182225D03*
X0077783Y0182075D03*
X0077858Y0181925D03*
X0077933Y0181775D03*
X0078083Y0181550D03*
X0067658Y0181025D03*
X0064058Y0181025D03*
X0089108Y0182150D03*
X0089183Y0182000D03*
X0089258Y0181925D03*
X0089258Y0181850D03*
X0089333Y0181700D03*
X0089408Y0181625D03*
X0088958Y0185075D03*
X0089033Y0185300D03*
X0089108Y0185450D03*
X0089108Y0185525D03*
X0089183Y0185600D03*
X0089183Y0185675D03*
X0089258Y0185750D03*
X0089258Y0185825D03*
X0089333Y0185900D03*
X0096608Y0186050D03*
X0096683Y0185900D03*
X0096758Y0185825D03*
X0096758Y0185750D03*
X0096833Y0185675D03*
X0096833Y0185600D03*
X0096908Y0185450D03*
X0096983Y0185300D03*
X0096908Y0182150D03*
X0096833Y0182000D03*
X0096758Y0181850D03*
X0096683Y0181700D03*
X0092783Y0176150D03*
X0092783Y0176075D03*
X0093758Y0174575D03*
D51*
X0092521Y0175400D03*
X0092746Y0175925D03*
X0092746Y0176000D03*
X0091321Y0176000D03*
X0091321Y0175925D03*
X0091321Y0174575D03*
X0082621Y0176375D03*
X0081496Y0175700D03*
X0080071Y0175700D03*
X0080071Y0175775D03*
X0080071Y0176075D03*
X0077821Y0182000D03*
X0077746Y0182150D03*
X0077671Y0182300D03*
X0077671Y0182375D03*
X0077596Y0182525D03*
X0077596Y0182600D03*
X0077521Y0182750D03*
X0077521Y0182825D03*
X0077521Y0182900D03*
X0077446Y0183125D03*
X0077446Y0183200D03*
X0077446Y0183275D03*
X0077446Y0183350D03*
X0077446Y0184325D03*
X0077446Y0184400D03*
X0077446Y0184475D03*
X0077521Y0184700D03*
X0077521Y0184775D03*
X0077521Y0184850D03*
X0077521Y0184925D03*
X0077596Y0185000D03*
X0077596Y0185075D03*
X0077596Y0185150D03*
X0077671Y0185225D03*
X0077671Y0185300D03*
X0077746Y0185450D03*
X0081646Y0186650D03*
X0085546Y0185450D03*
X0085621Y0185300D03*
X0085621Y0185225D03*
X0085696Y0185075D03*
X0085696Y0185000D03*
X0085771Y0184850D03*
X0085771Y0184775D03*
X0085771Y0184700D03*
X0085771Y0184625D03*
X0085846Y0184325D03*
X0085846Y0184250D03*
X0085846Y0184175D03*
X0085846Y0184100D03*
X0085846Y0184025D03*
X0085846Y0183950D03*
X0085846Y0183725D03*
X0085846Y0183650D03*
X0085846Y0183575D03*
X0085846Y0183500D03*
X0085846Y0183425D03*
X0085846Y0183350D03*
X0085846Y0183275D03*
X0085771Y0182975D03*
X0085771Y0182900D03*
X0085771Y0182825D03*
X0085696Y0182675D03*
X0085696Y0182600D03*
X0085696Y0182525D03*
X0085621Y0182450D03*
X0085621Y0182375D03*
X0085621Y0182300D03*
X0085546Y0182150D03*
X0085471Y0182000D03*
X0088846Y0182900D03*
X0088846Y0182975D03*
X0088846Y0183050D03*
X0088846Y0183125D03*
X0088921Y0182750D03*
X0088921Y0182675D03*
X0088921Y0182600D03*
X0088996Y0182525D03*
X0088996Y0182450D03*
X0088996Y0182375D03*
X0089071Y0182300D03*
X0089071Y0182225D03*
X0089146Y0182075D03*
X0088771Y0183500D03*
X0088771Y0183575D03*
X0088771Y0183650D03*
X0088771Y0183725D03*
X0088771Y0183800D03*
X0088771Y0183875D03*
X0088771Y0183950D03*
X0088771Y0184025D03*
X0088771Y0184100D03*
X0088771Y0184175D03*
X0088846Y0184550D03*
X0088846Y0184625D03*
X0088846Y0184700D03*
X0088921Y0184850D03*
X0088921Y0184925D03*
X0088921Y0185000D03*
X0088996Y0185150D03*
X0088996Y0185225D03*
X0089071Y0185375D03*
X0091471Y0184025D03*
X0096871Y0185525D03*
X0096946Y0185375D03*
X0097021Y0185225D03*
X0097021Y0185150D03*
X0097021Y0185075D03*
X0097096Y0185000D03*
X0097096Y0184925D03*
X0097096Y0184850D03*
X0097171Y0184625D03*
X0097171Y0184550D03*
X0097171Y0184475D03*
X0097171Y0184400D03*
X0097171Y0183200D03*
X0097171Y0183125D03*
X0097171Y0183050D03*
X0097171Y0182975D03*
X0097096Y0182825D03*
X0097096Y0182750D03*
X0097096Y0182675D03*
X0097096Y0182600D03*
X0097021Y0182525D03*
X0097021Y0182450D03*
X0097021Y0182375D03*
X0096946Y0182300D03*
X0096946Y0182225D03*
X0096871Y0182075D03*
X0096796Y0181925D03*
X0066571Y0183875D03*
X0062971Y0183875D03*
D52*
X0074296Y0176300D03*
X0099571Y0174725D03*
X0099571Y0174650D03*
X0099571Y0174575D03*
D53*
X0064658Y0187475D03*
X0059408Y0174650D03*
D54*
X0072908Y0174650D03*
D55*
X0064658Y0176825D03*
X0086558Y0174875D03*
X0086558Y0174800D03*
X0086558Y0174725D03*
X0086558Y0174650D03*
X0086858Y0175475D03*
D56*
X0059296Y0174725D03*
D57*
X0073021Y0174725D03*
D58*
X0064658Y0176375D03*
X0059183Y0174800D03*
D59*
X0073096Y0174800D03*
D60*
X0074258Y0176225D03*
X0099533Y0174875D03*
X0099533Y0174800D03*
D61*
X0064658Y0187625D03*
X0059108Y0174875D03*
D62*
X0073208Y0174875D03*
D63*
X0064658Y0176300D03*
X0059033Y0174950D03*
D64*
X0073283Y0174950D03*
D65*
X0087346Y0174950D03*
D66*
X0082621Y0176000D03*
X0081346Y0176300D03*
X0079921Y0176225D03*
X0067471Y0182750D03*
X0063871Y0182750D03*
X0056521Y0182750D03*
X0056521Y0182825D03*
X0056521Y0182900D03*
X0056521Y0182975D03*
X0056521Y0183050D03*
X0056521Y0183125D03*
X0056521Y0183200D03*
X0056521Y0183275D03*
X0056521Y0183350D03*
X0056521Y0183425D03*
X0056521Y0183500D03*
X0056521Y0183575D03*
X0056521Y0183650D03*
X0056521Y0183725D03*
X0056521Y0183800D03*
X0056521Y0183875D03*
X0056521Y0183950D03*
X0056521Y0184025D03*
X0056521Y0184100D03*
X0056521Y0184175D03*
X0056521Y0184250D03*
X0056521Y0184325D03*
X0056521Y0184400D03*
X0056521Y0184475D03*
X0056521Y0184550D03*
X0056521Y0184625D03*
X0056521Y0184700D03*
X0056521Y0184775D03*
X0056521Y0184850D03*
X0056521Y0184925D03*
X0056521Y0185000D03*
X0056521Y0185075D03*
X0056521Y0185150D03*
X0056521Y0185225D03*
X0056521Y0185300D03*
X0056521Y0185375D03*
X0056521Y0185450D03*
X0056521Y0185525D03*
X0056521Y0185600D03*
X0056521Y0185675D03*
X0056521Y0185750D03*
X0056521Y0185825D03*
X0056521Y0185900D03*
X0056521Y0185975D03*
X0056521Y0186050D03*
X0056521Y0186125D03*
X0056521Y0186200D03*
X0056521Y0186275D03*
X0056521Y0186350D03*
X0056521Y0186425D03*
X0056521Y0186500D03*
X0056521Y0186575D03*
X0056521Y0186650D03*
X0056521Y0186725D03*
X0056521Y0186800D03*
X0056521Y0186875D03*
X0056521Y0186950D03*
X0056521Y0187025D03*
X0056521Y0187100D03*
X0056521Y0187175D03*
X0056521Y0187250D03*
X0056521Y0187325D03*
X0056521Y0187400D03*
X0056521Y0187475D03*
X0056521Y0187550D03*
X0056521Y0187625D03*
X0056521Y0187700D03*
X0056521Y0187775D03*
X0056521Y0187850D03*
X0056521Y0187925D03*
X0056521Y0188000D03*
X0056521Y0188075D03*
X0056521Y0188150D03*
X0056521Y0188225D03*
X0056521Y0188300D03*
X0056521Y0188375D03*
X0056521Y0188450D03*
X0056521Y0188525D03*
X0056521Y0188600D03*
X0056521Y0188675D03*
X0056521Y0188750D03*
X0056521Y0188825D03*
X0056521Y0188900D03*
X0056521Y0188975D03*
X0056521Y0189050D03*
X0056521Y0189125D03*
X0056596Y0189200D03*
X0056521Y0182675D03*
X0056521Y0182600D03*
X0056521Y0182525D03*
X0056521Y0182450D03*
X0056521Y0182375D03*
X0056521Y0182300D03*
X0056521Y0182225D03*
X0056521Y0182150D03*
X0056521Y0182075D03*
X0056521Y0182000D03*
X0056521Y0181925D03*
X0056521Y0181850D03*
X0056521Y0181775D03*
X0056521Y0181700D03*
X0056521Y0181625D03*
X0056521Y0181550D03*
X0056521Y0181475D03*
X0056521Y0181400D03*
X0056521Y0181325D03*
X0056521Y0181250D03*
X0056521Y0181175D03*
X0056521Y0181100D03*
X0056521Y0181025D03*
X0056521Y0180950D03*
X0056521Y0180875D03*
X0056521Y0180800D03*
X0056521Y0180725D03*
X0056521Y0180650D03*
X0056521Y0180575D03*
X0056521Y0180500D03*
X0056521Y0180425D03*
X0056521Y0180350D03*
X0056521Y0180275D03*
X0056521Y0180200D03*
X0056521Y0180125D03*
X0056521Y0180050D03*
X0056521Y0179975D03*
X0056521Y0179900D03*
X0056521Y0179825D03*
X0056521Y0179750D03*
X0056521Y0179675D03*
X0056521Y0179600D03*
X0056521Y0179525D03*
X0056521Y0179450D03*
X0056521Y0179375D03*
X0056521Y0179300D03*
X0056521Y0179225D03*
X0056521Y0179150D03*
X0056521Y0179075D03*
X0056521Y0179000D03*
X0056521Y0178925D03*
X0056521Y0178850D03*
X0056521Y0178775D03*
X0056521Y0178700D03*
X0056521Y0178625D03*
X0056521Y0178550D03*
X0056521Y0178475D03*
X0056521Y0178400D03*
X0056521Y0178325D03*
X0056521Y0178250D03*
X0056521Y0178175D03*
X0056521Y0178100D03*
X0056521Y0178025D03*
X0092596Y0174950D03*
X0093796Y0175400D03*
X0104071Y0178025D03*
X0104071Y0178100D03*
X0104071Y0178175D03*
X0104071Y0178250D03*
X0104071Y0178325D03*
X0104071Y0178400D03*
X0104071Y0178475D03*
X0104071Y0178550D03*
X0104071Y0178625D03*
X0104071Y0178700D03*
X0104071Y0178775D03*
X0104071Y0178850D03*
X0104071Y0178925D03*
X0104071Y0179000D03*
X0104071Y0179075D03*
X0104071Y0179150D03*
X0104071Y0179225D03*
X0104071Y0179300D03*
X0104071Y0179375D03*
X0104071Y0179450D03*
X0104071Y0179525D03*
X0104071Y0179600D03*
X0104071Y0179675D03*
X0104071Y0179750D03*
X0104071Y0179825D03*
X0104071Y0179900D03*
X0104071Y0179975D03*
X0104071Y0180050D03*
X0104071Y0180125D03*
X0104071Y0180200D03*
X0104071Y0180275D03*
X0104071Y0180350D03*
X0104071Y0180425D03*
X0104071Y0180500D03*
X0104071Y0180575D03*
X0104071Y0180650D03*
X0104071Y0180725D03*
X0104071Y0180800D03*
X0104071Y0180875D03*
X0104071Y0180950D03*
X0104071Y0181025D03*
X0104071Y0181100D03*
X0104071Y0181175D03*
X0104071Y0181250D03*
X0104071Y0181325D03*
X0104071Y0181400D03*
X0104071Y0181475D03*
X0104071Y0181550D03*
X0104071Y0181625D03*
X0104071Y0181700D03*
X0104071Y0181775D03*
X0104071Y0181850D03*
X0104071Y0181925D03*
X0104071Y0182000D03*
X0104071Y0182075D03*
X0104071Y0182150D03*
X0104071Y0182225D03*
X0104071Y0182300D03*
X0104071Y0182375D03*
X0104071Y0182450D03*
X0104071Y0182525D03*
X0104071Y0182600D03*
X0104071Y0182675D03*
X0104071Y0182750D03*
X0104071Y0182825D03*
X0104071Y0182900D03*
X0104071Y0182975D03*
X0104071Y0183050D03*
X0104071Y0183125D03*
X0104071Y0183200D03*
X0104071Y0183275D03*
X0104071Y0183350D03*
X0104071Y0183425D03*
X0104071Y0183500D03*
X0104071Y0183575D03*
X0104071Y0183650D03*
X0104071Y0183725D03*
X0104071Y0183800D03*
X0104071Y0183875D03*
X0104071Y0183950D03*
X0104071Y0184025D03*
X0104071Y0184100D03*
X0104071Y0184175D03*
X0104071Y0184250D03*
X0104071Y0184325D03*
X0104071Y0184400D03*
X0104071Y0184475D03*
X0104071Y0184550D03*
X0104071Y0184625D03*
X0104071Y0184700D03*
X0104071Y0184775D03*
X0104071Y0184850D03*
X0104071Y0184925D03*
X0104071Y0185000D03*
X0104071Y0185075D03*
X0104071Y0185150D03*
X0104071Y0185225D03*
X0104071Y0185300D03*
X0104071Y0185375D03*
X0104071Y0185450D03*
X0104071Y0185525D03*
X0104071Y0185600D03*
X0104071Y0185675D03*
X0104071Y0185750D03*
X0104071Y0185825D03*
X0104071Y0185900D03*
X0104071Y0185975D03*
X0104071Y0186050D03*
X0104071Y0186125D03*
X0104071Y0186200D03*
X0104071Y0186275D03*
X0104071Y0186350D03*
X0104071Y0186425D03*
X0104071Y0186500D03*
X0104071Y0186575D03*
X0104071Y0186650D03*
X0104071Y0186725D03*
X0104071Y0186800D03*
X0104071Y0186875D03*
X0104071Y0186950D03*
X0104071Y0187025D03*
X0104071Y0187100D03*
X0104071Y0187175D03*
X0104071Y0187250D03*
X0104071Y0187325D03*
X0104071Y0187400D03*
X0104071Y0187475D03*
X0104071Y0187550D03*
X0104071Y0187625D03*
X0104071Y0187700D03*
X0104071Y0187775D03*
X0104071Y0187850D03*
X0104071Y0187925D03*
X0104071Y0188000D03*
X0104071Y0188075D03*
X0104071Y0188150D03*
X0104071Y0188225D03*
X0104071Y0188300D03*
X0104071Y0188375D03*
X0104071Y0188450D03*
X0104071Y0188525D03*
X0104071Y0188600D03*
X0104071Y0188675D03*
X0104071Y0188750D03*
X0104071Y0188825D03*
X0104071Y0188900D03*
X0104071Y0188975D03*
X0104071Y0189050D03*
X0104071Y0189125D03*
X0103996Y0189200D03*
D67*
X0099496Y0175100D03*
X0099496Y0175025D03*
X0099496Y0174950D03*
X0074221Y0176150D03*
D68*
X0081646Y0179975D03*
X0081646Y0187700D03*
X0058921Y0175025D03*
D69*
X0073358Y0175025D03*
D70*
X0087271Y0175025D03*
D71*
X0081646Y0179900D03*
X0058846Y0175100D03*
D72*
X0073433Y0175100D03*
D73*
X0087196Y0175100D03*
D74*
X0093008Y0179900D03*
X0093008Y0187775D03*
X0081608Y0187775D03*
X0064658Y0187775D03*
X0058808Y0175175D03*
D75*
X0073508Y0175175D03*
D76*
X0087046Y0175175D03*
D77*
X0091246Y0176225D03*
X0092596Y0175175D03*
X0093796Y0175175D03*
X0082621Y0176150D03*
X0081421Y0176150D03*
X0081421Y0176075D03*
X0081196Y0176525D03*
X0081646Y0185600D03*
X0103921Y0189350D03*
X0056671Y0189350D03*
D78*
X0099458Y0175325D03*
X0099458Y0175250D03*
X0099458Y0175175D03*
D79*
X0093008Y0179825D03*
X0064658Y0176150D03*
X0058733Y0175250D03*
D80*
X0073583Y0175250D03*
D81*
X0086971Y0175250D03*
D82*
X0093008Y0187850D03*
X0064658Y0187850D03*
X0058658Y0175325D03*
D83*
X0073658Y0175325D03*
D84*
X0058583Y0175400D03*
X0093008Y0179750D03*
X0093008Y0187925D03*
D85*
X0073696Y0175400D03*
D86*
X0074146Y0176075D03*
X0099421Y0175475D03*
X0099421Y0175400D03*
D87*
X0081646Y0187925D03*
X0058546Y0175475D03*
D88*
X0073771Y0175475D03*
D89*
X0081646Y0179675D03*
X0058471Y0175550D03*
D90*
X0073808Y0175550D03*
D91*
X0086821Y0175550D03*
D92*
X0099383Y0175550D03*
X0099383Y0175625D03*
X0099383Y0175700D03*
X0074108Y0176000D03*
D93*
X0064658Y0187925D03*
X0058433Y0175625D03*
X0093008Y0179675D03*
X0093008Y0188000D03*
D94*
X0073883Y0175625D03*
D95*
X0086821Y0175625D03*
X0086821Y0175700D03*
D96*
X0092296Y0175625D03*
X0090796Y0180275D03*
X0092971Y0181400D03*
X0095221Y0180275D03*
X0091471Y0184400D03*
X0083821Y0187400D03*
X0079471Y0187400D03*
X0068596Y0186050D03*
X0060796Y0186125D03*
X0060721Y0186050D03*
X0060646Y0185975D03*
X0060571Y0185900D03*
X0060646Y0177950D03*
X0068596Y0177875D03*
X0068671Y0177950D03*
X0068746Y0178025D03*
X0068821Y0178100D03*
D97*
X0058358Y0175700D03*
D98*
X0073921Y0175700D03*
X0099196Y0176600D03*
X0099196Y0176675D03*
D99*
X0093758Y0175925D03*
X0082658Y0175700D03*
D100*
X0083521Y0180125D03*
X0079771Y0180125D03*
X0067996Y0177425D03*
X0066571Y0180275D03*
X0061321Y0177425D03*
X0061246Y0186500D03*
X0061321Y0186575D03*
X0067996Y0186575D03*
X0091171Y0187550D03*
X0094846Y0187550D03*
X0092971Y0181475D03*
X0092146Y0175700D03*
D101*
X0093758Y0175700D03*
X0091508Y0183650D03*
X0082658Y0175850D03*
X0067433Y0182675D03*
X0063833Y0182675D03*
D102*
X0058321Y0175775D03*
X0081646Y0179600D03*
X0092971Y0179600D03*
D103*
X0092033Y0175850D03*
X0093008Y0185975D03*
X0067433Y0186875D03*
X0061883Y0186875D03*
X0062933Y0180425D03*
X0061808Y0177125D03*
X0061958Y0177050D03*
X0064658Y0175775D03*
X0057458Y0177650D03*
X0057458Y0177725D03*
D104*
X0073996Y0175775D03*
X0099271Y0176150D03*
X0099271Y0176225D03*
X0099271Y0176300D03*
D105*
X0093796Y0175850D03*
X0093796Y0175775D03*
X0082621Y0175775D03*
X0067471Y0181325D03*
X0063871Y0181325D03*
D106*
X0086821Y0175775D03*
D107*
X0092071Y0175775D03*
X0067771Y0177275D03*
X0061546Y0177275D03*
X0062971Y0183650D03*
X0066571Y0183650D03*
X0067771Y0186725D03*
D108*
X0074071Y0175925D03*
X0099346Y0175925D03*
X0099346Y0175850D03*
X0099346Y0175775D03*
D109*
X0093008Y0188075D03*
X0064658Y0176000D03*
X0058283Y0175850D03*
D110*
X0057833Y0176675D03*
X0062933Y0180800D03*
X0062933Y0183125D03*
X0066533Y0180800D03*
X0064658Y0175850D03*
X0093008Y0181850D03*
D111*
X0099308Y0176075D03*
X0099308Y0176000D03*
X0074033Y0175850D03*
D112*
X0064658Y0176675D03*
X0086858Y0175925D03*
X0086858Y0175850D03*
D113*
X0081646Y0188075D03*
X0058246Y0175925D03*
D114*
X0058096Y0176150D03*
X0064621Y0175925D03*
X0081646Y0188150D03*
X0093046Y0185375D03*
X0093046Y0182150D03*
D115*
X0093046Y0182225D03*
X0081646Y0179525D03*
X0058171Y0176000D03*
D116*
X0058133Y0176075D03*
X0093008Y0179525D03*
X0093083Y0185300D03*
X0093008Y0188150D03*
D117*
X0064658Y0176075D03*
D118*
X0064658Y0187325D03*
X0086933Y0176150D03*
X0087008Y0176225D03*
X0087008Y0176300D03*
X0087083Y0176375D03*
D119*
X0058058Y0176225D03*
D120*
X0064658Y0176225D03*
X0093008Y0187700D03*
D121*
X0093046Y0185450D03*
X0093046Y0182075D03*
X0058021Y0176300D03*
D122*
X0057983Y0176375D03*
X0093008Y0179450D03*
X0093008Y0182000D03*
X0093083Y0185525D03*
D123*
X0099233Y0176525D03*
X0099233Y0176450D03*
X0099233Y0176375D03*
D124*
X0093046Y0185600D03*
X0081646Y0179450D03*
X0057946Y0176450D03*
D125*
X0064658Y0176450D03*
D126*
X0057908Y0176525D03*
X0064658Y0188075D03*
X0066758Y0187100D03*
X0081608Y0188225D03*
X0093008Y0188225D03*
X0093008Y0181925D03*
D127*
X0064696Y0176525D03*
D128*
X0057871Y0176600D03*
X0066571Y0183125D03*
X0062596Y0187100D03*
X0093046Y0185675D03*
D129*
X0064658Y0187400D03*
X0064658Y0176600D03*
D130*
X0074446Y0176600D03*
D131*
X0064658Y0176750D03*
X0064658Y0187250D03*
X0087383Y0176675D03*
D132*
X0093046Y0185750D03*
X0066571Y0183200D03*
X0062971Y0183200D03*
X0057796Y0176750D03*
D133*
X0087121Y0176750D03*
D134*
X0081608Y0179375D03*
X0093008Y0179375D03*
X0093008Y0181775D03*
X0066533Y0180725D03*
X0062933Y0180725D03*
X0057758Y0176900D03*
X0057758Y0176825D03*
D135*
X0087158Y0176825D03*
D136*
X0066946Y0176900D03*
X0062371Y0176900D03*
X0057721Y0176975D03*
X0066571Y0180650D03*
X0066571Y0183275D03*
X0062971Y0183275D03*
D137*
X0087196Y0176900D03*
D138*
X0093046Y0185900D03*
X0066571Y0180500D03*
X0067171Y0176975D03*
X0062146Y0176975D03*
X0057571Y0177350D03*
D139*
X0087233Y0176975D03*
D140*
X0093008Y0181700D03*
X0093008Y0185825D03*
X0093008Y0188300D03*
X0081608Y0188300D03*
X0062933Y0183350D03*
X0062933Y0180650D03*
X0062933Y0180575D03*
X0057683Y0177050D03*
X0062258Y0187025D03*
D141*
X0062033Y0186950D03*
X0067283Y0186950D03*
X0057533Y0177500D03*
X0057533Y0177425D03*
X0067358Y0177050D03*
X0081608Y0183125D03*
X0081608Y0183200D03*
X0081608Y0183275D03*
X0081608Y0183350D03*
X0081608Y0183425D03*
X0081608Y0183500D03*
X0081608Y0183575D03*
X0081608Y0183650D03*
X0081608Y0183725D03*
X0081608Y0183800D03*
X0081608Y0183875D03*
X0081608Y0183950D03*
X0081608Y0184025D03*
X0081608Y0184100D03*
X0081608Y0184175D03*
X0081608Y0184250D03*
X0081608Y0184325D03*
X0081608Y0184400D03*
X0081608Y0184475D03*
X0081608Y0184550D03*
X0081608Y0184625D03*
X0081608Y0184700D03*
X0081608Y0184775D03*
X0081608Y0184850D03*
X0081608Y0184925D03*
X0081608Y0185000D03*
X0081608Y0185075D03*
X0091508Y0187625D03*
X0094508Y0187625D03*
X0093008Y0181625D03*
X0093008Y0179300D03*
D142*
X0087271Y0177125D03*
X0087271Y0177050D03*
D143*
X0066571Y0180575D03*
X0066571Y0183350D03*
X0067096Y0187025D03*
X0057646Y0177125D03*
D144*
X0057421Y0177800D03*
X0057421Y0177875D03*
X0062971Y0183575D03*
X0066571Y0183575D03*
X0067621Y0186800D03*
X0079996Y0180050D03*
X0083296Y0180050D03*
X0081646Y0185225D03*
X0081646Y0188375D03*
X0092971Y0181550D03*
X0067546Y0177125D03*
D145*
X0062933Y0180500D03*
X0062933Y0183425D03*
X0066608Y0183425D03*
X0064658Y0188150D03*
X0057608Y0177275D03*
X0057608Y0177200D03*
D146*
X0057383Y0177950D03*
X0061658Y0177200D03*
X0062933Y0180350D03*
X0066533Y0180350D03*
X0067658Y0177200D03*
X0061733Y0186800D03*
X0061583Y0186725D03*
X0091358Y0180050D03*
X0094658Y0180050D03*
X0093008Y0188375D03*
D147*
X0087308Y0177200D03*
D148*
X0087346Y0177275D03*
D149*
X0093008Y0186050D03*
X0083483Y0187550D03*
X0079808Y0187550D03*
X0067883Y0186650D03*
X0061433Y0186650D03*
X0062933Y0180275D03*
X0061433Y0177350D03*
X0067883Y0177350D03*
D150*
X0087383Y0177350D03*
X0087383Y0177425D03*
D151*
X0091133Y0180125D03*
X0094883Y0180125D03*
X0068108Y0177500D03*
X0061208Y0177500D03*
X0061133Y0186425D03*
X0068108Y0186500D03*
X0068183Y0186425D03*
D152*
X0087421Y0177500D03*
D153*
X0081646Y0179300D03*
X0081646Y0185150D03*
X0083146Y0187625D03*
X0080146Y0187625D03*
X0066571Y0183500D03*
X0062971Y0183500D03*
X0066571Y0180425D03*
X0057496Y0177575D03*
D154*
X0061021Y0177650D03*
X0061096Y0177575D03*
X0062971Y0183725D03*
X0060946Y0186275D03*
X0061021Y0186350D03*
X0066571Y0183725D03*
X0068371Y0186275D03*
X0068296Y0186350D03*
X0068296Y0177650D03*
X0068221Y0177575D03*
X0081646Y0179225D03*
X0090946Y0180200D03*
X0092971Y0179225D03*
X0095071Y0180200D03*
X0083671Y0187475D03*
X0079621Y0187475D03*
D155*
X0087458Y0177650D03*
X0087458Y0177575D03*
D156*
X0087496Y0177725D03*
D157*
X0087533Y0177800D03*
X0087533Y0177875D03*
D158*
X0087571Y0177950D03*
D159*
X0083858Y0180275D03*
X0079433Y0180275D03*
X0079358Y0187325D03*
X0083933Y0187325D03*
X0090683Y0187325D03*
X0095333Y0187325D03*
X0095333Y0180350D03*
X0068933Y0178250D03*
X0068858Y0178175D03*
X0062108Y0180875D03*
X0060383Y0178250D03*
X0060458Y0178175D03*
X0060533Y0178100D03*
X0060608Y0178025D03*
X0060458Y0185825D03*
X0068708Y0185975D03*
X0068783Y0185900D03*
X0068858Y0185825D03*
X0068933Y0185750D03*
D160*
X0081646Y0179750D03*
D161*
X0081646Y0179825D03*
X0081646Y0187850D03*
D162*
X0093008Y0179975D03*
X0064658Y0187700D03*
D163*
X0064658Y0187550D03*
D164*
X0064658Y0188000D03*
D165*
X0081646Y0188000D03*
D166*
X0080296Y0189425D03*
D167*
X0080296Y0189500D03*
D168*
X0080296Y0189575D03*
D169*
X0080296Y0189650D03*
D170*
X0080296Y0189725D03*
D171*
X0080296Y0189800D03*
D172*
X0106958Y0182853D02*
X0109427Y0182853D01*
X0110641Y0182853D02*
X0110641Y0179150D01*
X0110641Y0181002D02*
X0111259Y0181619D01*
X0112493Y0181619D01*
X0113110Y0181002D01*
X0113110Y0179150D01*
X0114325Y0179150D02*
X0115559Y0179150D01*
X0114942Y0179150D02*
X0114942Y0181619D01*
X0114325Y0181619D01*
X0114942Y0182853D02*
X0114942Y0183470D01*
X0117397Y0181619D02*
X0119249Y0181619D01*
X0118632Y0180384D02*
X0117397Y0180384D01*
X0116780Y0181002D01*
X0117397Y0181619D01*
X0118632Y0180384D02*
X0119249Y0179767D01*
X0118632Y0179150D01*
X0116780Y0179150D01*
X0119239Y0177470D02*
X0119239Y0176853D01*
X0119239Y0175619D02*
X0119239Y0173150D01*
X0118622Y0173150D02*
X0119856Y0173150D01*
X0121077Y0173150D02*
X0122929Y0173150D01*
X0123546Y0173767D01*
X0123546Y0175002D01*
X0122929Y0175619D01*
X0121077Y0175619D01*
X0121077Y0176853D02*
X0121077Y0173150D01*
X0119239Y0175619D02*
X0118622Y0175619D01*
X0117404Y0175619D02*
X0116787Y0175619D01*
X0115552Y0174384D01*
X0115552Y0173150D02*
X0115552Y0175619D01*
X0114331Y0175619D02*
X0113097Y0175619D01*
X0113714Y0176236D02*
X0113714Y0173767D01*
X0114331Y0173150D01*
X0111876Y0173150D02*
X0111259Y0173767D01*
X0111259Y0176236D01*
X0111876Y0175619D02*
X0110641Y0175619D01*
X0109427Y0175619D02*
X0109427Y0173150D01*
X0109427Y0175002D02*
X0106958Y0175002D01*
X0106958Y0175619D02*
X0106958Y0173150D01*
X0106958Y0175619D02*
X0108193Y0176853D01*
X0109427Y0175619D01*
X0108193Y0179150D02*
X0108193Y0182853D01*
X0124146Y0181619D02*
X0124146Y0179767D01*
X0124764Y0179150D01*
X0125381Y0179767D01*
X0125998Y0179150D01*
X0126615Y0179767D01*
X0126615Y0181619D01*
X0127829Y0181002D02*
X0128447Y0181619D01*
X0129681Y0181619D01*
X0130298Y0181002D01*
X0130298Y0179767D01*
X0129681Y0179150D01*
X0128447Y0179150D01*
X0127829Y0179767D01*
X0127829Y0181002D01*
X0131513Y0181619D02*
X0131513Y0179150D01*
X0131513Y0180384D02*
X0132747Y0181619D01*
X0133364Y0181619D01*
X0134582Y0182853D02*
X0134582Y0179150D01*
X0134582Y0180384D02*
X0136433Y0181619D01*
X0134582Y0180384D02*
X0136433Y0179150D01*
X0137037Y0175619D02*
X0138889Y0175619D01*
X0139506Y0175002D01*
X0139506Y0173150D01*
X0140720Y0175002D02*
X0143189Y0175002D01*
X0144404Y0175619D02*
X0145021Y0175002D01*
X0146255Y0175002D01*
X0146872Y0174384D01*
X0146872Y0173767D01*
X0146255Y0173150D01*
X0145021Y0173150D01*
X0144404Y0173767D01*
X0144404Y0175619D02*
X0144404Y0176236D01*
X0145021Y0176853D01*
X0146255Y0176853D01*
X0146872Y0176236D01*
X0148087Y0176853D02*
X0148087Y0173150D01*
X0148087Y0175002D02*
X0148704Y0175619D01*
X0149938Y0175619D01*
X0150556Y0175002D01*
X0150556Y0173150D01*
X0151770Y0173767D02*
X0152387Y0174384D01*
X0154239Y0174384D01*
X0154239Y0175002D02*
X0154239Y0173150D01*
X0152387Y0173150D01*
X0151770Y0173767D01*
X0152387Y0175619D02*
X0153621Y0175619D01*
X0154239Y0175002D01*
X0155453Y0175619D02*
X0155453Y0173150D01*
X0155453Y0174384D02*
X0156687Y0175619D01*
X0157305Y0175619D01*
X0158522Y0175002D02*
X0159140Y0175619D01*
X0160374Y0175619D01*
X0160991Y0175002D01*
X0160991Y0174384D01*
X0158522Y0174384D01*
X0158522Y0173767D02*
X0158522Y0175002D01*
X0158522Y0173767D02*
X0159140Y0173150D01*
X0160374Y0173150D01*
X0162205Y0173150D02*
X0162205Y0175619D01*
X0163440Y0176853D01*
X0164674Y0175619D01*
X0164674Y0173150D01*
X0165889Y0173150D02*
X0167123Y0173150D01*
X0166506Y0173150D02*
X0166506Y0176853D01*
X0165889Y0176853D01*
X0164674Y0175002D02*
X0162205Y0175002D01*
X0161602Y0179150D02*
X0160367Y0179150D01*
X0159750Y0179767D01*
X0159750Y0181002D01*
X0160367Y0181619D01*
X0161602Y0181619D01*
X0162219Y0181002D01*
X0162219Y0180384D01*
X0159750Y0180384D01*
X0158536Y0179150D02*
X0156684Y0179150D01*
X0156067Y0179767D01*
X0156067Y0181002D01*
X0156684Y0181619D01*
X0158536Y0181619D01*
X0154229Y0181619D02*
X0154229Y0179150D01*
X0154846Y0179150D02*
X0153611Y0179150D01*
X0152390Y0179150D02*
X0151156Y0179150D01*
X0151773Y0179150D02*
X0151773Y0182853D01*
X0151156Y0182853D01*
X0153611Y0181619D02*
X0154229Y0181619D01*
X0154229Y0182853D02*
X0154229Y0183470D01*
X0146259Y0181619D02*
X0144407Y0181619D01*
X0143790Y0181002D01*
X0144407Y0180384D01*
X0145641Y0180384D01*
X0146259Y0179767D01*
X0145641Y0179150D01*
X0143790Y0179150D01*
X0142569Y0179150D02*
X0141334Y0179150D01*
X0141952Y0179150D02*
X0141952Y0181619D01*
X0141334Y0181619D01*
X0141952Y0182853D02*
X0141952Y0183470D01*
X0137037Y0175619D02*
X0137037Y0173150D01*
X0135823Y0173767D02*
X0135206Y0173150D01*
X0133971Y0173150D01*
X0133354Y0173767D01*
X0133354Y0175002D01*
X0133971Y0175619D01*
X0135206Y0175619D01*
X0135823Y0175002D01*
X0135823Y0173767D01*
X0132133Y0173150D02*
X0130899Y0173150D01*
X0131516Y0173150D02*
X0131516Y0175619D01*
X0130899Y0175619D01*
X0129678Y0175619D02*
X0128443Y0175619D01*
X0129061Y0176236D02*
X0129061Y0173767D01*
X0129678Y0173150D01*
X0127229Y0173150D02*
X0127229Y0175619D01*
X0124760Y0175619D02*
X0124760Y0173767D01*
X0125377Y0173150D01*
X0127229Y0173150D01*
X0131516Y0176853D02*
X0131516Y0177470D01*
X0163433Y0179150D02*
X0163433Y0181619D01*
X0165285Y0181619D01*
X0165902Y0181002D01*
X0165902Y0179150D01*
X0167116Y0179150D02*
X0168968Y0179150D01*
X0169585Y0179767D01*
X0168968Y0180384D01*
X0167734Y0180384D01*
X0167116Y0181002D01*
X0167734Y0181619D01*
X0169585Y0181619D01*
X0170799Y0181002D02*
X0171417Y0181619D01*
X0172651Y0181619D01*
X0173268Y0181002D01*
X0173268Y0180384D01*
X0170799Y0180384D01*
X0170799Y0179767D02*
X0170799Y0181002D01*
X0170799Y0179767D02*
X0171417Y0179150D01*
X0172651Y0179150D01*
X0174483Y0179767D02*
X0174483Y0181002D01*
X0175100Y0181619D01*
X0176951Y0181619D01*
X0176951Y0182853D02*
X0176951Y0179150D01*
X0175100Y0179150D01*
X0174483Y0179767D01*
X0174486Y0175619D02*
X0175720Y0175619D01*
X0176338Y0175002D01*
X0176338Y0174384D01*
X0173869Y0174384D01*
X0173869Y0173767D02*
X0173869Y0175002D01*
X0174486Y0175619D01*
X0172651Y0175619D02*
X0170799Y0174384D01*
X0172651Y0173150D01*
X0173869Y0173767D02*
X0174486Y0173150D01*
X0175720Y0173150D01*
X0170799Y0173150D02*
X0170799Y0176853D01*
X0168961Y0176853D02*
X0168961Y0177470D01*
X0168961Y0175619D02*
X0168961Y0173150D01*
X0168344Y0173150D02*
X0169578Y0173150D01*
X0168961Y0175619D02*
X0168344Y0175619D01*
X0181235Y0175002D02*
X0183704Y0175002D01*
X0184918Y0173767D02*
X0185535Y0173767D01*
X0185535Y0173150D01*
X0184918Y0173150D01*
X0184918Y0173767D01*
X0186760Y0173767D02*
X0187377Y0173150D01*
X0188611Y0173150D01*
X0189229Y0173767D01*
X0189229Y0176236D01*
X0186760Y0173767D01*
X0186760Y0176236D01*
X0187377Y0176853D01*
X0188611Y0176853D01*
X0189229Y0176236D01*
X0189832Y0179150D02*
X0189215Y0179767D01*
X0189215Y0181002D01*
X0189832Y0181619D01*
X0191684Y0181619D01*
X0191684Y0182853D02*
X0191684Y0179150D01*
X0189832Y0179150D01*
X0188001Y0179150D02*
X0188001Y0181002D01*
X0187384Y0181619D01*
X0185532Y0181619D01*
X0185532Y0179150D01*
X0184318Y0179150D02*
X0184318Y0181619D01*
X0181849Y0181619D02*
X0181849Y0179767D01*
X0182466Y0179150D01*
X0184318Y0179150D01*
X0183087Y0176853D02*
X0181235Y0175002D01*
X0183087Y0176853D02*
X0183087Y0173150D01*
X0192898Y0179767D02*
X0192898Y0181002D01*
X0193516Y0181619D01*
X0194750Y0181619D01*
X0195367Y0181002D01*
X0195367Y0180384D01*
X0192898Y0180384D01*
X0192898Y0179767D02*
X0193516Y0179150D01*
X0194750Y0179150D01*
X0196581Y0179150D02*
X0196581Y0181619D01*
X0196581Y0180384D02*
X0197816Y0181619D01*
X0198433Y0181619D01*
X0203334Y0179767D02*
X0203951Y0179150D01*
X0205803Y0179150D01*
X0205803Y0181002D01*
X0205185Y0181619D01*
X0203951Y0181619D01*
X0203951Y0180384D02*
X0205803Y0180384D01*
X0203951Y0180384D02*
X0203334Y0179767D01*
X0203337Y0175619D02*
X0204572Y0175619D01*
X0205189Y0175002D01*
X0205189Y0174384D01*
X0202720Y0174384D01*
X0202720Y0173767D02*
X0202720Y0175002D01*
X0203337Y0175619D01*
X0201499Y0175619D02*
X0200265Y0175619D01*
X0200882Y0176236D02*
X0200882Y0173767D01*
X0201499Y0173150D01*
X0202720Y0173767D02*
X0203337Y0173150D01*
X0204572Y0173150D01*
X0206403Y0173150D02*
X0206403Y0175619D01*
X0206403Y0174384D02*
X0207638Y0175619D01*
X0208255Y0175619D01*
X0209472Y0175619D02*
X0211324Y0175619D01*
X0211941Y0175002D01*
X0211941Y0173150D01*
X0213156Y0173767D02*
X0213773Y0174384D01*
X0215624Y0174384D01*
X0215624Y0175002D02*
X0215624Y0173150D01*
X0213773Y0173150D01*
X0213156Y0173767D01*
X0213773Y0175619D02*
X0215007Y0175619D01*
X0215624Y0175002D01*
X0216839Y0175619D02*
X0218073Y0175619D01*
X0217456Y0176236D02*
X0217456Y0173767D01*
X0218073Y0173150D01*
X0219294Y0173150D02*
X0220529Y0173150D01*
X0219911Y0173150D02*
X0219911Y0175619D01*
X0219294Y0175619D01*
X0219911Y0176853D02*
X0219911Y0177470D01*
X0219304Y0179150D02*
X0218070Y0179150D01*
X0217453Y0179767D01*
X0217453Y0181002D01*
X0218070Y0181619D01*
X0219304Y0181619D01*
X0219921Y0181002D01*
X0219921Y0180384D01*
X0217453Y0180384D01*
X0216235Y0181619D02*
X0215618Y0181619D01*
X0214383Y0180384D01*
X0214383Y0179150D02*
X0214383Y0181619D01*
X0213169Y0182236D02*
X0212552Y0182853D01*
X0211317Y0182853D01*
X0210700Y0182236D01*
X0210700Y0179767D01*
X0211317Y0179150D01*
X0212552Y0179150D01*
X0213169Y0179767D01*
X0209472Y0175619D02*
X0209472Y0173150D01*
X0199050Y0173150D02*
X0199050Y0175002D01*
X0198433Y0175619D01*
X0196581Y0175619D01*
X0196581Y0173150D01*
X0195360Y0173150D02*
X0194126Y0173150D01*
X0194743Y0173150D02*
X0194743Y0176853D01*
X0194126Y0176853D02*
X0195360Y0176853D01*
X0221136Y0179767D02*
X0221753Y0179150D01*
X0223605Y0179150D01*
X0223605Y0181002D01*
X0222987Y0181619D01*
X0221753Y0181619D01*
X0221753Y0180384D02*
X0223605Y0180384D01*
X0224819Y0181619D02*
X0226053Y0181619D01*
X0225436Y0182236D02*
X0225436Y0179767D01*
X0226053Y0179150D01*
X0227274Y0179150D02*
X0228509Y0179150D01*
X0227892Y0179150D02*
X0227892Y0181619D01*
X0227274Y0181619D01*
X0227892Y0182853D02*
X0227892Y0183470D01*
X0229730Y0181619D02*
X0230964Y0179150D01*
X0232199Y0181619D01*
X0233413Y0181002D02*
X0234030Y0181619D01*
X0235264Y0181619D01*
X0235882Y0181002D01*
X0235882Y0180384D01*
X0233413Y0180384D01*
X0233413Y0179767D02*
X0233413Y0181002D01*
X0233413Y0179767D02*
X0234030Y0179150D01*
X0235264Y0179150D01*
X0233416Y0176853D02*
X0233416Y0173150D01*
X0232799Y0173150D02*
X0234033Y0173150D01*
X0231585Y0173150D02*
X0231585Y0175002D01*
X0230967Y0175619D01*
X0229733Y0175619D01*
X0229733Y0174384D02*
X0231585Y0174384D01*
X0231585Y0173150D02*
X0229733Y0173150D01*
X0229116Y0173767D01*
X0229733Y0174384D01*
X0227902Y0175002D02*
X0227902Y0173150D01*
X0227902Y0175002D02*
X0227284Y0175619D01*
X0225433Y0175619D01*
X0225433Y0173150D01*
X0224218Y0173767D02*
X0223601Y0173150D01*
X0222367Y0173150D01*
X0221750Y0173767D01*
X0221750Y0175002D01*
X0222367Y0175619D01*
X0223601Y0175619D01*
X0224218Y0175002D01*
X0224218Y0173767D01*
X0221136Y0179767D02*
X0221753Y0180384D01*
X0232799Y0176853D02*
X0233416Y0176853D01*
X0238938Y0176853D02*
X0238938Y0173150D01*
X0241406Y0173150D01*
X0242621Y0173150D02*
X0243855Y0173150D01*
X0243238Y0173150D02*
X0243238Y0175619D01*
X0242621Y0175619D01*
X0243238Y0176853D02*
X0243238Y0177470D01*
X0242631Y0179150D02*
X0241396Y0179150D01*
X0240779Y0179767D01*
X0240779Y0182236D01*
X0241396Y0182853D01*
X0242631Y0182853D01*
X0243248Y0182236D01*
X0244462Y0181002D02*
X0245080Y0181619D01*
X0246314Y0181619D01*
X0246931Y0181002D01*
X0246931Y0179767D01*
X0246314Y0179150D01*
X0245080Y0179150D01*
X0244462Y0179767D01*
X0244462Y0181002D01*
X0243248Y0179767D02*
X0242631Y0179150D01*
X0245693Y0175619D02*
X0245076Y0175002D01*
X0245076Y0173767D01*
X0245693Y0173150D01*
X0247545Y0173150D01*
X0248759Y0173767D02*
X0248759Y0175002D01*
X0249377Y0175619D01*
X0250611Y0175619D01*
X0251228Y0175002D01*
X0251228Y0174384D01*
X0248759Y0174384D01*
X0248759Y0173767D02*
X0249377Y0173150D01*
X0250611Y0173150D01*
X0252442Y0173150D02*
X0252442Y0175619D01*
X0254294Y0175619D01*
X0254911Y0175002D01*
X0254911Y0173150D01*
X0256126Y0173150D02*
X0257977Y0173150D01*
X0258594Y0173767D01*
X0257977Y0174384D01*
X0256743Y0174384D01*
X0256126Y0175002D01*
X0256743Y0175619D01*
X0258594Y0175619D01*
X0259809Y0175002D02*
X0260426Y0175619D01*
X0261660Y0175619D01*
X0262278Y0175002D01*
X0262278Y0174384D01*
X0259809Y0174384D01*
X0259809Y0173767D02*
X0259809Y0175002D01*
X0259809Y0173767D02*
X0260426Y0173150D01*
X0261660Y0173150D01*
X0261664Y0179150D02*
X0261664Y0181002D01*
X0261046Y0181619D01*
X0259195Y0181619D01*
X0259195Y0179150D01*
X0257981Y0179767D02*
X0257981Y0181002D01*
X0257363Y0181619D01*
X0256129Y0181619D01*
X0255512Y0181002D01*
X0255512Y0179767D01*
X0256129Y0179150D01*
X0257363Y0179150D01*
X0257981Y0179767D01*
X0254297Y0179150D02*
X0254297Y0181002D01*
X0253680Y0181619D01*
X0253063Y0181002D01*
X0253063Y0179150D01*
X0251829Y0179150D02*
X0251829Y0181619D01*
X0252446Y0181619D01*
X0253063Y0181002D01*
X0250614Y0181002D02*
X0250614Y0179150D01*
X0249380Y0179150D02*
X0249380Y0181002D01*
X0249997Y0181619D01*
X0250614Y0181002D01*
X0249380Y0181002D02*
X0248763Y0181619D01*
X0248145Y0181619D01*
X0248145Y0179150D01*
X0247545Y0175619D02*
X0245693Y0175619D01*
X0262878Y0179150D02*
X0264730Y0179150D01*
X0265347Y0179767D01*
X0264730Y0180384D01*
X0263495Y0180384D01*
X0262878Y0181002D01*
X0263495Y0181619D01*
X0265347Y0181619D01*
M02*
