G75*
%MOIN*%
%OFA0B0*%
%FSLAX25Y25*%
%IPPOS*%
%LPD*%
%AMOC8*
5,1,8,0,0,1.08239X$1,22.5*
%
%ADD10C,0.00400*%
%ADD11C,0.01000*%
%ADD12C,0.00800*%
%ADD13R,0.00025X0.00100*%
%ADD14R,0.00025X0.00175*%
%ADD15R,0.00025X0.00250*%
%ADD16R,0.00025X0.00300*%
%ADD17R,0.00025X0.00375*%
%ADD18R,0.00025X0.00425*%
%ADD19R,0.00025X0.00500*%
%ADD20R,0.00025X0.00550*%
%ADD21R,0.00025X0.00625*%
%ADD22R,0.00025X0.00675*%
%ADD23R,0.00025X0.00750*%
%ADD24R,0.00025X0.00800*%
%ADD25R,0.00025X0.00850*%
%ADD26R,0.00025X0.00925*%
%ADD27R,0.00025X0.00975*%
%ADD28R,0.00025X0.01050*%
%ADD29R,0.00025X0.01100*%
%ADD30R,0.00025X0.01175*%
%ADD31R,0.00025X0.01225*%
%ADD32R,0.00025X0.01300*%
%ADD33R,0.00025X0.01350*%
%ADD34R,0.00025X0.01425*%
%ADD35R,0.00025X0.01475*%
%ADD36R,0.00025X0.01525*%
%ADD37R,0.00025X0.01600*%
%ADD38R,0.00025X0.01650*%
%ADD39R,0.00025X0.01725*%
%ADD40R,0.00025X0.00050*%
%ADD41R,0.00025X0.01775*%
%ADD42R,0.00025X0.00125*%
%ADD43R,0.00025X0.01850*%
%ADD44R,0.00025X0.01900*%
%ADD45R,0.00025X0.01975*%
%ADD46R,0.00025X0.02025*%
%ADD47R,0.00025X0.02100*%
%ADD48R,0.00025X0.02150*%
%ADD49R,0.00025X0.02200*%
%ADD50R,0.00025X0.02275*%
%ADD51R,0.00025X0.00575*%
%ADD52R,0.00025X0.02325*%
%ADD53R,0.00025X0.00650*%
%ADD54R,0.00025X0.02400*%
%ADD55R,0.00025X0.00700*%
%ADD56R,0.00025X0.02450*%
%ADD57R,0.00025X0.00775*%
%ADD58R,0.00025X0.02525*%
%ADD59R,0.00025X0.00825*%
%ADD60R,0.00025X0.02600*%
%ADD61R,0.00025X0.00900*%
%ADD62R,0.00025X0.03600*%
%ADD63R,0.00025X0.03625*%
%ADD64R,0.00025X0.03675*%
%ADD65R,0.00025X0.03700*%
%ADD66R,0.00025X0.03725*%
%ADD67R,0.00025X0.03775*%
%ADD68R,0.00025X0.03800*%
%ADD69R,0.00025X0.03850*%
%ADD70R,0.00025X0.03875*%
%ADD71R,0.00025X0.03925*%
%ADD72R,0.00025X0.03950*%
%ADD73R,0.00025X0.03975*%
%ADD74R,0.00025X0.04025*%
%ADD75R,0.00025X0.04075*%
%ADD76R,0.00025X0.04050*%
%ADD77R,0.00025X0.04000*%
%ADD78R,0.00025X0.03900*%
%ADD79R,0.00025X0.03825*%
%ADD80R,0.00025X0.03750*%
%ADD81R,0.00025X0.04100*%
%ADD82R,0.00025X0.04125*%
%ADD83R,0.00025X0.04150*%
%ADD84R,0.00025X0.04200*%
%ADD85R,0.00025X0.04225*%
%ADD86R,0.00025X0.04250*%
%ADD87R,0.00025X0.04275*%
%ADD88R,0.00025X0.04300*%
%ADD89R,0.00025X0.04325*%
%ADD90R,0.00025X0.04350*%
%ADD91R,0.00025X0.04375*%
%ADD92R,0.00025X0.04400*%
%ADD93R,0.00025X0.04175*%
%ADD94R,0.00025X0.04475*%
%ADD95R,0.00025X0.04600*%
%ADD96R,0.00025X0.04700*%
%ADD97R,0.00025X0.04825*%
%ADD98R,0.00025X0.04950*%
%ADD99R,0.00025X0.05050*%
%ADD100R,0.00025X0.05175*%
%ADD101R,0.00025X0.05300*%
%ADD102R,0.00025X0.05400*%
%ADD103R,0.00025X0.05500*%
%ADD104R,0.00025X0.05525*%
%ADD105R,0.00025X0.05475*%
%ADD106R,0.00025X0.05450*%
%ADD107R,0.00025X0.05425*%
%ADD108R,0.00025X0.05375*%
%ADD109R,0.00025X0.05350*%
%ADD110R,0.00025X0.05325*%
%ADD111R,0.00025X0.05550*%
%ADD112R,0.00025X0.05225*%
%ADD113R,0.00025X0.05100*%
%ADD114R,0.00025X0.04975*%
%ADD115R,0.00025X0.04875*%
%ADD116R,0.00025X0.04750*%
%ADD117R,0.00025X0.04625*%
%ADD118R,0.00025X0.04500*%
%ADD119R,0.00025X0.04675*%
%ADD120R,0.00025X0.04800*%
%ADD121R,0.00025X0.05000*%
%ADD122R,0.00025X0.10225*%
%ADD123R,0.00025X0.10175*%
%ADD124R,0.00025X0.10125*%
%ADD125R,0.00025X0.10075*%
%ADD126R,0.00025X0.10025*%
%ADD127R,0.00025X0.09975*%
%ADD128R,0.00025X0.09925*%
%ADD129R,0.00025X0.09875*%
%ADD130R,0.00025X0.09825*%
%ADD131R,0.00025X0.09775*%
%ADD132R,0.00025X0.09725*%
%ADD133R,0.00025X0.09675*%
%ADD134R,0.00025X0.09625*%
%ADD135R,0.00025X0.10275*%
%ADD136R,0.00025X0.10325*%
%ADD137R,0.00025X0.10375*%
%ADD138R,0.00025X0.10425*%
%ADD139R,0.00025X0.10475*%
%ADD140R,0.00025X0.10525*%
%ADD141R,0.00025X0.10575*%
%ADD142R,0.00025X0.10625*%
%ADD143R,0.00025X0.10675*%
%ADD144R,0.00025X0.10725*%
%ADD145R,0.00025X0.10775*%
%ADD146R,0.00025X0.10825*%
%ADD147R,0.00025X0.10875*%
%ADD148R,0.00025X0.10925*%
%ADD149R,0.00025X0.10975*%
%ADD150R,0.00025X0.11025*%
%ADD151R,0.00025X0.11075*%
%ADD152R,0.00025X0.11125*%
%ADD153R,0.00025X0.11175*%
%ADD154R,0.00025X0.11225*%
%ADD155R,0.00025X0.11275*%
%ADD156R,0.00025X0.11325*%
%ADD157R,0.00025X0.11375*%
%ADD158R,0.00025X0.11425*%
%ADD159R,0.00025X0.11475*%
%ADD160R,0.00025X0.11525*%
%ADD161R,0.00025X0.11575*%
%ADD162R,0.00025X0.11625*%
%ADD163R,0.00025X0.11675*%
%ADD164R,0.00025X0.11725*%
%ADD165R,0.00025X0.11775*%
%ADD166R,0.00025X0.11825*%
%ADD167R,0.00025X0.02775*%
%ADD168R,0.00025X0.02700*%
%ADD169R,0.00025X0.02650*%
%ADD170R,0.00025X0.05075*%
%ADD171R,0.00025X0.02475*%
%ADD172R,0.00025X0.04725*%
%ADD173R,0.00025X0.02350*%
%ADD174R,0.00025X0.04575*%
%ADD175R,0.00025X0.02225*%
%ADD176R,0.00025X0.01925*%
%ADD177R,0.00025X0.01800*%
%ADD178R,0.00025X0.03475*%
%ADD179R,0.00025X0.03375*%
%ADD180R,0.00025X0.01675*%
%ADD181R,0.00025X0.03275*%
%ADD182R,0.00025X0.03125*%
%ADD183R,0.00025X0.01550*%
%ADD184R,0.00025X0.03025*%
%ADD185R,0.00025X0.02925*%
%ADD186R,0.00025X0.02825*%
%ADD187R,0.00025X0.02725*%
%ADD188R,0.00025X0.01125*%
%ADD189R,0.00025X0.01000*%
%ADD190R,0.00025X0.02675*%
%ADD191R,0.00025X0.00875*%
%ADD192R,0.00025X0.02625*%
%ADD193R,0.00025X0.00450*%
%ADD194R,0.00025X0.00325*%
%ADD195R,0.00025X0.02575*%
%ADD196R,0.00025X0.00200*%
%ADD197R,0.00025X0.02425*%
%ADD198R,0.00025X0.02375*%
%ADD199R,0.00025X0.02175*%
%ADD200R,0.00025X0.02125*%
%ADD201R,0.00025X0.02075*%
%ADD202R,0.00025X0.01875*%
D10*
X0244533Y0108091D02*
X0247603Y0108091D01*
X0247603Y0110393D01*
X0246835Y0111161D01*
X0244533Y0111161D01*
X0245301Y0112695D02*
X0244533Y0113463D01*
X0244533Y0115765D01*
X0247603Y0115765D01*
X0247603Y0117299D02*
X0244533Y0117299D01*
X0244533Y0118834D02*
X0246835Y0118834D01*
X0247603Y0119601D01*
X0246835Y0120368D01*
X0244533Y0120368D01*
X0246835Y0118834D02*
X0247603Y0118067D01*
X0247603Y0117299D01*
X0252033Y0117299D02*
X0255103Y0118834D01*
X0255103Y0120368D02*
X0255103Y0121136D01*
X0252033Y0121136D01*
X0252033Y0121903D02*
X0252033Y0120368D01*
X0252801Y0123438D02*
X0254335Y0123438D01*
X0255103Y0124205D01*
X0255103Y0126507D01*
X0256637Y0126507D02*
X0252033Y0126507D01*
X0252033Y0124205D01*
X0252801Y0123438D01*
X0256637Y0121136D02*
X0257405Y0121136D01*
X0259533Y0121903D02*
X0262603Y0121903D01*
X0264137Y0123438D01*
X0262603Y0124972D01*
X0259533Y0124972D01*
X0261835Y0124972D02*
X0261835Y0121903D01*
X0259533Y0120368D02*
X0259533Y0117299D01*
X0259533Y0118834D02*
X0264137Y0118834D01*
X0262603Y0117299D01*
X0257405Y0113463D02*
X0256637Y0113463D01*
X0255103Y0113463D02*
X0252033Y0113463D01*
X0252033Y0114230D02*
X0252033Y0112695D01*
X0252033Y0111161D02*
X0252033Y0108859D01*
X0252801Y0108091D01*
X0254335Y0108091D01*
X0255103Y0108859D01*
X0255103Y0111161D01*
X0256637Y0111161D02*
X0252033Y0111161D01*
X0255103Y0112695D02*
X0255103Y0113463D01*
X0255103Y0115765D02*
X0252033Y0117299D01*
X0247603Y0112695D02*
X0245301Y0112695D01*
X0259533Y0111161D02*
X0260301Y0111161D01*
X0261835Y0111161D02*
X0264905Y0111161D01*
X0264905Y0109626D02*
X0261835Y0109626D01*
X0260301Y0109626D02*
X0259533Y0109626D01*
X0259533Y0108091D02*
X0260301Y0108091D01*
X0261835Y0108091D02*
X0264905Y0108091D01*
X0246835Y0126507D02*
X0245301Y0126507D01*
X0244533Y0127274D01*
X0244533Y0128809D01*
X0245301Y0129576D01*
X0246835Y0129576D01*
X0247603Y0128809D01*
X0247603Y0127274D01*
X0246835Y0126507D01*
X0246835Y0131111D02*
X0246835Y0132646D01*
X0248370Y0131878D02*
X0244533Y0131878D01*
X0248370Y0131878D02*
X0249137Y0132646D01*
X0252033Y0132646D02*
X0252033Y0134948D01*
X0252801Y0135715D01*
X0253568Y0134948D01*
X0253568Y0133413D01*
X0254335Y0132646D01*
X0255103Y0133413D01*
X0255103Y0135715D01*
X0259533Y0136482D02*
X0259533Y0138784D01*
X0262603Y0138784D01*
X0262603Y0140319D02*
X0262603Y0141853D01*
X0263370Y0141086D02*
X0260301Y0141086D01*
X0259533Y0141853D01*
X0257405Y0142621D02*
X0256637Y0142621D01*
X0255103Y0142621D02*
X0252033Y0142621D01*
X0252033Y0143388D02*
X0252033Y0141853D01*
X0255103Y0141853D02*
X0255103Y0142621D01*
X0255103Y0144923D02*
X0252033Y0144923D01*
X0255103Y0144923D02*
X0255103Y0147225D01*
X0254335Y0147992D01*
X0252033Y0147992D01*
X0252801Y0150294D02*
X0252033Y0151061D01*
X0252801Y0150294D02*
X0255870Y0150294D01*
X0255103Y0149527D02*
X0255103Y0151061D01*
X0254335Y0152596D02*
X0252801Y0152596D01*
X0252033Y0153363D01*
X0252033Y0154898D01*
X0252801Y0155665D01*
X0254335Y0155665D01*
X0255103Y0154898D01*
X0255103Y0153363D01*
X0254335Y0152596D01*
X0249137Y0150294D02*
X0249137Y0147992D01*
X0244533Y0147992D01*
X0244533Y0150294D01*
X0245301Y0151061D01*
X0248370Y0151061D01*
X0249137Y0150294D01*
X0246835Y0152596D02*
X0247603Y0153363D01*
X0247603Y0155665D01*
X0246068Y0154898D02*
X0246068Y0153363D01*
X0246835Y0152596D01*
X0244533Y0152596D02*
X0244533Y0154898D01*
X0245301Y0155665D01*
X0246068Y0154898D01*
X0244533Y0146457D02*
X0244533Y0143388D01*
X0249137Y0143388D01*
X0249137Y0146457D01*
X0246835Y0144923D02*
X0246835Y0143388D01*
X0244533Y0141853D02*
X0244533Y0138784D01*
X0249137Y0138784D01*
X0253568Y0131111D02*
X0253568Y0128042D01*
X0254335Y0128042D02*
X0255103Y0128809D01*
X0255103Y0130344D01*
X0254335Y0131111D01*
X0253568Y0131111D01*
X0252033Y0130344D02*
X0252033Y0128809D01*
X0252801Y0128042D01*
X0254335Y0128042D01*
X0259533Y0131878D02*
X0260301Y0131111D01*
X0261835Y0131111D01*
X0262603Y0131878D01*
X0262603Y0133413D01*
X0261835Y0134180D01*
X0260301Y0134180D01*
X0259533Y0133413D01*
X0259533Y0131878D01*
X0260301Y0135715D02*
X0259533Y0136482D01*
X0260301Y0135715D02*
X0262603Y0135715D01*
X0259603Y0051665D02*
X0258068Y0049363D01*
X0256533Y0051665D01*
X0256533Y0049363D02*
X0261137Y0049363D01*
X0259603Y0047829D02*
X0259603Y0045527D01*
X0258835Y0044759D01*
X0257301Y0044759D01*
X0256533Y0045527D01*
X0256533Y0047829D01*
X0256533Y0043225D02*
X0256533Y0040923D01*
X0257301Y0040155D01*
X0258068Y0040923D01*
X0258068Y0043225D01*
X0258835Y0043225D02*
X0256533Y0043225D01*
X0258835Y0043225D02*
X0259603Y0042457D01*
X0259603Y0040923D01*
X0259603Y0038621D02*
X0259603Y0037086D01*
X0260370Y0037853D02*
X0257301Y0037853D01*
X0256533Y0038621D01*
X0257301Y0035552D02*
X0258068Y0034784D01*
X0258068Y0033250D01*
X0258835Y0032482D01*
X0259603Y0033250D01*
X0259603Y0035552D01*
X0257301Y0035552D02*
X0256533Y0034784D01*
X0256533Y0032482D01*
X0256533Y0030948D02*
X0256533Y0029413D01*
X0256533Y0030180D02*
X0261137Y0030180D01*
X0261137Y0029413D01*
X0258835Y0027878D02*
X0258068Y0027878D01*
X0258068Y0024809D01*
X0257301Y0024809D02*
X0258835Y0024809D01*
X0259603Y0025576D01*
X0259603Y0027111D01*
X0258835Y0027878D01*
X0256533Y0027111D02*
X0256533Y0025576D01*
X0257301Y0024809D01*
X0257301Y0023274D02*
X0258835Y0023274D01*
X0259603Y0022507D01*
X0259603Y0020205D01*
X0261137Y0020205D02*
X0256533Y0020205D01*
X0256533Y0022507D01*
X0257301Y0023274D01*
X0258068Y0018670D02*
X0258068Y0015601D01*
X0257301Y0015601D02*
X0258835Y0015601D01*
X0259603Y0016369D01*
X0259603Y0017903D01*
X0258835Y0018670D01*
X0258068Y0018670D01*
X0256533Y0017903D02*
X0256533Y0016369D01*
X0257301Y0015601D01*
X0256533Y0014067D02*
X0258068Y0012532D01*
X0258068Y0013299D02*
X0258068Y0010997D01*
X0256533Y0010997D02*
X0261137Y0010997D01*
X0261137Y0013299D01*
X0260370Y0014067D01*
X0258835Y0014067D01*
X0258068Y0013299D01*
D11*
X0002333Y0025800D02*
X0002333Y0142200D01*
X0224333Y0142200D01*
X0224333Y0025800D01*
X0002333Y0025800D01*
X0228333Y0051000D02*
X0228333Y0095000D01*
X0229333Y0095000D01*
X0231633Y0104000D02*
X0267033Y0104000D01*
X0267033Y0061400D01*
X0231633Y0061400D01*
X0231633Y0104000D01*
X0249333Y0058000D02*
X0249333Y0051000D01*
X0245333Y0051000D02*
X0242333Y0051000D01*
X0242333Y0048000D01*
X0242333Y0051000D02*
X0242333Y0054000D01*
X0241333Y0051000D02*
X0236333Y0048000D01*
X0236333Y0054000D01*
X0241333Y0051000D01*
X0236333Y0051000D02*
X0232333Y0051000D01*
D12*
X0208933Y0059004D02*
X0202795Y0059004D01*
X0205864Y0105935D02*
X0205864Y0112073D01*
X0208933Y0109004D02*
X0202795Y0109004D01*
D13*
X0231858Y0040688D03*
X0231858Y0031712D03*
D14*
X0231883Y0031700D03*
X0232558Y0033975D03*
X0232558Y0038425D03*
X0231883Y0040700D03*
D15*
X0231908Y0040688D03*
X0232583Y0038438D03*
X0232583Y0033963D03*
X0231908Y0031712D03*
X0243583Y0031712D03*
X0243583Y0040688D03*
D16*
X0232608Y0038463D03*
X0231933Y0040688D03*
X0232608Y0033938D03*
X0231933Y0031712D03*
D17*
X0231958Y0031725D03*
X0232633Y0033925D03*
X0232633Y0038475D03*
X0231958Y0040675D03*
X0243533Y0040675D03*
X0243533Y0031725D03*
D18*
X0232658Y0033900D03*
X0231983Y0031725D03*
X0232658Y0038500D03*
X0231983Y0040675D03*
D19*
X0232008Y0040663D03*
X0232683Y0038513D03*
X0232683Y0033888D03*
X0232008Y0031737D03*
X0243483Y0031737D03*
X0243483Y0040663D03*
D20*
X0243458Y0040663D03*
X0232708Y0038538D03*
X0232033Y0040663D03*
X0232708Y0033863D03*
X0232033Y0031737D03*
X0243458Y0031737D03*
D21*
X0243433Y0031750D03*
X0232058Y0031750D03*
X0232058Y0040650D03*
X0243433Y0040650D03*
D22*
X0243408Y0040650D03*
X0232083Y0040650D03*
X0232083Y0031750D03*
X0243408Y0031750D03*
D23*
X0243383Y0031762D03*
X0232108Y0031762D03*
X0232108Y0040638D03*
X0243383Y0040638D03*
D24*
X0243358Y0040638D03*
X0232133Y0040638D03*
X0232133Y0031762D03*
X0243358Y0031762D03*
D25*
X0232158Y0031762D03*
X0232158Y0040638D03*
D26*
X0232183Y0040625D03*
X0243308Y0040625D03*
X0243308Y0031775D03*
X0232183Y0031775D03*
D27*
X0232208Y0031775D03*
X0232208Y0040625D03*
D28*
X0232233Y0040613D03*
X0243258Y0040613D03*
X0243258Y0031787D03*
X0232233Y0031787D03*
D29*
X0232258Y0031787D03*
X0232258Y0040613D03*
D30*
X0232283Y0040600D03*
X0243208Y0040600D03*
X0243208Y0031800D03*
X0232283Y0031800D03*
D31*
X0232308Y0031800D03*
X0243183Y0031800D03*
X0243183Y0040600D03*
X0232308Y0040600D03*
D32*
X0232333Y0040588D03*
X0243158Y0040588D03*
X0243158Y0031812D03*
X0232333Y0031812D03*
D33*
X0232358Y0031812D03*
X0243133Y0031812D03*
X0243133Y0040588D03*
X0232358Y0040588D03*
D34*
X0232383Y0040575D03*
X0243108Y0040575D03*
X0243108Y0031825D03*
X0232383Y0031825D03*
D35*
X0232408Y0031825D03*
X0243083Y0031825D03*
X0243083Y0040575D03*
X0232408Y0040575D03*
D36*
X0232433Y0040575D03*
X0232433Y0031825D03*
D37*
X0232458Y0031837D03*
X0243033Y0031837D03*
X0243033Y0040563D03*
X0232458Y0040563D03*
D38*
X0232483Y0040563D03*
X0232483Y0031837D03*
D39*
X0232508Y0031850D03*
X0242983Y0031850D03*
X0242983Y0040550D03*
X0232508Y0040550D03*
D40*
X0232508Y0038388D03*
X0232508Y0034013D03*
D41*
X0232533Y0031850D03*
X0232533Y0040550D03*
D42*
X0232533Y0038400D03*
X0232533Y0034000D03*
X0243633Y0031700D03*
X0243633Y0040700D03*
D43*
X0242933Y0040538D03*
X0232558Y0040538D03*
X0232558Y0031862D03*
X0242933Y0031862D03*
D44*
X0232583Y0031862D03*
X0232583Y0040538D03*
X0242908Y0040538D03*
D45*
X0242883Y0040525D03*
X0245108Y0036200D03*
X0242883Y0031875D03*
X0232608Y0031875D03*
X0232608Y0040525D03*
D46*
X0232633Y0040525D03*
X0242858Y0040525D03*
X0245058Y0036200D03*
X0245083Y0036200D03*
X0242858Y0031875D03*
X0232633Y0031875D03*
D47*
X0232658Y0031887D03*
X0242833Y0031887D03*
X0242833Y0040513D03*
X0232658Y0040513D03*
D48*
X0232683Y0040513D03*
X0242808Y0040513D03*
X0242808Y0031887D03*
X0232683Y0031887D03*
D49*
X0232708Y0031887D03*
X0232708Y0040513D03*
D50*
X0232733Y0040500D03*
X0242758Y0040500D03*
X0244383Y0036200D03*
X0244408Y0036200D03*
X0244433Y0036200D03*
X0244458Y0036200D03*
X0244483Y0036200D03*
X0244508Y0036200D03*
X0242758Y0031900D03*
X0232733Y0031900D03*
D51*
X0232733Y0033850D03*
X0232733Y0038550D03*
D52*
X0232758Y0040500D03*
X0244258Y0036200D03*
X0244283Y0036200D03*
X0244308Y0036200D03*
X0244333Y0036200D03*
X0244358Y0036200D03*
X0232758Y0031900D03*
D53*
X0232758Y0033838D03*
X0232758Y0038563D03*
D54*
X0232783Y0040488D03*
X0242708Y0040488D03*
X0244108Y0036213D03*
X0242708Y0031912D03*
X0232783Y0031912D03*
D55*
X0232783Y0033813D03*
X0232783Y0038588D03*
D56*
X0232808Y0040488D03*
X0232808Y0031912D03*
D57*
X0232808Y0033800D03*
X0232808Y0038600D03*
D58*
X0232833Y0040475D03*
X0242658Y0040475D03*
X0243708Y0036200D03*
X0243733Y0036200D03*
X0243758Y0036200D03*
X0243783Y0036200D03*
X0243808Y0036200D03*
X0243833Y0036200D03*
X0242658Y0031925D03*
X0232833Y0031925D03*
D59*
X0232833Y0033775D03*
X0232833Y0038625D03*
D60*
X0232858Y0040463D03*
X0242633Y0040463D03*
X0242633Y0031937D03*
X0232858Y0031937D03*
D61*
X0232858Y0033738D03*
X0232858Y0038663D03*
D62*
X0232883Y0039988D03*
X0232883Y0032412D03*
D63*
X0232908Y0032400D03*
X0232908Y0040000D03*
X0242933Y0036200D03*
D64*
X0234833Y0033175D03*
X0234808Y0033175D03*
X0234783Y0033150D03*
X0234758Y0033150D03*
X0234733Y0033125D03*
X0232933Y0032400D03*
X0234808Y0039225D03*
X0234833Y0039225D03*
X0234783Y0039250D03*
X0234758Y0039250D03*
X0234733Y0039275D03*
X0232933Y0040000D03*
D65*
X0232958Y0040013D03*
X0234608Y0039338D03*
X0234658Y0039313D03*
X0234683Y0039288D03*
X0234708Y0039288D03*
X0234858Y0039213D03*
X0234883Y0039213D03*
X0234908Y0039213D03*
X0234908Y0033188D03*
X0234883Y0033188D03*
X0234858Y0033188D03*
X0234708Y0033113D03*
X0234683Y0033113D03*
X0234658Y0033088D03*
X0234608Y0033063D03*
X0232958Y0032387D03*
D66*
X0232983Y0032375D03*
X0234533Y0033025D03*
X0234583Y0033050D03*
X0234633Y0033075D03*
X0234633Y0039325D03*
X0234583Y0039350D03*
X0234533Y0039375D03*
X0232983Y0040025D03*
X0242908Y0036200D03*
D67*
X0234408Y0032950D03*
X0234358Y0032925D03*
X0233008Y0032375D03*
X0234408Y0039450D03*
X0234358Y0039475D03*
X0233008Y0040025D03*
D68*
X0233033Y0040038D03*
X0234283Y0039513D03*
X0234308Y0039513D03*
X0234333Y0039488D03*
X0234383Y0039463D03*
X0234983Y0039213D03*
X0235008Y0039213D03*
X0235033Y0039213D03*
X0235033Y0033188D03*
X0235008Y0033188D03*
X0234983Y0033188D03*
X0234383Y0032938D03*
X0234333Y0032913D03*
X0234308Y0032888D03*
X0234283Y0032888D03*
X0233033Y0032362D03*
D69*
X0233058Y0032362D03*
X0234058Y0032762D03*
X0234108Y0032788D03*
X0234133Y0032813D03*
X0234158Y0032813D03*
X0235058Y0033188D03*
X0235083Y0033188D03*
X0235083Y0039213D03*
X0235058Y0039213D03*
X0234158Y0039588D03*
X0234133Y0039588D03*
X0234108Y0039613D03*
X0234058Y0039638D03*
X0233058Y0040038D03*
D70*
X0233083Y0040050D03*
X0233983Y0039675D03*
X0234008Y0039675D03*
X0234033Y0039650D03*
X0234083Y0039625D03*
X0234083Y0032775D03*
X0234033Y0032750D03*
X0234008Y0032725D03*
X0233983Y0032725D03*
X0233083Y0032350D03*
X0242883Y0036200D03*
D71*
X0239233Y0039600D03*
X0239208Y0039625D03*
X0239133Y0039700D03*
X0236358Y0039700D03*
X0236333Y0039700D03*
X0236308Y0039675D03*
X0236283Y0039650D03*
X0233908Y0039725D03*
X0233858Y0039750D03*
X0233808Y0039775D03*
X0233108Y0040050D03*
X0233908Y0032675D03*
X0233858Y0032650D03*
X0233808Y0032625D03*
X0233108Y0032350D03*
X0236283Y0032750D03*
X0236308Y0032725D03*
X0236333Y0032700D03*
X0236358Y0032700D03*
X0239133Y0032700D03*
X0239208Y0032775D03*
X0239233Y0032800D03*
D72*
X0239258Y0032813D03*
X0239283Y0032838D03*
X0239108Y0032662D03*
X0236383Y0032662D03*
X0236258Y0032762D03*
X0235208Y0033188D03*
X0235183Y0033188D03*
X0233833Y0032637D03*
X0233783Y0032612D03*
X0233758Y0032587D03*
X0233733Y0032587D03*
X0233708Y0032562D03*
X0233133Y0032337D03*
X0235183Y0039213D03*
X0235208Y0039213D03*
X0236258Y0039638D03*
X0236383Y0039738D03*
X0233833Y0039763D03*
X0233783Y0039788D03*
X0233758Y0039813D03*
X0233733Y0039813D03*
X0233708Y0039838D03*
X0233133Y0040063D03*
X0239108Y0039738D03*
X0239258Y0039588D03*
X0239283Y0039563D03*
D73*
X0239308Y0039550D03*
X0242858Y0036200D03*
X0239308Y0032850D03*
X0233683Y0032550D03*
X0233658Y0032550D03*
X0233633Y0032525D03*
X0233583Y0032500D03*
X0233158Y0032325D03*
X0233658Y0039850D03*
X0233683Y0039850D03*
X0233633Y0039875D03*
X0233583Y0039900D03*
X0233158Y0040075D03*
D74*
X0233183Y0040075D03*
X0233208Y0040075D03*
X0233458Y0039975D03*
X0233483Y0039950D03*
X0233508Y0039950D03*
X0233533Y0039925D03*
X0235283Y0039200D03*
X0236158Y0039550D03*
X0236183Y0039575D03*
X0236408Y0039800D03*
X0239358Y0039500D03*
X0239358Y0032900D03*
X0236408Y0032600D03*
X0236183Y0032825D03*
X0236158Y0032850D03*
X0235283Y0033200D03*
X0233533Y0032475D03*
X0233508Y0032450D03*
X0233483Y0032450D03*
X0233458Y0032425D03*
X0233208Y0032325D03*
X0233183Y0032325D03*
D75*
X0233233Y0032325D03*
X0233258Y0032325D03*
X0233308Y0032350D03*
X0233358Y0032375D03*
X0236108Y0032875D03*
X0236108Y0039525D03*
X0233358Y0040025D03*
X0233308Y0040050D03*
X0233258Y0040075D03*
X0233233Y0040075D03*
D76*
X0233283Y0040063D03*
X0233333Y0040038D03*
X0233383Y0040013D03*
X0233408Y0039988D03*
X0233433Y0039988D03*
X0235308Y0039213D03*
X0235333Y0039213D03*
X0236133Y0039538D03*
X0239083Y0039813D03*
X0239383Y0039488D03*
X0239408Y0039463D03*
X0239408Y0032938D03*
X0239383Y0032913D03*
X0239083Y0032587D03*
X0236133Y0032863D03*
X0235333Y0033188D03*
X0235308Y0033188D03*
X0233433Y0032412D03*
X0233408Y0032412D03*
X0233383Y0032387D03*
X0233333Y0032362D03*
X0233283Y0032337D03*
D77*
X0233558Y0032487D03*
X0233608Y0032512D03*
X0235233Y0033188D03*
X0235258Y0033188D03*
X0236208Y0032813D03*
X0236233Y0032788D03*
X0239333Y0032863D03*
X0239333Y0039538D03*
X0236233Y0039613D03*
X0236208Y0039588D03*
X0235258Y0039213D03*
X0235233Y0039213D03*
X0233608Y0039888D03*
X0233558Y0039913D03*
D78*
X0233883Y0039738D03*
X0233933Y0039713D03*
X0233958Y0039688D03*
X0235108Y0039213D03*
X0235133Y0039213D03*
X0235158Y0039213D03*
X0239158Y0039663D03*
X0239183Y0039638D03*
X0239183Y0032762D03*
X0239158Y0032737D03*
X0235158Y0033188D03*
X0235133Y0033188D03*
X0235108Y0033188D03*
X0233958Y0032712D03*
X0233933Y0032687D03*
X0233883Y0032662D03*
D79*
X0234183Y0032825D03*
X0234208Y0032850D03*
X0234233Y0032850D03*
X0234258Y0032875D03*
X0234258Y0039525D03*
X0234233Y0039550D03*
X0234208Y0039550D03*
X0234183Y0039575D03*
D80*
X0234433Y0039438D03*
X0234458Y0039413D03*
X0234483Y0039413D03*
X0234508Y0039388D03*
X0234558Y0039363D03*
X0234933Y0039213D03*
X0234958Y0039213D03*
X0234958Y0033188D03*
X0234933Y0033188D03*
X0234558Y0033038D03*
X0234508Y0033013D03*
X0234483Y0032988D03*
X0234458Y0032988D03*
X0234433Y0032963D03*
D81*
X0235358Y0033188D03*
X0235383Y0033188D03*
X0236083Y0032913D03*
X0239433Y0032963D03*
X0239458Y0032988D03*
X0239458Y0039413D03*
X0239433Y0039438D03*
X0236083Y0039488D03*
X0235383Y0039213D03*
X0235358Y0039213D03*
D82*
X0235408Y0039200D03*
X0236033Y0039450D03*
X0236058Y0039475D03*
X0236433Y0039875D03*
X0235408Y0033200D03*
X0236033Y0032950D03*
X0236058Y0032925D03*
X0236433Y0032525D03*
X0242833Y0036200D03*
D83*
X0239483Y0039388D03*
X0239058Y0039888D03*
X0235458Y0039213D03*
X0235433Y0039213D03*
X0235433Y0033188D03*
X0235458Y0033188D03*
X0239058Y0032512D03*
X0239483Y0033013D03*
D84*
X0239533Y0033063D03*
X0235983Y0032988D03*
X0235958Y0033013D03*
X0235508Y0033188D03*
X0235483Y0033188D03*
X0235483Y0039213D03*
X0235508Y0039213D03*
X0235958Y0039388D03*
X0235983Y0039413D03*
X0239533Y0039338D03*
D85*
X0236458Y0039950D03*
X0235533Y0039200D03*
X0235533Y0033200D03*
X0236458Y0032450D03*
X0242808Y0036200D03*
D86*
X0239558Y0039313D03*
X0235933Y0039363D03*
X0235908Y0039338D03*
X0235558Y0039213D03*
X0235558Y0033188D03*
X0235908Y0033063D03*
X0235933Y0033038D03*
X0239558Y0033088D03*
D87*
X0239583Y0033125D03*
X0235583Y0033200D03*
X0235583Y0039200D03*
X0239583Y0039275D03*
D88*
X0239033Y0039963D03*
X0235883Y0039313D03*
X0235633Y0039213D03*
X0235608Y0039213D03*
X0235608Y0033188D03*
X0235633Y0033188D03*
X0235883Y0033088D03*
X0239033Y0032437D03*
D89*
X0239608Y0033150D03*
X0235858Y0033100D03*
X0235658Y0033200D03*
X0235658Y0039200D03*
X0235858Y0039300D03*
X0239608Y0039250D03*
D90*
X0239633Y0039213D03*
X0236483Y0040038D03*
X0235833Y0039263D03*
X0235683Y0039213D03*
X0235683Y0033188D03*
X0235833Y0033138D03*
X0236483Y0032362D03*
X0239633Y0033188D03*
X0242783Y0036213D03*
D91*
X0235808Y0039250D03*
X0235783Y0039225D03*
X0235708Y0039200D03*
X0235708Y0033200D03*
X0235783Y0033175D03*
X0235808Y0033150D03*
D92*
X0235758Y0033188D03*
X0235733Y0033188D03*
X0239008Y0032362D03*
X0239658Y0033213D03*
X0239658Y0039188D03*
X0239008Y0040038D03*
X0235758Y0039213D03*
X0235733Y0039213D03*
D93*
X0236008Y0039425D03*
X0239508Y0039375D03*
X0239508Y0033025D03*
X0236008Y0032975D03*
D94*
X0236508Y0032300D03*
X0239683Y0033250D03*
X0242758Y0036200D03*
X0239683Y0039150D03*
X0236508Y0040100D03*
D95*
X0236533Y0040188D03*
X0239733Y0039063D03*
X0239733Y0033338D03*
X0236533Y0032212D03*
D96*
X0236558Y0032137D03*
X0236558Y0040263D03*
D97*
X0236583Y0040325D03*
X0242683Y0036200D03*
X0236583Y0032075D03*
D98*
X0236608Y0031987D03*
X0236608Y0040413D03*
D99*
X0236633Y0040488D03*
X0236633Y0031912D03*
D100*
X0236658Y0031850D03*
X0236658Y0040550D03*
D101*
X0236683Y0040638D03*
X0237733Y0040938D03*
X0236683Y0031762D03*
X0237733Y0031462D03*
D102*
X0237183Y0031512D03*
X0237158Y0031512D03*
X0237133Y0031512D03*
X0236708Y0031687D03*
X0238308Y0031512D03*
X0238333Y0031512D03*
X0238358Y0031512D03*
X0236708Y0040713D03*
X0237133Y0040888D03*
X0237158Y0040888D03*
X0237183Y0040888D03*
X0238308Y0040888D03*
X0238333Y0040888D03*
X0238358Y0040888D03*
D103*
X0238583Y0040838D03*
X0238608Y0040838D03*
X0236883Y0040838D03*
X0236858Y0040838D03*
X0236733Y0040763D03*
X0236733Y0031637D03*
X0236858Y0031562D03*
X0236883Y0031562D03*
X0238583Y0031562D03*
X0238608Y0031562D03*
D104*
X0238633Y0031575D03*
X0238658Y0031575D03*
X0238758Y0031625D03*
X0236833Y0031575D03*
X0236808Y0031575D03*
X0236783Y0031600D03*
X0236758Y0031600D03*
X0236758Y0040800D03*
X0236783Y0040800D03*
X0236808Y0040825D03*
X0236833Y0040825D03*
X0238633Y0040825D03*
X0238658Y0040825D03*
X0238758Y0040775D03*
D105*
X0238558Y0040850D03*
X0238533Y0040850D03*
X0236958Y0040850D03*
X0236933Y0040850D03*
X0236908Y0040850D03*
X0236908Y0031550D03*
X0236933Y0031550D03*
X0236958Y0031550D03*
X0238533Y0031550D03*
X0238558Y0031550D03*
D106*
X0238508Y0031537D03*
X0238483Y0031537D03*
X0238458Y0031537D03*
X0238783Y0031687D03*
X0237033Y0031537D03*
X0237008Y0031537D03*
X0236983Y0031537D03*
X0236983Y0040863D03*
X0237008Y0040863D03*
X0237033Y0040863D03*
X0238458Y0040863D03*
X0238483Y0040863D03*
X0238508Y0040863D03*
X0238783Y0040713D03*
D107*
X0238433Y0040875D03*
X0238408Y0040875D03*
X0238383Y0040875D03*
X0237108Y0040875D03*
X0237083Y0040875D03*
X0237058Y0040875D03*
X0242558Y0036200D03*
X0238433Y0031525D03*
X0238408Y0031525D03*
X0238383Y0031525D03*
X0237108Y0031525D03*
X0237083Y0031525D03*
X0237058Y0031525D03*
D108*
X0237208Y0031500D03*
X0237233Y0031500D03*
X0237258Y0031500D03*
X0237283Y0031500D03*
X0238208Y0031500D03*
X0238233Y0031500D03*
X0238258Y0031500D03*
X0238283Y0031500D03*
X0238283Y0040900D03*
X0238258Y0040900D03*
X0238233Y0040900D03*
X0238208Y0040900D03*
X0237283Y0040900D03*
X0237258Y0040900D03*
X0237233Y0040900D03*
X0237208Y0040900D03*
D109*
X0237308Y0040913D03*
X0237333Y0040913D03*
X0237358Y0040913D03*
X0237383Y0040913D03*
X0237408Y0040913D03*
X0238058Y0040913D03*
X0238083Y0040913D03*
X0238108Y0040913D03*
X0238133Y0040913D03*
X0238158Y0040913D03*
X0238183Y0040913D03*
X0238183Y0031487D03*
X0238158Y0031487D03*
X0238133Y0031487D03*
X0238108Y0031487D03*
X0238083Y0031487D03*
X0238058Y0031487D03*
X0237408Y0031487D03*
X0237383Y0031487D03*
X0237358Y0031487D03*
X0237333Y0031487D03*
X0237308Y0031487D03*
D110*
X0237433Y0031475D03*
X0237458Y0031475D03*
X0237483Y0031475D03*
X0237508Y0031475D03*
X0237533Y0031475D03*
X0237558Y0031475D03*
X0237583Y0031475D03*
X0237608Y0031475D03*
X0237633Y0031475D03*
X0237658Y0031475D03*
X0237683Y0031475D03*
X0237708Y0031475D03*
X0237758Y0031475D03*
X0237783Y0031475D03*
X0237808Y0031475D03*
X0237833Y0031475D03*
X0237858Y0031475D03*
X0237883Y0031475D03*
X0237908Y0031475D03*
X0237933Y0031475D03*
X0237958Y0031475D03*
X0237983Y0031475D03*
X0238008Y0031475D03*
X0238033Y0031475D03*
X0238808Y0031750D03*
X0242583Y0036200D03*
X0238808Y0040650D03*
X0238033Y0040925D03*
X0238008Y0040925D03*
X0237983Y0040925D03*
X0237958Y0040925D03*
X0237933Y0040925D03*
X0237908Y0040925D03*
X0237883Y0040925D03*
X0237858Y0040925D03*
X0237833Y0040925D03*
X0237808Y0040925D03*
X0237783Y0040925D03*
X0237758Y0040925D03*
X0237708Y0040925D03*
X0237683Y0040925D03*
X0237658Y0040925D03*
X0237633Y0040925D03*
X0237608Y0040925D03*
X0237583Y0040925D03*
X0237558Y0040925D03*
X0237533Y0040925D03*
X0237508Y0040925D03*
X0237483Y0040925D03*
X0237458Y0040925D03*
X0237433Y0040925D03*
D111*
X0238683Y0040813D03*
X0238708Y0040813D03*
X0238733Y0040788D03*
X0238733Y0031612D03*
X0238708Y0031587D03*
X0238683Y0031587D03*
D112*
X0238833Y0031825D03*
X0242608Y0036200D03*
X0238833Y0040575D03*
D113*
X0238858Y0040488D03*
X0238858Y0031912D03*
D114*
X0238883Y0031975D03*
X0242658Y0036200D03*
X0238883Y0040425D03*
D115*
X0238908Y0040350D03*
X0238908Y0032050D03*
D116*
X0238933Y0032137D03*
X0238933Y0040263D03*
D117*
X0238958Y0040200D03*
X0238958Y0032200D03*
D118*
X0238983Y0032287D03*
X0239708Y0033288D03*
X0239708Y0039113D03*
X0238983Y0040113D03*
D119*
X0239758Y0039000D03*
X0239758Y0033400D03*
D120*
X0239783Y0033463D03*
X0239783Y0038938D03*
D121*
X0239808Y0038838D03*
X0239808Y0033563D03*
D122*
X0239833Y0036200D03*
X0239858Y0036200D03*
X0241058Y0036200D03*
D123*
X0241033Y0036200D03*
X0241008Y0036200D03*
X0239908Y0036200D03*
X0239883Y0036200D03*
D124*
X0239933Y0036200D03*
X0239958Y0036200D03*
X0239983Y0036200D03*
X0240983Y0036200D03*
D125*
X0240958Y0036200D03*
X0240933Y0036200D03*
X0240033Y0036200D03*
X0240008Y0036200D03*
D126*
X0240058Y0036200D03*
X0240083Y0036200D03*
X0240908Y0036200D03*
D127*
X0240883Y0036200D03*
X0240158Y0036200D03*
X0240133Y0036200D03*
X0240108Y0036200D03*
D128*
X0240183Y0036200D03*
X0240208Y0036200D03*
X0240833Y0036200D03*
X0240858Y0036200D03*
D129*
X0240808Y0036200D03*
X0240258Y0036200D03*
X0240233Y0036200D03*
D130*
X0240283Y0036200D03*
X0240308Y0036200D03*
X0240333Y0036200D03*
X0240758Y0036200D03*
X0240783Y0036200D03*
D131*
X0240733Y0036200D03*
X0240383Y0036200D03*
X0240358Y0036200D03*
D132*
X0240408Y0036200D03*
X0240433Y0036200D03*
X0240683Y0036200D03*
X0240708Y0036200D03*
D133*
X0240658Y0036200D03*
X0240633Y0036200D03*
X0240508Y0036200D03*
X0240483Y0036200D03*
X0240458Y0036200D03*
D134*
X0240533Y0036200D03*
X0240558Y0036200D03*
X0240583Y0036200D03*
X0240608Y0036200D03*
D135*
X0241083Y0036200D03*
X0241108Y0036200D03*
D136*
X0241133Y0036200D03*
D137*
X0241158Y0036200D03*
X0241183Y0036200D03*
D138*
X0241208Y0036200D03*
D139*
X0241233Y0036200D03*
X0241258Y0036200D03*
D140*
X0241283Y0036200D03*
D141*
X0241308Y0036200D03*
D142*
X0241333Y0036200D03*
X0241358Y0036200D03*
D143*
X0241383Y0036200D03*
D144*
X0241408Y0036200D03*
X0241433Y0036200D03*
D145*
X0241458Y0036200D03*
D146*
X0241483Y0036200D03*
X0241508Y0036200D03*
D147*
X0241533Y0036200D03*
D148*
X0241558Y0036200D03*
X0241583Y0036200D03*
D149*
X0241608Y0036200D03*
D150*
X0241633Y0036200D03*
X0241658Y0036200D03*
D151*
X0241683Y0036200D03*
D152*
X0241708Y0036200D03*
X0241733Y0036200D03*
D153*
X0241758Y0036200D03*
D154*
X0241783Y0036200D03*
D155*
X0241808Y0036200D03*
X0241833Y0036200D03*
D156*
X0241858Y0036200D03*
X0242533Y0036200D03*
D157*
X0242508Y0036200D03*
X0241908Y0036200D03*
X0241883Y0036200D03*
D158*
X0241933Y0036200D03*
X0242483Y0036200D03*
D159*
X0242458Y0036200D03*
X0241983Y0036200D03*
X0241958Y0036200D03*
D160*
X0242008Y0036200D03*
X0242433Y0036200D03*
D161*
X0242408Y0036200D03*
X0242058Y0036200D03*
X0242033Y0036200D03*
D162*
X0242083Y0036200D03*
X0242383Y0036200D03*
D163*
X0242358Y0036200D03*
X0242133Y0036200D03*
X0242108Y0036200D03*
D164*
X0242158Y0036200D03*
X0242333Y0036200D03*
D165*
X0242308Y0036200D03*
X0242283Y0036200D03*
X0242208Y0036200D03*
X0242183Y0036200D03*
D166*
X0242233Y0036200D03*
X0242258Y0036200D03*
D167*
X0243133Y0036200D03*
X0243158Y0036200D03*
X0242558Y0031950D03*
X0242558Y0040450D03*
D168*
X0242583Y0040463D03*
X0242583Y0031937D03*
D169*
X0242608Y0031937D03*
X0242608Y0040463D03*
D170*
X0242633Y0036200D03*
D171*
X0243858Y0036200D03*
X0243883Y0036200D03*
X0243908Y0036200D03*
X0243933Y0036200D03*
X0243958Y0036200D03*
X0242683Y0031925D03*
X0242683Y0040475D03*
D172*
X0242708Y0036200D03*
D173*
X0242733Y0031912D03*
X0242733Y0040488D03*
D174*
X0242733Y0036200D03*
D175*
X0244533Y0036200D03*
X0244558Y0036200D03*
X0244583Y0036200D03*
X0244608Y0036200D03*
X0244633Y0036200D03*
X0242783Y0031900D03*
X0242783Y0040500D03*
D176*
X0242908Y0031875D03*
D177*
X0242958Y0031862D03*
X0242958Y0040538D03*
D178*
X0242958Y0036200D03*
D179*
X0242983Y0036200D03*
D180*
X0243008Y0031850D03*
X0243008Y0040550D03*
D181*
X0243008Y0036200D03*
D182*
X0243033Y0036200D03*
D183*
X0243058Y0031837D03*
X0243058Y0040563D03*
D184*
X0243058Y0036200D03*
D185*
X0243083Y0036200D03*
D186*
X0243108Y0036200D03*
D187*
X0243183Y0036200D03*
X0243208Y0036200D03*
X0243233Y0036200D03*
X0243258Y0036200D03*
X0243283Y0036200D03*
D188*
X0243233Y0031800D03*
X0243233Y0040600D03*
D189*
X0243283Y0040613D03*
X0243283Y0031787D03*
D190*
X0243308Y0036200D03*
X0243333Y0036200D03*
X0243358Y0036200D03*
X0243383Y0036200D03*
X0243408Y0036200D03*
X0243433Y0036200D03*
D191*
X0243333Y0031775D03*
X0243333Y0040625D03*
D192*
X0243458Y0036200D03*
X0243483Y0036200D03*
X0243508Y0036200D03*
X0243533Y0036200D03*
X0243558Y0036200D03*
D193*
X0243508Y0031737D03*
X0243508Y0040663D03*
D194*
X0243558Y0040675D03*
X0243558Y0031725D03*
D195*
X0243583Y0036200D03*
X0243608Y0036200D03*
X0243633Y0036200D03*
X0243658Y0036200D03*
X0243683Y0036200D03*
D196*
X0243608Y0031712D03*
X0243608Y0040688D03*
D197*
X0243983Y0036200D03*
X0244008Y0036200D03*
X0244033Y0036200D03*
X0244058Y0036200D03*
X0244083Y0036200D03*
D198*
X0244133Y0036200D03*
X0244158Y0036200D03*
X0244183Y0036200D03*
X0244208Y0036200D03*
X0244233Y0036200D03*
D199*
X0244658Y0036200D03*
X0244683Y0036200D03*
X0244708Y0036200D03*
X0244733Y0036200D03*
X0244758Y0036200D03*
D200*
X0244783Y0036200D03*
X0244808Y0036200D03*
X0244833Y0036200D03*
X0244858Y0036200D03*
X0244883Y0036200D03*
X0244908Y0036200D03*
D201*
X0244933Y0036200D03*
X0244958Y0036200D03*
X0244983Y0036200D03*
X0245008Y0036200D03*
X0245033Y0036200D03*
D202*
X0245133Y0036200D03*
M02*
