G75*
%MOIN*%
%OFA0B0*%
%FSLAX25Y25*%
%IPPOS*%
%LPD*%
%AMOC8*
5,1,8,0,0,1.08239X$1,22.5*
%
%ADD10R,0.10630X0.11614*%
%ADD11R,0.05118X0.05906*%
%ADD12R,0.05906X0.05118*%
%ADD13C,0.12600*%
%ADD14R,0.04803X0.02441*%
%ADD15R,0.05118X0.06299*%
%ADD16R,0.06299X0.05118*%
%ADD17R,0.07087X0.12598*%
%ADD18R,0.02362X0.08661*%
%ADD19R,0.03937X0.03937*%
%ADD20R,0.03937X0.04724*%
%ADD21C,0.05000*%
%ADD22C,0.04000*%
%ADD23C,0.02400*%
%ADD24C,0.01000*%
D10*
X0188333Y0082713D03*
X0188333Y0109287D03*
D11*
X0153073Y0083000D03*
X0145593Y0083000D03*
X0127073Y0060000D03*
X0119593Y0060000D03*
X0076073Y0053000D03*
X0068593Y0053000D03*
X0052073Y0039000D03*
X0044593Y0039000D03*
D12*
X0072333Y0079260D03*
X0072333Y0086740D03*
X0117333Y0084260D03*
X0117333Y0091740D03*
X0117333Y0101260D03*
X0117333Y0108740D03*
X0153333Y0108740D03*
X0153333Y0101260D03*
X0168333Y0101260D03*
X0168333Y0108740D03*
D13*
X0219333Y0109000D03*
X0249333Y0094000D03*
X0249333Y0074000D03*
X0219333Y0059000D03*
D14*
X0201451Y0065000D03*
X0191215Y0061260D03*
X0191215Y0068740D03*
X0159451Y0068000D03*
X0159451Y0064260D03*
X0159451Y0071740D03*
X0149215Y0071740D03*
X0149215Y0068000D03*
X0149215Y0064260D03*
X0142451Y0101260D03*
X0142451Y0105000D03*
X0142451Y0108740D03*
X0132215Y0108740D03*
X0132215Y0101260D03*
D15*
X0154593Y0056000D03*
X0162073Y0056000D03*
X0171593Y0056000D03*
X0179073Y0056000D03*
X0127073Y0049000D03*
X0119593Y0049000D03*
X0052073Y0050000D03*
X0044593Y0050000D03*
D16*
X0142333Y0052740D03*
X0142333Y0045260D03*
D17*
X0190310Y0131000D03*
X0212357Y0131000D03*
D18*
X0059833Y0102110D03*
X0054833Y0102110D03*
X0049833Y0102110D03*
X0044833Y0102110D03*
X0039833Y0102110D03*
X0034833Y0102110D03*
X0029833Y0102110D03*
X0024833Y0102110D03*
X0024833Y0065890D03*
X0029833Y0065890D03*
X0034833Y0065890D03*
X0039833Y0065890D03*
X0044833Y0065890D03*
X0049833Y0065890D03*
X0054833Y0065890D03*
X0059833Y0065890D03*
D19*
X0095003Y0052260D03*
X0103664Y0052260D03*
X0103664Y0059740D03*
D20*
X0095003Y0058953D03*
D21*
X0188333Y0109287D02*
X0188333Y0129024D01*
X0190310Y0131000D01*
X0212357Y0131000D02*
X0236333Y0131000D01*
X0249333Y0118000D01*
X0249333Y0094000D01*
X0249333Y0074000D02*
X0211333Y0074000D01*
X0219333Y0109000D02*
X0188621Y0109000D01*
X0188333Y0109287D01*
D22*
X0187786Y0108740D01*
X0168333Y0108740D01*
X0153333Y0108740D01*
D23*
X0142451Y0108740D01*
X0132215Y0108740D02*
X0117333Y0108740D01*
X0127333Y0098000D02*
X0127333Y0090000D01*
X0121333Y0084000D01*
X0117593Y0084000D01*
X0117333Y0084260D01*
X0112333Y0079260D01*
X0072333Y0079260D01*
X0072333Y0072000D01*
X0066223Y0065890D01*
X0059833Y0065890D01*
X0127333Y0090000D02*
X0149333Y0090000D01*
X0153073Y0086260D01*
X0153073Y0083000D01*
X0130593Y0101260D02*
X0127333Y0098000D01*
X0130593Y0101260D02*
X0132215Y0101260D01*
X0201451Y0065000D02*
X0205333Y0065000D01*
X0208333Y0068000D01*
X0208333Y0071000D01*
X0211333Y0074000D01*
D24*
X0006833Y0005500D02*
X0006833Y0163500D01*
X0028600Y0163500D01*
X0026071Y0161663D01*
X0026071Y0161663D01*
X0026071Y0161663D01*
X0023818Y0158562D01*
X0022633Y0154916D01*
X0022633Y0151084D01*
X0023818Y0147438D01*
X0026071Y0144337D01*
X0029172Y0142084D01*
X0032817Y0140900D01*
X0067654Y0140900D01*
X0065233Y0139502D01*
X0063231Y0137501D01*
X0061816Y0135049D01*
X0061083Y0132315D01*
X0061083Y0129485D01*
X0061816Y0126751D01*
X0063231Y0124299D01*
X0065233Y0122298D01*
X0067684Y0120883D01*
X0070418Y0120150D01*
X0073249Y0120150D01*
X0075983Y0120883D01*
X0078434Y0122298D01*
X0080435Y0124299D01*
X0081851Y0126751D01*
X0082583Y0129485D01*
X0082583Y0132315D01*
X0081851Y0135049D01*
X0080435Y0137501D01*
X0078434Y0139502D01*
X0076013Y0140900D01*
X0155154Y0140900D01*
X0152733Y0139502D01*
X0150731Y0137501D01*
X0149316Y0135049D01*
X0148583Y0132315D01*
X0148583Y0129485D01*
X0149316Y0126751D01*
X0150731Y0124299D01*
X0152733Y0122298D01*
X0155184Y0120883D01*
X0157918Y0120150D01*
X0160749Y0120150D01*
X0163483Y0120883D01*
X0165934Y0122298D01*
X0167935Y0124299D01*
X0169351Y0126751D01*
X0170083Y0129485D01*
X0170083Y0132315D01*
X0169351Y0135049D01*
X0167935Y0137501D01*
X0165934Y0139502D01*
X0163513Y0140900D01*
X0235728Y0140900D01*
X0236750Y0140900D01*
X0240395Y0142084D01*
X0243496Y0144337D01*
X0243496Y0144337D01*
X0243496Y0144337D01*
X0245749Y0147438D01*
X0245749Y0147438D01*
X0246933Y0151084D01*
X0246933Y0154916D01*
X0245749Y0158562D01*
X0243496Y0161663D01*
X0240967Y0163500D01*
X0262833Y0163500D01*
X0262833Y0005500D01*
X0240967Y0005500D01*
X0243496Y0007337D01*
X0243496Y0007337D01*
X0243496Y0007337D01*
X0245749Y0010438D01*
X0245749Y0010438D01*
X0246933Y0014084D01*
X0246933Y0017916D01*
X0245749Y0021562D01*
X0243496Y0024663D01*
X0240395Y0026916D01*
X0236750Y0028100D01*
X0165245Y0028100D01*
X0165934Y0028498D01*
X0167935Y0030499D01*
X0169351Y0032951D01*
X0170083Y0035685D01*
X0170083Y0038515D01*
X0169351Y0041249D01*
X0167935Y0043701D01*
X0165934Y0045702D01*
X0163483Y0047117D01*
X0160749Y0047850D01*
X0157918Y0047850D01*
X0155184Y0047117D01*
X0152733Y0045702D01*
X0150731Y0043701D01*
X0149316Y0041249D01*
X0148583Y0038515D01*
X0148583Y0035685D01*
X0149316Y0032951D01*
X0150731Y0030499D01*
X0152733Y0028498D01*
X0153422Y0028100D01*
X0077745Y0028100D01*
X0078434Y0028498D01*
X0080435Y0030499D01*
X0081851Y0032951D01*
X0082583Y0035685D01*
X0082583Y0038515D01*
X0081851Y0041249D01*
X0080435Y0043701D01*
X0078434Y0045702D01*
X0075983Y0047117D01*
X0073249Y0047850D01*
X0070418Y0047850D01*
X0067684Y0047117D01*
X0065233Y0045702D01*
X0063231Y0043701D01*
X0061816Y0041249D01*
X0061083Y0038515D01*
X0061083Y0035685D01*
X0061816Y0032951D01*
X0063231Y0030499D01*
X0065233Y0028498D01*
X0065922Y0028100D01*
X0032817Y0028100D01*
X0029172Y0026916D01*
X0029172Y0026916D01*
X0026071Y0024663D01*
X0026071Y0024663D01*
X0026071Y0024663D01*
X0023818Y0021562D01*
X0023818Y0021562D01*
X0022633Y0017916D01*
X0022633Y0014084D01*
X0023818Y0010438D01*
X0026071Y0007337D01*
X0028600Y0005500D01*
X0006833Y0005500D01*
X0006833Y0005993D02*
X0027922Y0005993D01*
X0026547Y0006991D02*
X0006833Y0006991D01*
X0006833Y0007990D02*
X0025597Y0007990D01*
X0026071Y0007337D02*
X0026071Y0007337D01*
X0026071Y0007337D01*
X0024871Y0008988D02*
X0006833Y0008988D01*
X0006833Y0009987D02*
X0024146Y0009987D01*
X0023818Y0010438D02*
X0023818Y0010438D01*
X0023640Y0010985D02*
X0006833Y0010985D01*
X0006833Y0011984D02*
X0023316Y0011984D01*
X0022991Y0012982D02*
X0006833Y0012982D01*
X0006833Y0013981D02*
X0022667Y0013981D01*
X0022633Y0014979D02*
X0006833Y0014979D01*
X0006833Y0015978D02*
X0022633Y0015978D01*
X0022633Y0016976D02*
X0006833Y0016976D01*
X0006833Y0017975D02*
X0022652Y0017975D01*
X0022977Y0018973D02*
X0006833Y0018973D01*
X0006833Y0019972D02*
X0023301Y0019972D01*
X0023626Y0020970D02*
X0006833Y0020970D01*
X0006833Y0021969D02*
X0024113Y0021969D01*
X0024839Y0022967D02*
X0006833Y0022967D01*
X0006833Y0023966D02*
X0025564Y0023966D01*
X0026486Y0024964D02*
X0006833Y0024964D01*
X0006833Y0025963D02*
X0027860Y0025963D01*
X0029312Y0026961D02*
X0006833Y0026961D01*
X0006833Y0027960D02*
X0032385Y0027960D01*
X0040834Y0035126D02*
X0041113Y0034847D01*
X0041455Y0034649D01*
X0041837Y0034547D01*
X0044093Y0034547D01*
X0044093Y0038500D01*
X0040534Y0038500D01*
X0040534Y0035850D01*
X0040636Y0035468D01*
X0040834Y0035126D01*
X0041011Y0034949D02*
X0006833Y0034949D01*
X0006833Y0033951D02*
X0061548Y0033951D01*
X0061280Y0034949D02*
X0055656Y0034949D01*
X0055254Y0034547D02*
X0056133Y0035426D01*
X0056133Y0042574D01*
X0055254Y0043453D01*
X0054073Y0043453D01*
X0054073Y0045350D01*
X0055254Y0045350D01*
X0056133Y0046229D01*
X0056133Y0048000D01*
X0059162Y0048000D01*
X0062162Y0051000D01*
X0064534Y0051000D01*
X0064534Y0049426D01*
X0065413Y0048547D01*
X0071774Y0048547D01*
X0072333Y0049107D01*
X0072893Y0048547D01*
X0079254Y0048547D01*
X0080133Y0049426D01*
X0080133Y0051000D01*
X0091534Y0051000D01*
X0091534Y0049670D01*
X0092413Y0048791D01*
X0097592Y0048791D01*
X0098471Y0049670D01*
X0098471Y0054850D01*
X0097911Y0055409D01*
X0098171Y0055670D01*
X0098369Y0056012D01*
X0098471Y0056393D01*
X0098471Y0058468D01*
X0095487Y0058468D01*
X0095487Y0059437D01*
X0098471Y0059437D01*
X0098471Y0061512D01*
X0098369Y0061894D01*
X0098171Y0062236D01*
X0097892Y0062515D01*
X0097550Y0062713D01*
X0097169Y0062815D01*
X0095487Y0062815D01*
X0095487Y0059437D01*
X0094518Y0059437D01*
X0094518Y0058468D01*
X0091534Y0058468D01*
X0091534Y0056393D01*
X0091636Y0056012D01*
X0091834Y0055670D01*
X0092094Y0055409D01*
X0091684Y0055000D01*
X0080133Y0055000D01*
X0080133Y0056574D01*
X0079254Y0057453D01*
X0072893Y0057453D01*
X0072333Y0056893D01*
X0071774Y0057453D01*
X0065413Y0057453D01*
X0064534Y0056574D01*
X0064534Y0055000D01*
X0060505Y0055000D01*
X0059333Y0053828D01*
X0057505Y0052000D01*
X0056133Y0052000D01*
X0056133Y0053771D01*
X0055254Y0054650D01*
X0048893Y0054650D01*
X0048333Y0054090D01*
X0047774Y0054650D01*
X0046833Y0054650D01*
X0046833Y0060257D01*
X0047333Y0060757D01*
X0048031Y0060059D01*
X0051636Y0060059D01*
X0052365Y0060788D01*
X0052452Y0060638D01*
X0052731Y0060359D01*
X0053073Y0060161D01*
X0053455Y0060059D01*
X0054743Y0060059D01*
X0054743Y0065799D01*
X0054924Y0065799D01*
X0054924Y0060059D01*
X0056212Y0060059D01*
X0056593Y0060161D01*
X0056935Y0060359D01*
X0057215Y0060638D01*
X0057302Y0060788D01*
X0058031Y0060059D01*
X0061636Y0060059D01*
X0062514Y0060938D01*
X0062514Y0063190D01*
X0066760Y0063190D01*
X0067753Y0063601D01*
X0073863Y0069711D01*
X0074622Y0070471D01*
X0075033Y0071463D01*
X0075033Y0075201D01*
X0075907Y0075201D01*
X0076786Y0076079D01*
X0076786Y0076560D01*
X0112870Y0076560D01*
X0113863Y0076971D01*
X0117093Y0080201D01*
X0120907Y0080201D01*
X0121786Y0081079D01*
X0121786Y0081300D01*
X0121870Y0081300D01*
X0122863Y0081711D01*
X0123622Y0082471D01*
X0128452Y0087300D01*
X0142368Y0087300D01*
X0142113Y0087153D01*
X0141834Y0086874D01*
X0141636Y0086532D01*
X0141534Y0086150D01*
X0141534Y0083500D01*
X0145093Y0083500D01*
X0145093Y0082500D01*
X0141534Y0082500D01*
X0141534Y0079850D01*
X0141636Y0079468D01*
X0141834Y0079126D01*
X0142113Y0078847D01*
X0142455Y0078649D01*
X0142837Y0078547D01*
X0145093Y0078547D01*
X0145093Y0082500D01*
X0146093Y0082500D01*
X0146093Y0078547D01*
X0148350Y0078547D01*
X0148731Y0078649D01*
X0149073Y0078847D01*
X0149333Y0079107D01*
X0149893Y0078547D01*
X0152333Y0078547D01*
X0152333Y0074365D01*
X0152238Y0074461D01*
X0146192Y0074461D01*
X0145472Y0073740D01*
X0124245Y0073740D01*
X0119505Y0069000D01*
X0118333Y0067828D01*
X0118333Y0064453D01*
X0116413Y0064453D01*
X0115534Y0063574D01*
X0115534Y0061740D01*
X0107133Y0061740D01*
X0107133Y0062330D01*
X0106254Y0063209D01*
X0101074Y0063209D01*
X0100196Y0062330D01*
X0100196Y0057150D01*
X0101074Y0056272D01*
X0106254Y0056272D01*
X0107133Y0057150D01*
X0107133Y0057740D01*
X0115534Y0057740D01*
X0115534Y0056426D01*
X0116413Y0055547D01*
X0117593Y0055547D01*
X0117593Y0053650D01*
X0116413Y0053650D01*
X0115534Y0052771D01*
X0115534Y0045229D01*
X0116413Y0044350D01*
X0122774Y0044350D01*
X0123333Y0044910D01*
X0123593Y0044650D01*
X0123935Y0044453D01*
X0124317Y0044350D01*
X0126573Y0044350D01*
X0126573Y0048500D01*
X0127573Y0048500D01*
X0127573Y0044350D01*
X0129830Y0044350D01*
X0130212Y0044453D01*
X0130554Y0044650D01*
X0130833Y0044929D01*
X0131030Y0045271D01*
X0131133Y0045653D01*
X0131133Y0048500D01*
X0127574Y0048500D01*
X0127574Y0049500D01*
X0131133Y0049500D01*
X0131133Y0052347D01*
X0131030Y0052729D01*
X0130833Y0053071D01*
X0130554Y0053350D01*
X0130212Y0053547D01*
X0129830Y0053650D01*
X0127573Y0053650D01*
X0127573Y0049500D01*
X0126573Y0049500D01*
X0126573Y0053650D01*
X0124317Y0053650D01*
X0123935Y0053547D01*
X0123593Y0053350D01*
X0123333Y0053090D01*
X0122774Y0053650D01*
X0121593Y0053650D01*
X0121593Y0055547D01*
X0122774Y0055547D01*
X0123333Y0056107D01*
X0123593Y0055847D01*
X0123935Y0055649D01*
X0124317Y0055547D01*
X0126573Y0055547D01*
X0126573Y0059500D01*
X0127573Y0059500D01*
X0127573Y0055547D01*
X0129830Y0055547D01*
X0130212Y0055649D01*
X0130554Y0055847D01*
X0130833Y0056126D01*
X0131030Y0056468D01*
X0131133Y0056850D01*
X0131133Y0059500D01*
X0127574Y0059500D01*
X0127574Y0060500D01*
X0131133Y0060500D01*
X0131133Y0063150D01*
X0131030Y0063532D01*
X0130833Y0063874D01*
X0130554Y0064153D01*
X0130212Y0064351D01*
X0129830Y0064453D01*
X0127573Y0064453D01*
X0127573Y0060500D01*
X0126573Y0060500D01*
X0126573Y0064453D01*
X0124317Y0064453D01*
X0123935Y0064351D01*
X0123593Y0064153D01*
X0123333Y0063893D01*
X0122774Y0064453D01*
X0122333Y0064453D01*
X0122333Y0066172D01*
X0125902Y0069740D01*
X0145400Y0069740D01*
X0145314Y0069418D01*
X0145314Y0068110D01*
X0149105Y0068110D01*
X0149105Y0067890D01*
X0145314Y0067890D01*
X0145314Y0066582D01*
X0145400Y0066260D01*
X0143765Y0066260D01*
X0141505Y0064000D01*
X0140333Y0062828D01*
X0140333Y0056799D01*
X0138562Y0056799D01*
X0137684Y0055921D01*
X0137684Y0049560D01*
X0138244Y0049000D01*
X0137983Y0048740D01*
X0137786Y0048398D01*
X0137684Y0048016D01*
X0137684Y0045760D01*
X0141833Y0045760D01*
X0141833Y0044760D01*
X0137684Y0044760D01*
X0137684Y0042503D01*
X0137786Y0042122D01*
X0137983Y0041780D01*
X0138263Y0041500D01*
X0138605Y0041303D01*
X0138986Y0041201D01*
X0141833Y0041201D01*
X0141833Y0044760D01*
X0142833Y0044760D01*
X0142833Y0041201D01*
X0145680Y0041201D01*
X0146062Y0041303D01*
X0146404Y0041500D01*
X0146683Y0041780D01*
X0146881Y0042122D01*
X0146983Y0042503D01*
X0146983Y0044760D01*
X0142833Y0044760D01*
X0142833Y0045760D01*
X0146983Y0045760D01*
X0146983Y0048016D01*
X0146881Y0048398D01*
X0146683Y0048740D01*
X0146423Y0049000D01*
X0146983Y0049560D01*
X0146983Y0055921D01*
X0146104Y0056799D01*
X0144333Y0056799D01*
X0144333Y0061172D01*
X0145422Y0062260D01*
X0145472Y0062260D01*
X0146192Y0061539D01*
X0152238Y0061539D01*
X0152333Y0061635D01*
X0152333Y0060650D01*
X0151413Y0060650D01*
X0150534Y0059771D01*
X0150534Y0052229D01*
X0151413Y0051350D01*
X0157774Y0051350D01*
X0158333Y0051910D01*
X0158893Y0051350D01*
X0165254Y0051350D01*
X0166133Y0052229D01*
X0166133Y0054260D01*
X0167534Y0054260D01*
X0167534Y0052229D01*
X0168413Y0051350D01*
X0174774Y0051350D01*
X0175333Y0051910D01*
X0175593Y0051650D01*
X0175935Y0051453D01*
X0176317Y0051350D01*
X0178573Y0051350D01*
X0178573Y0055500D01*
X0179573Y0055500D01*
X0179573Y0051350D01*
X0181830Y0051350D01*
X0182212Y0051453D01*
X0182554Y0051650D01*
X0182833Y0051929D01*
X0183030Y0052271D01*
X0183133Y0052653D01*
X0183133Y0055500D01*
X0179574Y0055500D01*
X0179574Y0056500D01*
X0183133Y0056500D01*
X0183133Y0059347D01*
X0183030Y0059729D01*
X0182833Y0060071D01*
X0182554Y0060350D01*
X0182212Y0060547D01*
X0181830Y0060650D01*
X0179573Y0060650D01*
X0179573Y0056500D01*
X0178573Y0056500D01*
X0178573Y0060650D01*
X0176317Y0060650D01*
X0175935Y0060547D01*
X0175593Y0060350D01*
X0175333Y0060090D01*
X0174774Y0060650D01*
X0168413Y0060650D01*
X0167534Y0059771D01*
X0167534Y0058260D01*
X0166133Y0058260D01*
X0166133Y0059771D01*
X0165254Y0060650D01*
X0164333Y0060650D01*
X0164333Y0063828D01*
X0163353Y0064809D01*
X0163353Y0066102D01*
X0163325Y0066130D01*
X0163353Y0066158D01*
X0163353Y0069740D01*
X0179765Y0069740D01*
X0181333Y0068172D01*
X0182505Y0067000D01*
X0187314Y0067000D01*
X0187314Y0066898D01*
X0188192Y0066020D01*
X0194238Y0066020D01*
X0195117Y0066898D01*
X0195117Y0070582D01*
X0194238Y0071461D01*
X0188192Y0071461D01*
X0187732Y0071000D01*
X0184162Y0071000D01*
X0181422Y0073740D01*
X0163195Y0073740D01*
X0162474Y0074461D01*
X0156429Y0074461D01*
X0156333Y0074365D01*
X0156333Y0078627D01*
X0157133Y0079426D01*
X0157133Y0086574D01*
X0156254Y0087453D01*
X0155502Y0087453D01*
X0155362Y0087789D01*
X0151622Y0091529D01*
X0150863Y0092289D01*
X0149870Y0092700D01*
X0130033Y0092700D01*
X0130033Y0096882D01*
X0131691Y0098539D01*
X0135238Y0098539D01*
X0136117Y0099418D01*
X0136117Y0100388D01*
X0136505Y0100000D01*
X0137245Y0099260D01*
X0138708Y0099260D01*
X0139429Y0098539D01*
X0145474Y0098539D01*
X0146353Y0099418D01*
X0146353Y0103102D01*
X0146251Y0103203D01*
X0146353Y0103582D01*
X0146353Y0104890D01*
X0142562Y0104890D01*
X0142562Y0105110D01*
X0146353Y0105110D01*
X0146353Y0106040D01*
X0148881Y0106040D01*
X0148881Y0105560D01*
X0149440Y0105000D01*
X0149180Y0104740D01*
X0148983Y0104398D01*
X0148881Y0104016D01*
X0148881Y0101760D01*
X0152833Y0101760D01*
X0152833Y0100760D01*
X0148881Y0100760D01*
X0148881Y0098503D01*
X0148983Y0098122D01*
X0149180Y0097780D01*
X0149460Y0097500D01*
X0149802Y0097303D01*
X0150183Y0097201D01*
X0152833Y0097201D01*
X0152833Y0100760D01*
X0153833Y0100760D01*
X0153833Y0097201D01*
X0156484Y0097201D01*
X0156865Y0097303D01*
X0157207Y0097500D01*
X0157486Y0097780D01*
X0157684Y0098122D01*
X0157786Y0098503D01*
X0157786Y0100760D01*
X0153833Y0100760D01*
X0153833Y0101760D01*
X0157786Y0101760D01*
X0157786Y0104016D01*
X0157684Y0104398D01*
X0157486Y0104740D01*
X0157226Y0105000D01*
X0157466Y0105240D01*
X0164200Y0105240D01*
X0164440Y0105000D01*
X0164180Y0104740D01*
X0163983Y0104398D01*
X0163881Y0104016D01*
X0163881Y0101760D01*
X0167833Y0101760D01*
X0167833Y0100760D01*
X0163881Y0100760D01*
X0163881Y0098503D01*
X0163983Y0098122D01*
X0164180Y0097780D01*
X0164460Y0097500D01*
X0164802Y0097303D01*
X0165183Y0097201D01*
X0167833Y0097201D01*
X0167833Y0100760D01*
X0168833Y0100760D01*
X0168833Y0097201D01*
X0171484Y0097201D01*
X0171865Y0097303D01*
X0172207Y0097500D01*
X0172486Y0097780D01*
X0172684Y0098122D01*
X0172786Y0098503D01*
X0172786Y0100760D01*
X0168833Y0100760D01*
X0168833Y0101760D01*
X0172786Y0101760D01*
X0172786Y0104016D01*
X0172684Y0104398D01*
X0172486Y0104740D01*
X0172226Y0105000D01*
X0172466Y0105240D01*
X0181518Y0105240D01*
X0181518Y0102859D01*
X0182397Y0101980D01*
X0194270Y0101980D01*
X0195148Y0102859D01*
X0195148Y0105000D01*
X0212548Y0105000D01*
X0212721Y0104582D01*
X0214915Y0102387D01*
X0217782Y0101200D01*
X0220885Y0101200D01*
X0223752Y0102387D01*
X0225946Y0104582D01*
X0227133Y0107448D01*
X0227133Y0110552D01*
X0225946Y0113418D01*
X0223752Y0115613D01*
X0220885Y0116800D01*
X0217782Y0116800D01*
X0214915Y0115613D01*
X0212721Y0113418D01*
X0212548Y0113000D01*
X0195148Y0113000D01*
X0195148Y0115716D01*
X0194270Y0116594D01*
X0192333Y0116594D01*
X0192333Y0123201D01*
X0194474Y0123201D01*
X0195353Y0124079D01*
X0195353Y0137921D01*
X0194474Y0138799D01*
X0186145Y0138799D01*
X0185266Y0137921D01*
X0185266Y0131614D01*
X0184942Y0131289D01*
X0184333Y0129819D01*
X0184333Y0116594D01*
X0182397Y0116594D01*
X0181518Y0115716D01*
X0181518Y0112240D01*
X0172466Y0112240D01*
X0171907Y0112799D01*
X0164759Y0112799D01*
X0164200Y0112240D01*
X0157466Y0112240D01*
X0156907Y0112799D01*
X0149759Y0112799D01*
X0148881Y0111921D01*
X0148881Y0111440D01*
X0145495Y0111440D01*
X0145474Y0111461D01*
X0139429Y0111461D01*
X0138968Y0111000D01*
X0137505Y0111000D01*
X0136333Y0109828D01*
X0136117Y0109612D01*
X0136117Y0110582D01*
X0135238Y0111461D01*
X0129192Y0111461D01*
X0129172Y0111440D01*
X0121786Y0111440D01*
X0121786Y0111921D01*
X0120907Y0112799D01*
X0113759Y0112799D01*
X0112881Y0111921D01*
X0112881Y0105560D01*
X0113440Y0105000D01*
X0113180Y0104740D01*
X0112983Y0104398D01*
X0112881Y0104016D01*
X0112881Y0101760D01*
X0116833Y0101760D01*
X0116833Y0100760D01*
X0112881Y0100760D01*
X0112881Y0098503D01*
X0112983Y0098122D01*
X0113180Y0097780D01*
X0113460Y0097500D01*
X0113802Y0097303D01*
X0114183Y0097201D01*
X0116833Y0097201D01*
X0116833Y0100760D01*
X0117833Y0100760D01*
X0117833Y0097201D01*
X0120484Y0097201D01*
X0120865Y0097303D01*
X0121207Y0097500D01*
X0121486Y0097780D01*
X0121684Y0098122D01*
X0121786Y0098503D01*
X0121786Y0100760D01*
X0117833Y0100760D01*
X0117833Y0101760D01*
X0121786Y0101760D01*
X0121786Y0104016D01*
X0121684Y0104398D01*
X0121486Y0104740D01*
X0121226Y0105000D01*
X0121786Y0105560D01*
X0121786Y0106040D01*
X0129172Y0106040D01*
X0129192Y0106020D01*
X0135238Y0106020D01*
X0135333Y0106115D01*
X0135333Y0103885D01*
X0135238Y0103980D01*
X0129192Y0103980D01*
X0128314Y0103102D01*
X0128314Y0102799D01*
X0125804Y0100289D01*
X0125044Y0099529D01*
X0124633Y0098537D01*
X0124633Y0091118D01*
X0121371Y0087856D01*
X0121226Y0088000D01*
X0121486Y0088260D01*
X0121684Y0088602D01*
X0121786Y0088984D01*
X0121786Y0091240D01*
X0117833Y0091240D01*
X0117833Y0092240D01*
X0116833Y0092240D01*
X0116833Y0091240D01*
X0112881Y0091240D01*
X0112881Y0088984D01*
X0112983Y0088602D01*
X0113180Y0088260D01*
X0113440Y0088000D01*
X0112881Y0087440D01*
X0112881Y0083625D01*
X0111215Y0081960D01*
X0076786Y0081960D01*
X0076786Y0082440D01*
X0076226Y0083000D01*
X0076486Y0083260D01*
X0076684Y0083602D01*
X0076786Y0083984D01*
X0076786Y0086240D01*
X0072833Y0086240D01*
X0072833Y0087240D01*
X0071833Y0087240D01*
X0071833Y0086240D01*
X0067881Y0086240D01*
X0067881Y0083984D01*
X0067983Y0083602D01*
X0068180Y0083260D01*
X0068440Y0083000D01*
X0067881Y0082440D01*
X0067881Y0076079D01*
X0068759Y0075201D01*
X0069633Y0075201D01*
X0069633Y0073118D01*
X0065105Y0068590D01*
X0062514Y0068590D01*
X0062514Y0070842D01*
X0061636Y0071720D01*
X0058031Y0071720D01*
X0057302Y0070991D01*
X0057215Y0071141D01*
X0056935Y0071421D01*
X0056593Y0071618D01*
X0056212Y0071720D01*
X0054924Y0071720D01*
X0054924Y0065980D01*
X0054743Y0065980D01*
X0054743Y0071720D01*
X0053455Y0071720D01*
X0053073Y0071618D01*
X0052731Y0071421D01*
X0052452Y0071141D01*
X0052365Y0070991D01*
X0051636Y0071720D01*
X0048031Y0071720D01*
X0047333Y0071023D01*
X0046636Y0071720D01*
X0043031Y0071720D01*
X0042333Y0071023D01*
X0041636Y0071720D01*
X0038031Y0071720D01*
X0037333Y0071023D01*
X0036636Y0071720D01*
X0033031Y0071720D01*
X0032333Y0071023D01*
X0031636Y0071720D01*
X0028031Y0071720D01*
X0027333Y0071023D01*
X0026636Y0071720D01*
X0023031Y0071720D01*
X0022152Y0070842D01*
X0022152Y0060938D01*
X0023031Y0060059D01*
X0026636Y0060059D01*
X0027333Y0060757D01*
X0028031Y0060059D01*
X0031636Y0060059D01*
X0032333Y0060757D01*
X0033031Y0060059D01*
X0036636Y0060059D01*
X0037333Y0060757D01*
X0038031Y0060059D01*
X0041636Y0060059D01*
X0042333Y0060757D01*
X0042833Y0060257D01*
X0042833Y0054650D01*
X0041413Y0054650D01*
X0040534Y0053771D01*
X0040534Y0046229D01*
X0041413Y0045350D01*
X0047774Y0045350D01*
X0048333Y0045910D01*
X0048893Y0045350D01*
X0050073Y0045350D01*
X0050073Y0043453D01*
X0048893Y0043453D01*
X0048333Y0042893D01*
X0048073Y0043153D01*
X0047731Y0043351D01*
X0047350Y0043453D01*
X0045093Y0043453D01*
X0045093Y0039500D01*
X0044093Y0039500D01*
X0044093Y0038500D01*
X0045093Y0038500D01*
X0045093Y0034547D01*
X0047350Y0034547D01*
X0047731Y0034649D01*
X0048073Y0034847D01*
X0048333Y0035107D01*
X0048893Y0034547D01*
X0055254Y0034547D01*
X0056133Y0035948D02*
X0061083Y0035948D01*
X0061083Y0036946D02*
X0056133Y0036946D01*
X0056133Y0037945D02*
X0061083Y0037945D01*
X0061198Y0038943D02*
X0056133Y0038943D01*
X0056133Y0039942D02*
X0061466Y0039942D01*
X0061733Y0040940D02*
X0056133Y0040940D01*
X0056133Y0041939D02*
X0062214Y0041939D01*
X0062791Y0042937D02*
X0055769Y0042937D01*
X0054073Y0043936D02*
X0063467Y0043936D01*
X0064465Y0044934D02*
X0054073Y0044934D01*
X0055836Y0045933D02*
X0065633Y0045933D01*
X0067362Y0046932D02*
X0056133Y0046932D01*
X0056133Y0047930D02*
X0115534Y0047930D01*
X0115534Y0046932D02*
X0076305Y0046932D01*
X0078034Y0045933D02*
X0115534Y0045933D01*
X0115829Y0044934D02*
X0079202Y0044934D01*
X0080200Y0043936D02*
X0137684Y0043936D01*
X0137684Y0042937D02*
X0080876Y0042937D01*
X0081453Y0041939D02*
X0137892Y0041939D01*
X0141833Y0041939D02*
X0142833Y0041939D01*
X0142833Y0042937D02*
X0141833Y0042937D01*
X0141833Y0043936D02*
X0142833Y0043936D01*
X0142833Y0044934D02*
X0151965Y0044934D01*
X0150967Y0043936D02*
X0146983Y0043936D01*
X0146983Y0042937D02*
X0150291Y0042937D01*
X0149714Y0041939D02*
X0146775Y0041939D01*
X0149233Y0040940D02*
X0081934Y0040940D01*
X0082201Y0039942D02*
X0148966Y0039942D01*
X0148698Y0038943D02*
X0082469Y0038943D01*
X0082583Y0037945D02*
X0148583Y0037945D01*
X0148583Y0036946D02*
X0082583Y0036946D01*
X0082583Y0035948D02*
X0148583Y0035948D01*
X0148780Y0034949D02*
X0082386Y0034949D01*
X0082119Y0033951D02*
X0149048Y0033951D01*
X0149315Y0032952D02*
X0081851Y0032952D01*
X0081275Y0031954D02*
X0149891Y0031954D01*
X0150468Y0030955D02*
X0080699Y0030955D01*
X0079893Y0029957D02*
X0151274Y0029957D01*
X0152272Y0028958D02*
X0078894Y0028958D01*
X0064772Y0028958D02*
X0006833Y0028958D01*
X0006833Y0029957D02*
X0063774Y0029957D01*
X0062968Y0030955D02*
X0006833Y0030955D01*
X0006833Y0031954D02*
X0062391Y0031954D01*
X0061815Y0032952D02*
X0006833Y0032952D01*
X0006833Y0035948D02*
X0040534Y0035948D01*
X0040534Y0036946D02*
X0006833Y0036946D01*
X0006833Y0037945D02*
X0040534Y0037945D01*
X0040534Y0039500D02*
X0044093Y0039500D01*
X0044093Y0043453D01*
X0041837Y0043453D01*
X0041455Y0043351D01*
X0041113Y0043153D01*
X0040834Y0042874D01*
X0040636Y0042532D01*
X0040534Y0042150D01*
X0040534Y0039500D01*
X0040534Y0039942D02*
X0006833Y0039942D01*
X0006833Y0040940D02*
X0040534Y0040940D01*
X0040534Y0041939D02*
X0006833Y0041939D01*
X0006833Y0042937D02*
X0040898Y0042937D01*
X0044093Y0042937D02*
X0045093Y0042937D01*
X0045093Y0041939D02*
X0044093Y0041939D01*
X0044093Y0040940D02*
X0045093Y0040940D01*
X0045093Y0039942D02*
X0044093Y0039942D01*
X0044093Y0038943D02*
X0006833Y0038943D01*
X0006833Y0043936D02*
X0050073Y0043936D01*
X0050073Y0044934D02*
X0006833Y0044934D01*
X0006833Y0045933D02*
X0040830Y0045933D01*
X0040534Y0046932D02*
X0006833Y0046932D01*
X0006833Y0047930D02*
X0040534Y0047930D01*
X0040534Y0048929D02*
X0006833Y0048929D01*
X0006833Y0049927D02*
X0040534Y0049927D01*
X0040534Y0050926D02*
X0006833Y0050926D01*
X0006833Y0051924D02*
X0040534Y0051924D01*
X0040534Y0052923D02*
X0006833Y0052923D01*
X0006833Y0053921D02*
X0040684Y0053921D01*
X0042833Y0054920D02*
X0006833Y0054920D01*
X0006833Y0055918D02*
X0042833Y0055918D01*
X0042833Y0056917D02*
X0006833Y0056917D01*
X0006833Y0057915D02*
X0042833Y0057915D01*
X0042833Y0058914D02*
X0006833Y0058914D01*
X0006833Y0059912D02*
X0042833Y0059912D01*
X0046833Y0059912D02*
X0091534Y0059912D01*
X0091534Y0059437D02*
X0094518Y0059437D01*
X0094518Y0062815D01*
X0092837Y0062815D01*
X0092455Y0062713D01*
X0092113Y0062515D01*
X0091834Y0062236D01*
X0091636Y0061894D01*
X0091534Y0061512D01*
X0091534Y0059437D01*
X0091534Y0060911D02*
X0062487Y0060911D01*
X0062514Y0061909D02*
X0091645Y0061909D01*
X0094518Y0061909D02*
X0095487Y0061909D01*
X0095487Y0060911D02*
X0094518Y0060911D01*
X0094518Y0059912D02*
X0095487Y0059912D01*
X0095487Y0058914D02*
X0100196Y0058914D01*
X0100196Y0059912D02*
X0098471Y0059912D01*
X0098471Y0060911D02*
X0100196Y0060911D01*
X0100196Y0061909D02*
X0098360Y0061909D01*
X0100773Y0062908D02*
X0062514Y0062908D01*
X0068058Y0063906D02*
X0115866Y0063906D01*
X0115534Y0062908D02*
X0106555Y0062908D01*
X0107133Y0061909D02*
X0115534Y0061909D01*
X0118333Y0064905D02*
X0069056Y0064905D01*
X0070055Y0065903D02*
X0118333Y0065903D01*
X0118333Y0066902D02*
X0071053Y0066902D01*
X0072052Y0067900D02*
X0118405Y0067900D01*
X0119404Y0068899D02*
X0073050Y0068899D01*
X0074049Y0069897D02*
X0120402Y0069897D01*
X0121401Y0070896D02*
X0074798Y0070896D01*
X0075033Y0071894D02*
X0122399Y0071894D01*
X0123398Y0072893D02*
X0075033Y0072893D01*
X0075033Y0073891D02*
X0145623Y0073891D01*
X0149215Y0071740D02*
X0125073Y0071740D01*
X0120333Y0067000D01*
X0120333Y0060740D01*
X0119593Y0060000D01*
X0119593Y0049000D01*
X0115534Y0048929D02*
X0106272Y0048929D01*
X0106212Y0048894D02*
X0106554Y0049091D01*
X0106833Y0049370D01*
X0107030Y0049712D01*
X0107133Y0050094D01*
X0107133Y0051776D01*
X0104148Y0051776D01*
X0104148Y0048791D01*
X0105830Y0048791D01*
X0106212Y0048894D01*
X0107088Y0049927D02*
X0115534Y0049927D01*
X0115534Y0050926D02*
X0107133Y0050926D01*
X0107133Y0052744D02*
X0104148Y0052744D01*
X0103180Y0052744D01*
X0103180Y0055728D01*
X0101498Y0055728D01*
X0101117Y0055626D01*
X0100775Y0055429D01*
X0100495Y0055149D01*
X0100298Y0054807D01*
X0100196Y0054426D01*
X0100196Y0052744D01*
X0103180Y0052744D01*
X0103180Y0051776D01*
X0100196Y0051776D01*
X0100196Y0050094D01*
X0100298Y0049712D01*
X0100495Y0049370D01*
X0100775Y0049091D01*
X0101117Y0048894D01*
X0101498Y0048791D01*
X0103180Y0048791D01*
X0103180Y0051776D01*
X0104148Y0051776D01*
X0104148Y0052744D01*
X0104148Y0055728D01*
X0105830Y0055728D01*
X0106212Y0055626D01*
X0106554Y0055429D01*
X0106833Y0055149D01*
X0107030Y0054807D01*
X0107133Y0054426D01*
X0107133Y0052744D01*
X0107133Y0052923D02*
X0115686Y0052923D01*
X0115534Y0051924D02*
X0104148Y0051924D01*
X0103180Y0051924D02*
X0098471Y0051924D01*
X0098471Y0050926D02*
X0100196Y0050926D01*
X0100240Y0049927D02*
X0098471Y0049927D01*
X0097730Y0048929D02*
X0101056Y0048929D01*
X0103180Y0048929D02*
X0104148Y0048929D01*
X0104148Y0049927D02*
X0103180Y0049927D01*
X0103180Y0050926D02*
X0104148Y0050926D01*
X0104148Y0052923D02*
X0103180Y0052923D01*
X0103180Y0053921D02*
X0104148Y0053921D01*
X0104148Y0054920D02*
X0103180Y0054920D01*
X0100363Y0054920D02*
X0098401Y0054920D01*
X0098471Y0053921D02*
X0100196Y0053921D01*
X0100196Y0052923D02*
X0098471Y0052923D01*
X0095003Y0052260D02*
X0094262Y0053000D01*
X0076073Y0053000D01*
X0080133Y0050926D02*
X0091534Y0050926D01*
X0091534Y0049927D02*
X0080133Y0049927D01*
X0079635Y0048929D02*
X0092276Y0048929D01*
X0091690Y0055918D02*
X0080133Y0055918D01*
X0079790Y0056917D02*
X0091534Y0056917D01*
X0091534Y0057915D02*
X0046833Y0057915D01*
X0046833Y0056917D02*
X0064877Y0056917D01*
X0064534Y0055918D02*
X0046833Y0055918D01*
X0046833Y0054920D02*
X0060425Y0054920D01*
X0059426Y0053921D02*
X0055982Y0053921D01*
X0056133Y0052923D02*
X0058427Y0052923D01*
X0061333Y0053000D02*
X0058333Y0050000D01*
X0052073Y0050000D01*
X0052073Y0039000D01*
X0048378Y0042937D02*
X0048289Y0042937D01*
X0045093Y0037945D02*
X0044093Y0037945D01*
X0044093Y0036946D02*
X0045093Y0036946D01*
X0045093Y0035948D02*
X0044093Y0035948D01*
X0044093Y0034949D02*
X0045093Y0034949D01*
X0048176Y0034949D02*
X0048491Y0034949D01*
X0060090Y0048929D02*
X0065031Y0048929D01*
X0064534Y0049927D02*
X0061089Y0049927D01*
X0062087Y0050926D02*
X0064534Y0050926D01*
X0061333Y0053000D02*
X0068593Y0053000D01*
X0072310Y0056917D02*
X0072357Y0056917D01*
X0072512Y0048929D02*
X0072155Y0048929D01*
X0054924Y0060911D02*
X0054743Y0060911D01*
X0054743Y0061909D02*
X0054924Y0061909D01*
X0054924Y0062908D02*
X0054743Y0062908D01*
X0054743Y0063906D02*
X0054924Y0063906D01*
X0054924Y0064905D02*
X0054743Y0064905D01*
X0054743Y0066902D02*
X0054924Y0066902D01*
X0054924Y0067900D02*
X0054743Y0067900D01*
X0054743Y0068899D02*
X0054924Y0068899D01*
X0054924Y0069897D02*
X0054743Y0069897D01*
X0054743Y0070896D02*
X0054924Y0070896D01*
X0062460Y0070896D02*
X0067411Y0070896D01*
X0068409Y0071894D02*
X0006833Y0071894D01*
X0006833Y0070896D02*
X0022206Y0070896D01*
X0022152Y0069897D02*
X0006833Y0069897D01*
X0006833Y0068899D02*
X0022152Y0068899D01*
X0022152Y0067900D02*
X0006833Y0067900D01*
X0006833Y0066902D02*
X0022152Y0066902D01*
X0022152Y0065903D02*
X0006833Y0065903D01*
X0006833Y0064905D02*
X0022152Y0064905D01*
X0022152Y0063906D02*
X0006833Y0063906D01*
X0006833Y0062908D02*
X0022152Y0062908D01*
X0022152Y0061909D02*
X0006833Y0061909D01*
X0006833Y0060911D02*
X0022179Y0060911D01*
X0006833Y0072893D02*
X0069408Y0072893D01*
X0069633Y0073891D02*
X0006833Y0073891D01*
X0006833Y0074890D02*
X0069633Y0074890D01*
X0068072Y0075888D02*
X0006833Y0075888D01*
X0006833Y0076887D02*
X0067881Y0076887D01*
X0067881Y0077885D02*
X0006833Y0077885D01*
X0006833Y0078884D02*
X0067881Y0078884D01*
X0067881Y0079882D02*
X0006833Y0079882D01*
X0006833Y0080881D02*
X0067881Y0080881D01*
X0067881Y0081879D02*
X0006833Y0081879D01*
X0006833Y0082878D02*
X0068318Y0082878D01*
X0067909Y0083876D02*
X0006833Y0083876D01*
X0006833Y0084875D02*
X0067881Y0084875D01*
X0067881Y0085873D02*
X0006833Y0085873D01*
X0006833Y0086872D02*
X0071833Y0086872D01*
X0071833Y0087240D02*
X0067881Y0087240D01*
X0067881Y0089497D01*
X0067983Y0089878D01*
X0068180Y0090220D01*
X0068460Y0090499D01*
X0068802Y0090697D01*
X0069183Y0090799D01*
X0071833Y0090799D01*
X0071833Y0087240D01*
X0071833Y0087870D02*
X0072833Y0087870D01*
X0072833Y0087240D02*
X0072833Y0090799D01*
X0075484Y0090799D01*
X0075865Y0090697D01*
X0076207Y0090499D01*
X0076486Y0090220D01*
X0076684Y0089878D01*
X0076786Y0089497D01*
X0076786Y0087240D01*
X0072833Y0087240D01*
X0072833Y0086872D02*
X0112881Y0086872D01*
X0112881Y0085873D02*
X0076786Y0085873D01*
X0076786Y0084875D02*
X0112881Y0084875D01*
X0112881Y0083876D02*
X0076757Y0083876D01*
X0076348Y0082878D02*
X0112133Y0082878D01*
X0115776Y0078884D02*
X0142076Y0078884D01*
X0141534Y0079882D02*
X0116774Y0079882D01*
X0114777Y0077885D02*
X0152333Y0077885D01*
X0152333Y0076887D02*
X0113660Y0076887D01*
X0121588Y0080881D02*
X0141534Y0080881D01*
X0141534Y0081879D02*
X0123031Y0081879D01*
X0124030Y0082878D02*
X0145093Y0082878D01*
X0145093Y0081879D02*
X0146093Y0081879D01*
X0146093Y0080881D02*
X0145093Y0080881D01*
X0145093Y0079882D02*
X0146093Y0079882D01*
X0146093Y0078884D02*
X0145093Y0078884D01*
X0149110Y0078884D02*
X0149556Y0078884D01*
X0152333Y0075888D02*
X0076595Y0075888D01*
X0075033Y0074890D02*
X0152333Y0074890D01*
X0156333Y0074890D02*
X0207372Y0074890D01*
X0207333Y0074796D02*
X0207333Y0073818D01*
X0206044Y0072529D01*
X0205633Y0071537D01*
X0205633Y0069118D01*
X0204235Y0067720D01*
X0198429Y0067720D01*
X0197550Y0066842D01*
X0197550Y0063158D01*
X0198429Y0062280D01*
X0204474Y0062280D01*
X0204495Y0062300D01*
X0205870Y0062300D01*
X0206863Y0062711D01*
X0209863Y0065711D01*
X0210622Y0066471D01*
X0211033Y0067463D01*
X0211033Y0069882D01*
X0211152Y0070000D01*
X0242548Y0070000D01*
X0242721Y0069582D01*
X0244915Y0067387D01*
X0247782Y0066200D01*
X0250885Y0066200D01*
X0253752Y0067387D01*
X0255946Y0069582D01*
X0257133Y0072448D01*
X0257133Y0075552D01*
X0255946Y0078418D01*
X0253752Y0080613D01*
X0250885Y0081800D01*
X0247782Y0081800D01*
X0244915Y0080613D01*
X0242721Y0078418D01*
X0242548Y0078000D01*
X0210538Y0078000D01*
X0209068Y0077391D01*
X0207942Y0076266D01*
X0207333Y0074796D01*
X0207333Y0073891D02*
X0163044Y0073891D01*
X0159451Y0071740D02*
X0180593Y0071740D01*
X0183333Y0069000D01*
X0190955Y0069000D01*
X0191215Y0068740D01*
X0187314Y0066902D02*
X0163353Y0066902D01*
X0163353Y0067900D02*
X0181605Y0067900D01*
X0180606Y0068899D02*
X0163353Y0068899D01*
X0159451Y0068000D02*
X0155333Y0068000D01*
X0154333Y0067000D01*
X0154333Y0056260D01*
X0154593Y0056000D01*
X0150534Y0055918D02*
X0146983Y0055918D01*
X0146983Y0054920D02*
X0150534Y0054920D01*
X0150534Y0053921D02*
X0146983Y0053921D01*
X0146983Y0052923D02*
X0150534Y0052923D01*
X0150839Y0051924D02*
X0146983Y0051924D01*
X0146983Y0050926D02*
X0262833Y0050926D01*
X0262833Y0051924D02*
X0222633Y0051924D01*
X0222791Y0051989D02*
X0223676Y0052501D01*
X0224487Y0053123D01*
X0225210Y0053846D01*
X0225833Y0054657D01*
X0226344Y0055543D01*
X0226735Y0056487D01*
X0227000Y0057475D01*
X0227133Y0058489D01*
X0227133Y0058500D01*
X0219833Y0058500D01*
X0219833Y0051200D01*
X0219845Y0051200D01*
X0220858Y0051333D01*
X0221846Y0051598D01*
X0222791Y0051989D01*
X0224226Y0052923D02*
X0262833Y0052923D01*
X0262833Y0053921D02*
X0225268Y0053921D01*
X0225984Y0054920D02*
X0262833Y0054920D01*
X0262833Y0055918D02*
X0226499Y0055918D01*
X0226850Y0056917D02*
X0262833Y0056917D01*
X0262833Y0057915D02*
X0227058Y0057915D01*
X0227133Y0059500D02*
X0227133Y0059511D01*
X0227000Y0060525D01*
X0226735Y0061513D01*
X0226344Y0062457D01*
X0225833Y0063343D01*
X0225210Y0064154D01*
X0224487Y0064877D01*
X0223676Y0065499D01*
X0222791Y0066011D01*
X0221846Y0066402D01*
X0220858Y0066667D01*
X0219845Y0066800D01*
X0219833Y0066800D01*
X0219833Y0059500D01*
X0218833Y0059500D01*
X0218833Y0058500D01*
X0211533Y0058500D01*
X0211533Y0058489D01*
X0211667Y0057475D01*
X0211931Y0056487D01*
X0212323Y0055543D01*
X0212834Y0054657D01*
X0213456Y0053846D01*
X0214179Y0053123D01*
X0214991Y0052501D01*
X0215876Y0051989D01*
X0216821Y0051598D01*
X0217808Y0051333D01*
X0218822Y0051200D01*
X0218833Y0051200D01*
X0218833Y0058500D01*
X0219833Y0058500D01*
X0219833Y0059500D01*
X0227133Y0059500D01*
X0227081Y0059912D02*
X0262833Y0059912D01*
X0262833Y0058914D02*
X0219833Y0058914D01*
X0219833Y0059912D02*
X0218833Y0059912D01*
X0218833Y0059500D02*
X0218833Y0066800D01*
X0218822Y0066800D01*
X0217808Y0066667D01*
X0216821Y0066402D01*
X0215876Y0066011D01*
X0214991Y0065499D01*
X0214179Y0064877D01*
X0213456Y0064154D01*
X0212834Y0063343D01*
X0212323Y0062457D01*
X0211931Y0061513D01*
X0211667Y0060525D01*
X0211533Y0059511D01*
X0211533Y0059500D01*
X0218833Y0059500D01*
X0218833Y0058914D02*
X0194612Y0058914D01*
X0194538Y0058839D02*
X0194817Y0059118D01*
X0195015Y0059460D01*
X0195117Y0059842D01*
X0195117Y0061150D01*
X0191326Y0061150D01*
X0191326Y0061370D01*
X0195117Y0061370D01*
X0195117Y0062678D01*
X0195015Y0063059D01*
X0194817Y0063401D01*
X0194538Y0063681D01*
X0194196Y0063878D01*
X0193814Y0063980D01*
X0191325Y0063980D01*
X0191325Y0061370D01*
X0191105Y0061370D01*
X0191105Y0061150D01*
X0187314Y0061150D01*
X0187314Y0059842D01*
X0187416Y0059460D01*
X0187613Y0059118D01*
X0187893Y0058839D01*
X0188235Y0058642D01*
X0188616Y0058539D01*
X0191105Y0058539D01*
X0191105Y0061150D01*
X0191325Y0061150D01*
X0191325Y0058539D01*
X0193814Y0058539D01*
X0194196Y0058642D01*
X0194538Y0058839D01*
X0195117Y0059912D02*
X0211586Y0059912D01*
X0211770Y0060911D02*
X0195117Y0060911D01*
X0195117Y0061909D02*
X0212096Y0061909D01*
X0212583Y0062908D02*
X0207059Y0062908D01*
X0208058Y0063906D02*
X0213266Y0063906D01*
X0214216Y0064905D02*
X0209056Y0064905D01*
X0210055Y0065903D02*
X0215690Y0065903D01*
X0218833Y0065903D02*
X0219833Y0065903D01*
X0219833Y0064905D02*
X0218833Y0064905D01*
X0218833Y0063906D02*
X0219833Y0063906D01*
X0219833Y0062908D02*
X0218833Y0062908D01*
X0218833Y0061909D02*
X0219833Y0061909D01*
X0219833Y0060911D02*
X0218833Y0060911D01*
X0218833Y0057915D02*
X0219833Y0057915D01*
X0219833Y0056917D02*
X0218833Y0056917D01*
X0218833Y0055918D02*
X0219833Y0055918D01*
X0219833Y0054920D02*
X0218833Y0054920D01*
X0218833Y0053921D02*
X0219833Y0053921D01*
X0219833Y0052923D02*
X0218833Y0052923D01*
X0218833Y0051924D02*
X0219833Y0051924D01*
X0216034Y0051924D02*
X0182828Y0051924D01*
X0183133Y0052923D02*
X0214441Y0052923D01*
X0213399Y0053921D02*
X0183133Y0053921D01*
X0183133Y0054920D02*
X0212682Y0054920D01*
X0212167Y0055918D02*
X0179574Y0055918D01*
X0179573Y0054920D02*
X0178573Y0054920D01*
X0178573Y0053921D02*
X0179573Y0053921D01*
X0179573Y0052923D02*
X0178573Y0052923D01*
X0178573Y0051924D02*
X0179573Y0051924D01*
X0179573Y0056917D02*
X0178573Y0056917D01*
X0178573Y0057915D02*
X0179573Y0057915D01*
X0179573Y0058914D02*
X0178573Y0058914D01*
X0178573Y0059912D02*
X0179573Y0059912D01*
X0182924Y0059912D02*
X0187314Y0059912D01*
X0187314Y0060911D02*
X0164333Y0060911D01*
X0164333Y0061909D02*
X0187314Y0061909D01*
X0187314Y0061370D02*
X0191105Y0061370D01*
X0191105Y0063980D01*
X0188616Y0063980D01*
X0188235Y0063878D01*
X0187893Y0063681D01*
X0187613Y0063401D01*
X0187416Y0063059D01*
X0187314Y0062678D01*
X0187314Y0061370D01*
X0187375Y0062908D02*
X0164333Y0062908D01*
X0164256Y0063906D02*
X0188340Y0063906D01*
X0191105Y0063906D02*
X0191325Y0063906D01*
X0191325Y0062908D02*
X0191105Y0062908D01*
X0191105Y0061909D02*
X0191325Y0061909D01*
X0191325Y0060911D02*
X0191105Y0060911D01*
X0191105Y0059912D02*
X0191325Y0059912D01*
X0191325Y0058914D02*
X0191105Y0058914D01*
X0187818Y0058914D02*
X0183133Y0058914D01*
X0183133Y0057915D02*
X0211609Y0057915D01*
X0211816Y0056917D02*
X0183133Y0056917D01*
X0171593Y0056000D02*
X0171333Y0056260D01*
X0162333Y0056260D01*
X0162073Y0056000D01*
X0162333Y0056260D02*
X0162333Y0063000D01*
X0161073Y0064260D01*
X0159451Y0064260D01*
X0163353Y0064905D02*
X0197550Y0064905D01*
X0197550Y0065903D02*
X0163353Y0065903D01*
X0165991Y0059912D02*
X0167675Y0059912D01*
X0167534Y0058914D02*
X0166133Y0058914D01*
X0166133Y0053921D02*
X0167534Y0053921D01*
X0167534Y0052923D02*
X0166133Y0052923D01*
X0165828Y0051924D02*
X0167839Y0051924D01*
X0163805Y0046932D02*
X0262833Y0046932D01*
X0262833Y0047930D02*
X0146983Y0047930D01*
X0146983Y0046932D02*
X0154862Y0046932D01*
X0153133Y0045933D02*
X0146983Y0045933D01*
X0146495Y0048929D02*
X0262833Y0048929D01*
X0262833Y0049927D02*
X0146983Y0049927D01*
X0142333Y0052740D02*
X0142333Y0062000D01*
X0144593Y0064260D01*
X0149215Y0064260D01*
X0145822Y0061909D02*
X0145071Y0061909D01*
X0144333Y0060911D02*
X0152333Y0060911D01*
X0150675Y0059912D02*
X0144333Y0059912D01*
X0144333Y0058914D02*
X0150534Y0058914D01*
X0150534Y0057915D02*
X0144333Y0057915D01*
X0144333Y0056917D02*
X0150534Y0056917D01*
X0140333Y0056917D02*
X0131133Y0056917D01*
X0131133Y0057915D02*
X0140333Y0057915D01*
X0140333Y0058914D02*
X0131133Y0058914D01*
X0131133Y0060911D02*
X0140333Y0060911D01*
X0140333Y0061909D02*
X0131133Y0061909D01*
X0131133Y0062908D02*
X0140413Y0062908D01*
X0141411Y0063906D02*
X0130800Y0063906D01*
X0127573Y0063906D02*
X0126573Y0063906D01*
X0126573Y0062908D02*
X0127573Y0062908D01*
X0127573Y0061909D02*
X0126573Y0061909D01*
X0126573Y0060911D02*
X0127573Y0060911D01*
X0127574Y0059912D02*
X0140333Y0059912D01*
X0137684Y0055918D02*
X0130625Y0055918D01*
X0127573Y0055918D02*
X0126573Y0055918D01*
X0126573Y0056917D02*
X0127573Y0056917D01*
X0127573Y0057915D02*
X0126573Y0057915D01*
X0126573Y0058914D02*
X0127573Y0058914D01*
X0123522Y0055918D02*
X0123144Y0055918D01*
X0121593Y0054920D02*
X0137684Y0054920D01*
X0137684Y0053921D02*
X0121593Y0053921D01*
X0126573Y0052923D02*
X0127573Y0052923D01*
X0127573Y0051924D02*
X0126573Y0051924D01*
X0126573Y0050926D02*
X0127573Y0050926D01*
X0127573Y0049927D02*
X0126573Y0049927D01*
X0127574Y0048929D02*
X0138172Y0048929D01*
X0137684Y0049927D02*
X0131133Y0049927D01*
X0131133Y0050926D02*
X0137684Y0050926D01*
X0137684Y0051924D02*
X0131133Y0051924D01*
X0130918Y0052923D02*
X0137684Y0052923D01*
X0137684Y0047930D02*
X0131133Y0047930D01*
X0131133Y0046932D02*
X0137684Y0046932D01*
X0137684Y0045933D02*
X0131133Y0045933D01*
X0130836Y0044934D02*
X0141833Y0044934D01*
X0127573Y0044934D02*
X0126573Y0044934D01*
X0126573Y0045933D02*
X0127573Y0045933D01*
X0127573Y0046932D02*
X0126573Y0046932D01*
X0126573Y0047930D02*
X0127573Y0047930D01*
X0117593Y0053921D02*
X0107133Y0053921D01*
X0106965Y0054920D02*
X0117593Y0054920D01*
X0116042Y0055918D02*
X0098315Y0055918D01*
X0098471Y0056917D02*
X0100429Y0056917D01*
X0100196Y0057915D02*
X0098471Y0057915D01*
X0094518Y0058914D02*
X0046833Y0058914D01*
X0044833Y0065890D02*
X0044833Y0050240D01*
X0044593Y0050000D01*
X0062514Y0068899D02*
X0065414Y0068899D01*
X0066412Y0069897D02*
X0062514Y0069897D01*
X0067881Y0087870D02*
X0006833Y0087870D01*
X0006833Y0088869D02*
X0067881Y0088869D01*
X0067980Y0089868D02*
X0006833Y0089868D01*
X0006833Y0090866D02*
X0112881Y0090866D01*
X0112881Y0089868D02*
X0076687Y0089868D01*
X0076786Y0088869D02*
X0112911Y0088869D01*
X0113311Y0087870D02*
X0076786Y0087870D01*
X0072833Y0088869D02*
X0071833Y0088869D01*
X0071833Y0089868D02*
X0072833Y0089868D01*
X0062514Y0097158D02*
X0061636Y0096280D01*
X0058031Y0096280D01*
X0057333Y0096977D01*
X0056636Y0096280D01*
X0053031Y0096280D01*
X0052333Y0096977D01*
X0051636Y0096280D01*
X0048031Y0096280D01*
X0047333Y0096977D01*
X0046636Y0096280D01*
X0043031Y0096280D01*
X0042333Y0096977D01*
X0041636Y0096280D01*
X0038031Y0096280D01*
X0037333Y0096977D01*
X0036636Y0096280D01*
X0033031Y0096280D01*
X0032333Y0096977D01*
X0031636Y0096280D01*
X0028031Y0096280D01*
X0027333Y0096977D01*
X0026636Y0096280D01*
X0023031Y0096280D01*
X0022152Y0097158D01*
X0022152Y0107062D01*
X0023031Y0107941D01*
X0026636Y0107941D01*
X0027333Y0107243D01*
X0028031Y0107941D01*
X0031636Y0107941D01*
X0032333Y0107243D01*
X0033031Y0107941D01*
X0036636Y0107941D01*
X0037333Y0107243D01*
X0038031Y0107941D01*
X0041636Y0107941D01*
X0042333Y0107243D01*
X0043031Y0107941D01*
X0046636Y0107941D01*
X0047333Y0107243D01*
X0048031Y0107941D01*
X0051636Y0107941D01*
X0052333Y0107243D01*
X0053031Y0107941D01*
X0056636Y0107941D01*
X0057333Y0107243D01*
X0058031Y0107941D01*
X0061636Y0107941D01*
X0062514Y0107062D01*
X0062514Y0097158D01*
X0062213Y0096857D02*
X0124633Y0096857D01*
X0124633Y0095859D02*
X0006833Y0095859D01*
X0006833Y0096857D02*
X0022453Y0096857D01*
X0022152Y0097856D02*
X0006833Y0097856D01*
X0006833Y0098854D02*
X0022152Y0098854D01*
X0022152Y0099853D02*
X0006833Y0099853D01*
X0006833Y0100851D02*
X0022152Y0100851D01*
X0022152Y0101850D02*
X0006833Y0101850D01*
X0006833Y0102848D02*
X0022152Y0102848D01*
X0022152Y0103847D02*
X0006833Y0103847D01*
X0006833Y0104845D02*
X0022152Y0104845D01*
X0022152Y0105844D02*
X0006833Y0105844D01*
X0006833Y0106842D02*
X0022152Y0106842D01*
X0022931Y0107841D02*
X0006833Y0107841D01*
X0006833Y0108839D02*
X0112881Y0108839D01*
X0112881Y0107841D02*
X0061736Y0107841D01*
X0062514Y0106842D02*
X0112881Y0106842D01*
X0112881Y0105844D02*
X0062514Y0105844D01*
X0062514Y0104845D02*
X0113286Y0104845D01*
X0112881Y0103847D02*
X0062514Y0103847D01*
X0062514Y0102848D02*
X0112881Y0102848D01*
X0112881Y0101850D02*
X0062514Y0101850D01*
X0062514Y0100851D02*
X0116833Y0100851D01*
X0116833Y0099853D02*
X0117833Y0099853D01*
X0117833Y0100851D02*
X0126366Y0100851D01*
X0125368Y0099853D02*
X0121786Y0099853D01*
X0121786Y0098854D02*
X0124765Y0098854D01*
X0124633Y0097856D02*
X0121530Y0097856D01*
X0120865Y0095697D02*
X0120484Y0095799D01*
X0117833Y0095799D01*
X0117833Y0092240D01*
X0121786Y0092240D01*
X0121786Y0094497D01*
X0121684Y0094878D01*
X0121486Y0095220D01*
X0121207Y0095499D01*
X0120865Y0095697D01*
X0121689Y0094860D02*
X0124633Y0094860D01*
X0124633Y0093862D02*
X0121786Y0093862D01*
X0121786Y0092863D02*
X0124633Y0092863D01*
X0124633Y0091865D02*
X0117833Y0091865D01*
X0117833Y0092863D02*
X0116833Y0092863D01*
X0116833Y0092240D02*
X0116833Y0095799D01*
X0114183Y0095799D01*
X0113802Y0095697D01*
X0113460Y0095499D01*
X0113180Y0095220D01*
X0112983Y0094878D01*
X0112881Y0094497D01*
X0112881Y0092240D01*
X0116833Y0092240D01*
X0116833Y0091865D02*
X0006833Y0091865D01*
X0006833Y0092863D02*
X0112881Y0092863D01*
X0112881Y0093862D02*
X0006833Y0093862D01*
X0006833Y0094860D02*
X0112978Y0094860D01*
X0113136Y0097856D02*
X0062514Y0097856D01*
X0062514Y0098854D02*
X0112881Y0098854D01*
X0112881Y0099853D02*
X0062514Y0099853D01*
X0057453Y0096857D02*
X0057213Y0096857D01*
X0052453Y0096857D02*
X0052213Y0096857D01*
X0047453Y0096857D02*
X0047213Y0096857D01*
X0042453Y0096857D02*
X0042213Y0096857D01*
X0037453Y0096857D02*
X0037213Y0096857D01*
X0032453Y0096857D02*
X0032213Y0096857D01*
X0027453Y0096857D02*
X0027213Y0096857D01*
X0026736Y0107841D02*
X0027931Y0107841D01*
X0031736Y0107841D02*
X0032931Y0107841D01*
X0036736Y0107841D02*
X0037931Y0107841D01*
X0041736Y0107841D02*
X0042931Y0107841D01*
X0046736Y0107841D02*
X0047931Y0107841D01*
X0051736Y0107841D02*
X0052931Y0107841D01*
X0056736Y0107841D02*
X0057931Y0107841D01*
X0066061Y0121820D02*
X0006833Y0121820D01*
X0006833Y0122818D02*
X0064712Y0122818D01*
X0063714Y0123817D02*
X0006833Y0123817D01*
X0006833Y0124815D02*
X0062933Y0124815D01*
X0062357Y0125814D02*
X0006833Y0125814D01*
X0006833Y0126812D02*
X0061799Y0126812D01*
X0061532Y0127811D02*
X0006833Y0127811D01*
X0006833Y0128809D02*
X0061264Y0128809D01*
X0061083Y0129808D02*
X0006833Y0129808D01*
X0006833Y0130806D02*
X0061083Y0130806D01*
X0061083Y0131805D02*
X0006833Y0131805D01*
X0006833Y0132803D02*
X0061214Y0132803D01*
X0061482Y0133802D02*
X0006833Y0133802D01*
X0006833Y0134801D02*
X0061749Y0134801D01*
X0062249Y0135799D02*
X0006833Y0135799D01*
X0006833Y0136798D02*
X0062825Y0136798D01*
X0063527Y0137796D02*
X0006833Y0137796D01*
X0006833Y0138795D02*
X0064525Y0138795D01*
X0065737Y0139793D02*
X0006833Y0139793D01*
X0006833Y0140792D02*
X0067466Y0140792D01*
X0076201Y0140792D02*
X0154966Y0140792D01*
X0153237Y0139793D02*
X0077930Y0139793D01*
X0079142Y0138795D02*
X0152025Y0138795D01*
X0151027Y0137796D02*
X0080140Y0137796D01*
X0080841Y0136798D02*
X0150325Y0136798D01*
X0149749Y0135799D02*
X0081418Y0135799D01*
X0081917Y0134801D02*
X0149249Y0134801D01*
X0148982Y0133802D02*
X0082185Y0133802D01*
X0082452Y0132803D02*
X0148714Y0132803D01*
X0148583Y0131805D02*
X0082583Y0131805D01*
X0082583Y0130806D02*
X0148583Y0130806D01*
X0148583Y0129808D02*
X0082583Y0129808D01*
X0082402Y0128809D02*
X0148764Y0128809D01*
X0149032Y0127811D02*
X0082135Y0127811D01*
X0081867Y0126812D02*
X0149299Y0126812D01*
X0149857Y0125814D02*
X0081310Y0125814D01*
X0080733Y0124815D02*
X0150433Y0124815D01*
X0151214Y0123817D02*
X0079953Y0123817D01*
X0078955Y0122818D02*
X0152212Y0122818D01*
X0153561Y0121820D02*
X0077606Y0121820D01*
X0075754Y0120821D02*
X0155413Y0120821D01*
X0163254Y0120821D02*
X0184333Y0120821D01*
X0184333Y0119823D02*
X0006833Y0119823D01*
X0006833Y0120821D02*
X0067913Y0120821D01*
X0030077Y0141790D02*
X0006833Y0141790D01*
X0006833Y0142789D02*
X0028202Y0142789D01*
X0029172Y0142084D02*
X0029172Y0142084D01*
X0026828Y0143787D02*
X0006833Y0143787D01*
X0006833Y0144786D02*
X0025745Y0144786D01*
X0026071Y0144337D02*
X0026071Y0144337D01*
X0025020Y0145784D02*
X0006833Y0145784D01*
X0006833Y0146783D02*
X0024294Y0146783D01*
X0023706Y0147781D02*
X0006833Y0147781D01*
X0006833Y0148780D02*
X0023382Y0148780D01*
X0023057Y0149778D02*
X0006833Y0149778D01*
X0006833Y0150777D02*
X0022733Y0150777D01*
X0022633Y0151775D02*
X0006833Y0151775D01*
X0006833Y0152774D02*
X0022633Y0152774D01*
X0022633Y0153772D02*
X0006833Y0153772D01*
X0006833Y0154771D02*
X0022633Y0154771D01*
X0022910Y0155769D02*
X0006833Y0155769D01*
X0006833Y0156768D02*
X0023235Y0156768D01*
X0023559Y0157766D02*
X0006833Y0157766D01*
X0006833Y0158765D02*
X0023965Y0158765D01*
X0024691Y0159763D02*
X0006833Y0159763D01*
X0006833Y0160762D02*
X0025416Y0160762D01*
X0026205Y0161760D02*
X0006833Y0161760D01*
X0006833Y0162759D02*
X0027580Y0162759D01*
X0006833Y0118824D02*
X0184333Y0118824D01*
X0184333Y0117826D02*
X0006833Y0117826D01*
X0006833Y0116827D02*
X0184333Y0116827D01*
X0181631Y0115829D02*
X0006833Y0115829D01*
X0006833Y0114830D02*
X0181518Y0114830D01*
X0181518Y0113832D02*
X0006833Y0113832D01*
X0006833Y0112833D02*
X0181518Y0112833D01*
X0184333Y0121820D02*
X0165106Y0121820D01*
X0166455Y0122818D02*
X0184333Y0122818D01*
X0184333Y0123817D02*
X0167453Y0123817D01*
X0168233Y0124815D02*
X0184333Y0124815D01*
X0184333Y0125814D02*
X0168810Y0125814D01*
X0169367Y0126812D02*
X0184333Y0126812D01*
X0184333Y0127811D02*
X0169635Y0127811D01*
X0169902Y0128809D02*
X0184333Y0128809D01*
X0184333Y0129808D02*
X0170083Y0129808D01*
X0170083Y0130806D02*
X0184742Y0130806D01*
X0185266Y0131805D02*
X0170083Y0131805D01*
X0169952Y0132803D02*
X0185266Y0132803D01*
X0185266Y0133802D02*
X0169685Y0133802D01*
X0169417Y0134801D02*
X0185266Y0134801D01*
X0185266Y0135799D02*
X0168918Y0135799D01*
X0168341Y0136798D02*
X0185266Y0136798D01*
X0185266Y0137796D02*
X0167640Y0137796D01*
X0166642Y0138795D02*
X0186140Y0138795D01*
X0194479Y0138795D02*
X0208188Y0138795D01*
X0208192Y0138799D02*
X0207314Y0137921D01*
X0207314Y0124079D01*
X0208192Y0123201D01*
X0216522Y0123201D01*
X0217400Y0124079D01*
X0217400Y0127000D01*
X0234676Y0127000D01*
X0245333Y0116343D01*
X0245333Y0100786D01*
X0244915Y0100613D01*
X0242721Y0098418D01*
X0241533Y0095552D01*
X0241533Y0092448D01*
X0242721Y0089582D01*
X0244915Y0087387D01*
X0247782Y0086200D01*
X0250885Y0086200D01*
X0253752Y0087387D01*
X0255946Y0089582D01*
X0257133Y0092448D01*
X0257133Y0095552D01*
X0255946Y0098418D01*
X0253752Y0100613D01*
X0253333Y0100786D01*
X0253333Y0118796D01*
X0252724Y0120266D01*
X0251599Y0121391D01*
X0238599Y0134391D01*
X0237129Y0135000D01*
X0217400Y0135000D01*
X0217400Y0137921D01*
X0216522Y0138799D01*
X0208192Y0138799D01*
X0207314Y0137796D02*
X0195353Y0137796D01*
X0195353Y0136798D02*
X0207314Y0136798D01*
X0207314Y0135799D02*
X0195353Y0135799D01*
X0195353Y0134801D02*
X0207314Y0134801D01*
X0207314Y0133802D02*
X0195353Y0133802D01*
X0195353Y0132803D02*
X0207314Y0132803D01*
X0207314Y0131805D02*
X0195353Y0131805D01*
X0195353Y0130806D02*
X0207314Y0130806D01*
X0207314Y0129808D02*
X0195353Y0129808D01*
X0195353Y0128809D02*
X0207314Y0128809D01*
X0207314Y0127811D02*
X0195353Y0127811D01*
X0195353Y0126812D02*
X0207314Y0126812D01*
X0207314Y0125814D02*
X0195353Y0125814D01*
X0195353Y0124815D02*
X0207314Y0124815D01*
X0207576Y0123817D02*
X0195090Y0123817D01*
X0192333Y0122818D02*
X0238858Y0122818D01*
X0239857Y0121820D02*
X0192333Y0121820D01*
X0192333Y0120821D02*
X0240855Y0120821D01*
X0241854Y0119823D02*
X0192333Y0119823D01*
X0192333Y0118824D02*
X0242852Y0118824D01*
X0243851Y0117826D02*
X0192333Y0117826D01*
X0192333Y0116827D02*
X0244849Y0116827D01*
X0245333Y0115829D02*
X0223230Y0115829D01*
X0224534Y0114830D02*
X0245333Y0114830D01*
X0245333Y0113832D02*
X0225532Y0113832D01*
X0226188Y0112833D02*
X0245333Y0112833D01*
X0245333Y0111835D02*
X0226602Y0111835D01*
X0227015Y0110836D02*
X0245333Y0110836D01*
X0245333Y0109838D02*
X0227133Y0109838D01*
X0227133Y0108839D02*
X0245333Y0108839D01*
X0245333Y0107841D02*
X0227133Y0107841D01*
X0226882Y0106842D02*
X0245333Y0106842D01*
X0245333Y0105844D02*
X0226469Y0105844D01*
X0226055Y0104845D02*
X0245333Y0104845D01*
X0245333Y0103847D02*
X0225211Y0103847D01*
X0224212Y0102848D02*
X0245333Y0102848D01*
X0245333Y0101850D02*
X0222453Y0101850D01*
X0216213Y0101850D02*
X0172786Y0101850D01*
X0172786Y0102848D02*
X0181529Y0102848D01*
X0181518Y0103847D02*
X0172786Y0103847D01*
X0172381Y0104845D02*
X0181518Y0104845D01*
X0172786Y0099853D02*
X0244155Y0099853D01*
X0243157Y0098854D02*
X0172786Y0098854D01*
X0172530Y0097856D02*
X0242488Y0097856D01*
X0242074Y0096857D02*
X0130033Y0096857D01*
X0130033Y0095859D02*
X0241661Y0095859D01*
X0241533Y0094860D02*
X0130033Y0094860D01*
X0130033Y0093862D02*
X0241533Y0093862D01*
X0241533Y0092863D02*
X0130033Y0092863D01*
X0124381Y0090866D02*
X0121786Y0090866D01*
X0121786Y0089868D02*
X0123382Y0089868D01*
X0122384Y0088869D02*
X0121755Y0088869D01*
X0121385Y0087870D02*
X0121356Y0087870D01*
X0126027Y0084875D02*
X0141534Y0084875D01*
X0141534Y0085873D02*
X0127025Y0085873D01*
X0128024Y0086872D02*
X0141833Y0086872D01*
X0141534Y0083876D02*
X0125028Y0083876D01*
X0117833Y0093862D02*
X0116833Y0093862D01*
X0116833Y0094860D02*
X0117833Y0094860D01*
X0117833Y0097856D02*
X0116833Y0097856D01*
X0116833Y0098854D02*
X0117833Y0098854D01*
X0121786Y0101850D02*
X0127365Y0101850D01*
X0128314Y0102848D02*
X0121786Y0102848D01*
X0121786Y0103847D02*
X0129059Y0103847D01*
X0135333Y0104845D02*
X0121381Y0104845D01*
X0121786Y0105844D02*
X0135333Y0105844D01*
X0137333Y0108000D02*
X0138333Y0109000D01*
X0142192Y0109000D01*
X0142451Y0108740D01*
X0146353Y0105844D02*
X0148881Y0105844D01*
X0149286Y0104845D02*
X0146353Y0104845D01*
X0146353Y0103847D02*
X0148881Y0103847D01*
X0148881Y0102848D02*
X0146353Y0102848D01*
X0146353Y0101850D02*
X0148881Y0101850D01*
X0148881Y0099853D02*
X0146353Y0099853D01*
X0146353Y0100851D02*
X0152833Y0100851D01*
X0152833Y0099853D02*
X0153833Y0099853D01*
X0153833Y0100851D02*
X0167833Y0100851D01*
X0167833Y0099853D02*
X0168833Y0099853D01*
X0168833Y0100851D02*
X0245333Y0100851D01*
X0253333Y0100851D02*
X0262833Y0100851D01*
X0262833Y0099853D02*
X0254512Y0099853D01*
X0255510Y0098854D02*
X0262833Y0098854D01*
X0262833Y0097856D02*
X0256179Y0097856D01*
X0256593Y0096857D02*
X0262833Y0096857D01*
X0262833Y0095859D02*
X0257006Y0095859D01*
X0257133Y0094860D02*
X0262833Y0094860D01*
X0262833Y0093862D02*
X0257133Y0093862D01*
X0257133Y0092863D02*
X0262833Y0092863D01*
X0262833Y0091865D02*
X0256891Y0091865D01*
X0256478Y0090866D02*
X0262833Y0090866D01*
X0262833Y0089868D02*
X0256064Y0089868D01*
X0255233Y0088869D02*
X0262833Y0088869D01*
X0262833Y0087870D02*
X0254235Y0087870D01*
X0252507Y0086872D02*
X0262833Y0086872D01*
X0262833Y0085873D02*
X0195148Y0085873D01*
X0195148Y0084875D02*
X0262833Y0084875D01*
X0262833Y0083876D02*
X0195148Y0083876D01*
X0195148Y0083213D02*
X0195148Y0088717D01*
X0195046Y0089099D01*
X0194849Y0089441D01*
X0194569Y0089720D01*
X0194227Y0089917D01*
X0193846Y0090020D01*
X0188833Y0090020D01*
X0188833Y0083213D01*
X0187833Y0083213D01*
X0187833Y0090020D01*
X0182821Y0090020D01*
X0182439Y0089917D01*
X0182097Y0089720D01*
X0181818Y0089441D01*
X0181621Y0089099D01*
X0181518Y0088717D01*
X0181518Y0083213D01*
X0187833Y0083213D01*
X0187833Y0082213D01*
X0181518Y0082213D01*
X0181518Y0076708D01*
X0181621Y0076327D01*
X0181818Y0075984D01*
X0182097Y0075705D01*
X0182439Y0075508D01*
X0182821Y0075406D01*
X0187833Y0075406D01*
X0187833Y0082213D01*
X0188833Y0082213D01*
X0188833Y0083213D01*
X0195148Y0083213D01*
X0195148Y0082213D02*
X0188833Y0082213D01*
X0188833Y0075405D01*
X0193846Y0075406D01*
X0194227Y0075508D01*
X0194569Y0075705D01*
X0194849Y0075984D01*
X0195046Y0076327D01*
X0195148Y0076708D01*
X0195148Y0082213D01*
X0195148Y0081879D02*
X0262833Y0081879D01*
X0262833Y0080881D02*
X0253104Y0080881D01*
X0254482Y0079882D02*
X0262833Y0079882D01*
X0262833Y0078884D02*
X0255480Y0078884D01*
X0256167Y0077885D02*
X0262833Y0077885D01*
X0262833Y0076887D02*
X0256580Y0076887D01*
X0256994Y0075888D02*
X0262833Y0075888D01*
X0262833Y0074890D02*
X0257133Y0074890D01*
X0257133Y0073891D02*
X0262833Y0073891D01*
X0262833Y0072893D02*
X0257133Y0072893D01*
X0256904Y0071894D02*
X0262833Y0071894D01*
X0262833Y0070896D02*
X0256490Y0070896D01*
X0256077Y0069897D02*
X0262833Y0069897D01*
X0262833Y0068899D02*
X0255263Y0068899D01*
X0254264Y0067900D02*
X0262833Y0067900D01*
X0262833Y0066902D02*
X0252579Y0066902D01*
X0246088Y0066902D02*
X0210801Y0066902D01*
X0211033Y0067900D02*
X0244402Y0067900D01*
X0243404Y0068899D02*
X0211033Y0068899D01*
X0211049Y0069897D02*
X0242590Y0069897D01*
X0243186Y0078884D02*
X0195148Y0078884D01*
X0195148Y0079882D02*
X0244185Y0079882D01*
X0245563Y0080881D02*
X0195148Y0080881D01*
X0195148Y0077885D02*
X0210261Y0077885D01*
X0208563Y0076887D02*
X0195148Y0076887D01*
X0194752Y0075888D02*
X0207786Y0075888D01*
X0206408Y0072893D02*
X0182269Y0072893D01*
X0183267Y0071894D02*
X0205781Y0071894D01*
X0205633Y0070896D02*
X0194803Y0070896D01*
X0195117Y0069897D02*
X0205633Y0069897D01*
X0205414Y0068899D02*
X0195117Y0068899D01*
X0195117Y0067900D02*
X0204415Y0067900D01*
X0197610Y0066902D02*
X0195117Y0066902D01*
X0194091Y0063906D02*
X0197550Y0063906D01*
X0197800Y0062908D02*
X0195055Y0062908D01*
X0188833Y0075888D02*
X0187833Y0075888D01*
X0187833Y0076887D02*
X0188833Y0076887D01*
X0188833Y0077885D02*
X0187833Y0077885D01*
X0187833Y0078884D02*
X0188833Y0078884D01*
X0188833Y0079882D02*
X0187833Y0079882D01*
X0187833Y0080881D02*
X0188833Y0080881D01*
X0188833Y0081879D02*
X0187833Y0081879D01*
X0187833Y0082878D02*
X0157133Y0082878D01*
X0157133Y0083876D02*
X0181518Y0083876D01*
X0181518Y0084875D02*
X0157133Y0084875D01*
X0157133Y0085873D02*
X0181518Y0085873D01*
X0181518Y0086872D02*
X0156835Y0086872D01*
X0155281Y0087870D02*
X0181518Y0087870D01*
X0181559Y0088869D02*
X0154283Y0088869D01*
X0153284Y0089868D02*
X0182353Y0089868D01*
X0187833Y0089868D02*
X0188833Y0089868D01*
X0188833Y0088869D02*
X0187833Y0088869D01*
X0187833Y0087870D02*
X0188833Y0087870D01*
X0188833Y0086872D02*
X0187833Y0086872D01*
X0187833Y0085873D02*
X0188833Y0085873D01*
X0188833Y0084875D02*
X0187833Y0084875D01*
X0187833Y0083876D02*
X0188833Y0083876D01*
X0188833Y0082878D02*
X0262833Y0082878D01*
X0246159Y0086872D02*
X0195148Y0086872D01*
X0195148Y0087870D02*
X0244432Y0087870D01*
X0243433Y0088869D02*
X0195108Y0088869D01*
X0194314Y0089868D02*
X0242602Y0089868D01*
X0242189Y0090866D02*
X0152286Y0090866D01*
X0151287Y0091865D02*
X0241775Y0091865D01*
X0253333Y0101850D02*
X0262833Y0101850D01*
X0262833Y0102848D02*
X0253333Y0102848D01*
X0253333Y0103847D02*
X0262833Y0103847D01*
X0262833Y0104845D02*
X0253333Y0104845D01*
X0253333Y0105844D02*
X0262833Y0105844D01*
X0262833Y0106842D02*
X0253333Y0106842D01*
X0253333Y0107841D02*
X0262833Y0107841D01*
X0262833Y0108839D02*
X0253333Y0108839D01*
X0253333Y0109838D02*
X0262833Y0109838D01*
X0262833Y0110836D02*
X0253333Y0110836D01*
X0253333Y0111835D02*
X0262833Y0111835D01*
X0262833Y0112833D02*
X0253333Y0112833D01*
X0253333Y0113832D02*
X0262833Y0113832D01*
X0262833Y0114830D02*
X0253333Y0114830D01*
X0253333Y0115829D02*
X0262833Y0115829D01*
X0262833Y0116827D02*
X0253333Y0116827D01*
X0253333Y0117826D02*
X0262833Y0117826D01*
X0262833Y0118824D02*
X0253321Y0118824D01*
X0252908Y0119823D02*
X0262833Y0119823D01*
X0262833Y0120821D02*
X0252169Y0120821D01*
X0251170Y0121820D02*
X0262833Y0121820D01*
X0262833Y0122818D02*
X0250172Y0122818D01*
X0249173Y0123817D02*
X0262833Y0123817D01*
X0262833Y0124815D02*
X0248175Y0124815D01*
X0247176Y0125814D02*
X0262833Y0125814D01*
X0262833Y0126812D02*
X0246178Y0126812D01*
X0245179Y0127811D02*
X0262833Y0127811D01*
X0262833Y0128809D02*
X0244181Y0128809D01*
X0243182Y0129808D02*
X0262833Y0129808D01*
X0262833Y0130806D02*
X0242184Y0130806D01*
X0241185Y0131805D02*
X0262833Y0131805D01*
X0262833Y0132803D02*
X0240187Y0132803D01*
X0239188Y0133802D02*
X0262833Y0133802D01*
X0262833Y0134801D02*
X0237611Y0134801D01*
X0236750Y0140900D02*
X0236750Y0140900D01*
X0239489Y0141790D02*
X0262833Y0141790D01*
X0262833Y0140792D02*
X0163701Y0140792D01*
X0165430Y0139793D02*
X0262833Y0139793D01*
X0262833Y0138795D02*
X0216526Y0138795D01*
X0217400Y0137796D02*
X0262833Y0137796D01*
X0262833Y0136798D02*
X0217400Y0136798D01*
X0217400Y0135799D02*
X0262833Y0135799D01*
X0262833Y0142789D02*
X0241364Y0142789D01*
X0240395Y0142084D02*
X0240395Y0142084D01*
X0242739Y0143787D02*
X0262833Y0143787D01*
X0262833Y0144786D02*
X0243822Y0144786D01*
X0244547Y0145784D02*
X0262833Y0145784D01*
X0262833Y0146783D02*
X0245273Y0146783D01*
X0245860Y0147781D02*
X0262833Y0147781D01*
X0262833Y0148780D02*
X0246185Y0148780D01*
X0246509Y0149778D02*
X0262833Y0149778D01*
X0262833Y0150777D02*
X0246834Y0150777D01*
X0246933Y0151775D02*
X0262833Y0151775D01*
X0262833Y0152774D02*
X0246933Y0152774D01*
X0246933Y0153772D02*
X0262833Y0153772D01*
X0262833Y0154771D02*
X0246933Y0154771D01*
X0246656Y0155769D02*
X0262833Y0155769D01*
X0262833Y0156768D02*
X0246332Y0156768D01*
X0246007Y0157766D02*
X0262833Y0157766D01*
X0262833Y0158765D02*
X0245601Y0158765D01*
X0245749Y0158562D02*
X0245749Y0158562D01*
X0244876Y0159763D02*
X0262833Y0159763D01*
X0262833Y0160762D02*
X0244150Y0160762D01*
X0243496Y0161663D02*
X0243496Y0161663D01*
X0243496Y0161663D01*
X0243362Y0161760D02*
X0262833Y0161760D01*
X0262833Y0162759D02*
X0241987Y0162759D01*
X0234864Y0126812D02*
X0217400Y0126812D01*
X0217400Y0125814D02*
X0235863Y0125814D01*
X0236861Y0124815D02*
X0217400Y0124815D01*
X0217138Y0123817D02*
X0237860Y0123817D01*
X0215437Y0115829D02*
X0195035Y0115829D01*
X0195148Y0114830D02*
X0214133Y0114830D01*
X0213134Y0113832D02*
X0195148Y0113832D01*
X0195148Y0104845D02*
X0212612Y0104845D01*
X0213456Y0103847D02*
X0195148Y0103847D01*
X0195137Y0102848D02*
X0214454Y0102848D01*
X0181518Y0081879D02*
X0157133Y0081879D01*
X0157133Y0080881D02*
X0181518Y0080881D01*
X0181518Y0079882D02*
X0157133Y0079882D01*
X0156591Y0078884D02*
X0181518Y0078884D01*
X0181518Y0077885D02*
X0156333Y0077885D01*
X0156333Y0076887D02*
X0181518Y0076887D01*
X0181914Y0075888D02*
X0156333Y0075888D01*
X0154333Y0081740D02*
X0154333Y0069000D01*
X0155333Y0068000D01*
X0149105Y0067900D02*
X0124062Y0067900D01*
X0123063Y0066902D02*
X0145314Y0066902D01*
X0145314Y0068899D02*
X0125061Y0068899D01*
X0122333Y0065903D02*
X0143408Y0065903D01*
X0142410Y0064905D02*
X0122333Y0064905D01*
X0123320Y0063906D02*
X0123347Y0063906D01*
X0119593Y0060000D02*
X0119333Y0059740D01*
X0103664Y0059740D01*
X0106899Y0056917D02*
X0115534Y0056917D01*
X0153073Y0083000D02*
X0154333Y0081740D01*
X0153833Y0097856D02*
X0152833Y0097856D01*
X0152833Y0098854D02*
X0153833Y0098854D01*
X0157530Y0097856D02*
X0164136Y0097856D01*
X0163881Y0098854D02*
X0157786Y0098854D01*
X0157786Y0099853D02*
X0163881Y0099853D01*
X0163881Y0101850D02*
X0157786Y0101850D01*
X0157786Y0102848D02*
X0163881Y0102848D01*
X0163881Y0103847D02*
X0157786Y0103847D01*
X0157381Y0104845D02*
X0164286Y0104845D01*
X0167833Y0098854D02*
X0168833Y0098854D01*
X0168833Y0097856D02*
X0167833Y0097856D01*
X0149136Y0097856D02*
X0131007Y0097856D01*
X0135553Y0098854D02*
X0139114Y0098854D01*
X0136652Y0099853D02*
X0136117Y0099853D01*
X0138073Y0101260D02*
X0137333Y0102000D01*
X0137333Y0108000D01*
X0136343Y0109838D02*
X0136117Y0109838D01*
X0135862Y0110836D02*
X0137341Y0110836D01*
X0138073Y0101260D02*
X0142451Y0101260D01*
X0145789Y0098854D02*
X0148881Y0098854D01*
X0148881Y0111835D02*
X0121786Y0111835D01*
X0112881Y0111835D02*
X0006833Y0111835D01*
X0006833Y0110836D02*
X0112881Y0110836D01*
X0112881Y0109838D02*
X0006833Y0109838D01*
X0165534Y0045933D02*
X0262833Y0045933D01*
X0262833Y0044934D02*
X0166702Y0044934D01*
X0167700Y0043936D02*
X0262833Y0043936D01*
X0262833Y0042937D02*
X0168376Y0042937D01*
X0168953Y0041939D02*
X0262833Y0041939D01*
X0262833Y0040940D02*
X0169434Y0040940D01*
X0169701Y0039942D02*
X0262833Y0039942D01*
X0262833Y0038943D02*
X0169969Y0038943D01*
X0170083Y0037945D02*
X0262833Y0037945D01*
X0262833Y0036946D02*
X0170083Y0036946D01*
X0170083Y0035948D02*
X0262833Y0035948D01*
X0262833Y0034949D02*
X0169886Y0034949D01*
X0169619Y0033951D02*
X0262833Y0033951D01*
X0262833Y0032952D02*
X0169351Y0032952D01*
X0168775Y0031954D02*
X0262833Y0031954D01*
X0262833Y0030955D02*
X0168199Y0030955D01*
X0167393Y0029957D02*
X0262833Y0029957D01*
X0262833Y0028958D02*
X0166394Y0028958D01*
X0222977Y0065903D02*
X0262833Y0065903D01*
X0262833Y0064905D02*
X0224451Y0064905D01*
X0225400Y0063906D02*
X0262833Y0063906D01*
X0262833Y0062908D02*
X0226084Y0062908D01*
X0226571Y0061909D02*
X0262833Y0061909D01*
X0262833Y0060911D02*
X0226897Y0060911D01*
X0237181Y0027960D02*
X0262833Y0027960D01*
X0262833Y0026961D02*
X0240254Y0026961D01*
X0240395Y0026916D02*
X0240395Y0026916D01*
X0241706Y0025963D02*
X0262833Y0025963D01*
X0262833Y0024964D02*
X0243081Y0024964D01*
X0243496Y0024663D02*
X0243496Y0024663D01*
X0243496Y0024663D01*
X0244002Y0023966D02*
X0262833Y0023966D01*
X0262833Y0022967D02*
X0244728Y0022967D01*
X0245453Y0021969D02*
X0262833Y0021969D01*
X0262833Y0020970D02*
X0245941Y0020970D01*
X0245749Y0021562D02*
X0245749Y0021562D01*
X0246266Y0019972D02*
X0262833Y0019972D01*
X0262833Y0018973D02*
X0246590Y0018973D01*
X0246914Y0017975D02*
X0262833Y0017975D01*
X0262833Y0016976D02*
X0246933Y0016976D01*
X0246933Y0015978D02*
X0262833Y0015978D01*
X0262833Y0014979D02*
X0246933Y0014979D01*
X0246900Y0013981D02*
X0262833Y0013981D01*
X0262833Y0012982D02*
X0246575Y0012982D01*
X0246251Y0011984D02*
X0262833Y0011984D01*
X0262833Y0010985D02*
X0245927Y0010985D01*
X0245421Y0009987D02*
X0262833Y0009987D01*
X0262833Y0008988D02*
X0244695Y0008988D01*
X0243970Y0007990D02*
X0262833Y0007990D01*
X0262833Y0006991D02*
X0243019Y0006991D01*
X0241645Y0005993D02*
X0262833Y0005993D01*
M02*
